<svg width="397" height="62" viewBox="0 0 397 62" fill="none" xmlns="http://www.w3.org/2000/svg">
<g filter="url(#filter0_d_2046_1897)">
<path d="M88.7124 9.45949C91.177 11.6511 93.0555 14.1367 94.3479 16.9163C95.6403 19.6959 96.3015 22.6493 96.3316 25.7763C96.3316 26.7118 96.3015 27.8343 96.2414 29.1439C96.1813 30.4535 96.0611 31.8701 95.8808 33.3935C95.7004 34.9169 95.4149 36.4805 95.0242 38.0841C94.6334 39.6877 94.1375 41.278 93.5364 42.8548C92.6347 45.1534 91.5828 47.0243 90.3805 48.4675C89.1783 49.9108 87.931 51.0467 86.6386 51.8752C85.3462 52.7037 84.0388 53.265 82.7163 53.559C81.3938 53.853 80.1616 54 79.0194 54C78.0276 54 77.1259 53.853 76.3144 53.559C75.5029 53.265 74.7214 52.8641 73.97 52.3563C73.2186 51.8485 72.5274 51.3006 71.8962 50.7126C71.265 50.1246 70.6188 49.4831 69.9576 48.7882C69.3264 48.1468 68.7103 47.5321 68.1092 46.9441C67.508 46.3561 66.8618 45.8349 66.1705 45.3805C65.4793 44.9262 64.788 44.5386 64.0967 44.2179C63.4054 43.8972 62.5939 43.7368 61.6622 43.7368H38.6694C37.7978 43.7636 37.0013 43.9239 36.28 44.2179C35.5587 44.5119 34.8523 44.8861 34.1611 45.3405C33.4698 45.7948 32.8386 46.3294 32.2675 46.9441C31.6965 47.5588 31.0653 48.1735 30.374 48.7882C29.7428 49.4297 29.1117 50.0578 28.4805 50.6725C27.8493 51.2872 27.158 51.8485 26.4066 52.3563C25.6552 52.8641 24.8738 53.2516 24.0623 53.5189C23.2508 53.7862 22.3341 53.9465 21.3122 54C20.1701 54 18.9378 53.853 17.6153 53.559C16.2928 53.265 14.9854 52.7171 13.693 51.9153C12.4006 51.1135 11.1533 49.9776 9.95106 48.5076C8.74883 47.0376 7.69687 45.1534 6.7952 42.8548C6.19408 41.3047 5.71318 39.7278 5.35251 38.1242C4.99184 36.5206 4.70631 34.9437 4.49592 33.3935C4.28553 31.8433 4.15028 30.4268 4.09017 29.1439C4.03006 27.861 4 26.7385 4 25.7763C4 22.676 4.6462 19.736 5.9386 16.9564C7.231 14.1768 9.12452 11.6778 11.6192 9.45949C14.0537 7.26788 16.8489 5.59744 20.0047 4.44818C23.1606 3.29892 26.4818 2.71093 29.9683 2.6842H70.3633C73.8498 2.6842 77.156 3.25883 80.2818 4.40809C83.4076 5.55735 86.2178 7.24115 88.7124 9.45949ZM88.0813 41.171C88.6523 39.7545 89.1032 38.2845 89.4338 36.7611C89.7644 35.2377 90.0048 33.781 90.1551 32.3912C90.3054 31.0014 90.4106 29.7185 90.4707 28.5426C90.5308 27.3666 90.5609 26.4445 90.5609 25.7763C90.5609 23.2907 90.0349 20.9655 88.9829 18.8006C87.931 16.6357 86.4883 14.7381 84.6549 13.1077C82.8215 11.4774 80.6875 10.1945 78.253 9.25904C75.8185 8.3236 73.1886 7.84251 70.3633 7.81578H29.9683C27.1731 7.81578 24.5582 8.28351 22.1237 9.21895C19.6892 10.1544 17.5552 11.4373 15.7218 13.0676C13.8884 14.698 12.4457 16.5956 11.3937 18.7605C10.3418 20.9254 9.80078 23.264 9.77073 25.7763C9.77073 26.4712 9.78575 27.3933 9.81581 28.5426C9.84586 29.6918 9.95106 30.9613 10.1314 32.3511C10.3117 33.7409 10.5672 35.2109 10.8978 36.7611C11.2284 38.3113 11.6793 39.7812 12.2503 41.171C13.0017 43.0954 13.8283 44.5787 14.7299 45.6211C15.6316 46.6634 16.5032 47.4252 17.3448 47.9062C18.1864 48.3873 18.9678 48.668 19.6892 48.7481C20.4105 48.8283 20.9515 48.8684 21.3122 48.8684C21.9734 48.8684 22.6947 48.521 23.4762 47.8261C24.2577 47.1312 25.0992 46.3294 26.0009 45.4206C26.7222 44.6723 27.4887 43.9106 28.3002 43.1355C29.1117 42.3604 30.0284 41.6388 31.0503 40.9706C32.0722 40.3024 33.1993 39.7545 34.4316 39.3269C35.6638 38.8993 37.0314 38.6587 38.5342 38.6053H61.7974C63.3002 38.6587 64.6678 38.8993 65.9 39.3269C67.1323 39.7545 68.2444 40.2891 69.2362 40.9305C70.2281 41.572 71.1448 42.2936 71.9864 43.0954C72.8279 43.8972 73.6094 44.6723 74.3307 45.4206C75.2023 46.3026 76.0289 47.0911 76.8103 47.786C77.5918 48.4809 78.3281 48.8417 79.0194 48.8684C79.3801 48.8684 79.9061 48.8283 80.5974 48.7481C81.2886 48.668 82.0701 48.3873 82.9417 47.9062C83.8133 47.4252 84.7 46.6634 85.6017 45.6211C86.5033 44.5787 87.3299 43.0954 88.0813 41.171ZM27.0829 23.2105H32.8536V28.3421H27.0829V33.4737H21.3122V28.3421H15.5415V23.2105H21.3122V18.0789H27.0829V23.2105ZM79.0194 28.3421C79.8309 28.3421 80.5823 28.4757 81.2736 28.743C81.9649 29.0103 82.566 29.3711 83.077 29.8254C83.5879 30.2798 84.0087 30.8277 84.3393 31.4692C84.6699 32.1106 84.8202 32.7788 84.7902 33.4737C84.7902 34.1953 84.6399 34.8635 84.3393 35.4782C84.0388 36.0929 83.633 36.6275 83.1221 37.0818C82.6111 37.5362 81.995 37.9104 81.2736 38.2044C80.5523 38.4983 79.8009 38.632 79.0194 38.6053C78.2079 38.6053 77.4565 38.4716 76.7652 38.2044C76.074 37.9371 75.4728 37.5763 74.9619 37.1219C74.4509 36.6676 74.0302 36.1196 73.6995 35.4782C73.3689 34.8368 73.2186 34.1686 73.2487 33.4737C73.2487 32.752 73.399 32.0839 73.6995 31.4692C74.0001 30.8544 74.4059 30.3199 74.9168 29.8655C75.4278 29.4112 76.0439 29.037 76.7652 28.743C77.4866 28.449 78.238 28.3154 79.0194 28.3421ZM67.478 18.0789C68.2895 18.0789 69.0409 18.2126 69.7322 18.4798C70.4235 18.7471 71.0246 19.1079 71.5355 19.5623C72.0465 20.0166 72.4673 20.5645 72.7979 21.206C73.1285 21.8474 73.2788 22.5156 73.2487 23.2105C73.2487 23.9321 73.0984 24.6003 72.7979 25.215C72.4973 25.8298 72.0916 26.3643 71.5806 26.8187C71.0697 27.273 70.4535 27.6472 69.7322 27.9412C69.0108 28.2352 68.2594 28.3688 67.478 28.3421C66.6665 28.3421 65.9151 28.2085 65.2238 27.9412C64.5325 27.6739 63.9314 27.3131 63.4204 26.8588C62.9095 26.4044 62.4887 25.8565 62.1581 25.215C61.8275 24.5736 61.6772 23.9054 61.7073 23.2105C61.7073 22.4889 61.8575 21.8207 62.1581 21.206C62.4586 20.5913 62.8644 20.0567 63.3754 19.6024C63.8863 19.148 64.5024 18.7738 65.2238 18.4798C65.9451 18.1858 66.6965 18.0522 67.478 18.0789Z" fill="#EDEDED"/>
</g>
<mask id="path-2-outside-1_2046_1897" maskUnits="userSpaceOnUse" x="98.3316" y="8" width="263" height="39" fill="black">
<rect fill="white" x="98.3316" y="8" width="263" height="39"/>
<path d="M122.519 22.5114C122.481 22.0095 122.377 21.5691 122.207 21.1903C122.036 20.8021 121.795 20.4754 121.482 20.2102C121.17 19.9356 120.781 19.732 120.317 19.5994C119.863 19.4574 119.328 19.3864 118.712 19.3864C117.387 19.3864 116.179 19.7036 115.09 20.3381C114.001 20.9725 113.087 21.8864 112.349 23.0795C111.619 24.2727 111.118 25.7121 110.843 27.3977C110.559 29.1023 110.535 30.5606 110.772 31.7727C111.009 32.9848 111.52 33.9129 112.306 34.5568C113.101 35.2008 114.176 35.5227 115.53 35.5227C116.743 35.5227 117.789 35.3475 118.67 34.9972C119.55 34.6468 120.256 34.1496 120.786 33.5057C121.316 32.8617 121.648 32.1042 121.78 31.233L123.144 31.375H116.496L117.405 25.75H130.303L129.65 29.7841C129.214 32.4356 128.277 34.7036 126.837 36.5881C125.407 38.4631 123.627 39.9025 121.496 40.9062C119.366 41.9006 117.027 42.3977 114.479 42.3977C111.657 42.3977 109.276 41.7964 107.334 40.5938C105.393 39.3911 104.006 37.6771 103.173 35.4517C102.349 33.2263 102.188 30.5795 102.69 27.5114C103.087 25.1061 103.807 22.9754 104.849 21.1193C105.9 19.2633 107.183 17.696 108.698 16.4176C110.213 15.1297 111.885 14.1591 113.712 13.5057C115.54 12.8428 117.434 12.5114 119.394 12.5114C121.108 12.5114 122.666 12.7576 124.067 13.25C125.469 13.733 126.667 14.4242 127.661 15.3239C128.655 16.214 129.399 17.2699 129.891 18.4915C130.393 19.7131 130.597 21.053 130.502 22.5114H122.519ZM137.423 42.3409C136.041 42.3409 134.852 42.1136 133.858 41.6591C132.873 41.1951 132.153 40.4943 131.699 39.5568C131.254 38.6098 131.154 37.4167 131.4 35.9773C131.599 34.7841 131.973 33.7661 132.523 32.9233C133.072 32.0805 133.754 31.3892 134.568 30.8494C135.383 30.3097 136.296 29.8977 137.31 29.6136C138.332 29.3201 139.412 29.1307 140.548 29.0455C141.779 28.9508 142.778 28.8324 143.545 28.6903C144.312 28.5483 144.885 28.3542 145.264 28.108C145.643 27.8617 145.87 27.5303 145.946 27.1136V27.0568C146.031 26.4886 145.88 26.053 145.491 25.75C145.113 25.447 144.582 25.2955 143.9 25.2955C143.162 25.2955 142.523 25.4564 141.983 25.7784C141.453 26.1004 141.088 26.6023 140.889 27.2841H133.673C133.976 25.9583 134.597 24.7367 135.534 23.6193C136.481 22.4924 137.736 21.5928 139.298 20.9205C140.87 20.2386 142.745 19.8977 144.923 19.8977C146.476 19.8977 147.84 20.0824 149.014 20.4517C150.188 20.8116 151.159 21.3182 151.926 21.9716C152.703 22.6155 153.247 23.3731 153.56 24.2443C153.882 25.1061 153.957 26.0436 153.787 27.0568L151.287 42H143.957L144.469 38.9318H144.298C143.73 39.7462 143.091 40.4044 142.381 40.9062C141.68 41.4081 140.913 41.7727 140.079 42C139.256 42.2273 138.37 42.3409 137.423 42.3409ZM140.832 37.3977C141.419 37.3977 141.997 37.2746 142.565 37.0284C143.133 36.7822 143.621 36.4271 144.028 35.9631C144.436 35.4991 144.696 34.9356 144.81 34.2727L145.094 32.4545C144.885 32.5398 144.653 32.6203 144.398 32.696C144.151 32.7623 143.891 32.8286 143.616 32.8949C143.351 32.9612 143.067 33.0227 142.764 33.0795C142.471 33.1364 142.168 33.1932 141.855 33.25C141.23 33.3447 140.704 33.5009 140.278 33.7188C139.852 33.9271 139.521 34.1875 139.284 34.5C139.047 34.803 138.9 35.1439 138.844 35.5227C138.758 36.1193 138.896 36.5833 139.256 36.9148C139.625 37.2367 140.15 37.3977 140.832 37.3977ZM155.09 42L158.726 20.1818H166.17L165.488 24.3295H165.715C166.387 22.9659 167.339 21.8864 168.57 21.0909C169.801 20.2955 171.179 19.8977 172.704 19.8977C174.228 19.8977 175.478 20.3049 176.454 21.1193C177.429 21.9242 177.922 22.9943 177.931 24.3295H178.158C178.745 22.9943 179.707 21.9242 181.042 21.1193C182.377 20.3049 183.859 19.8977 185.488 19.8977C187.562 19.8977 189.138 20.5701 190.218 21.9148C191.307 23.2595 191.662 25.0492 191.283 27.2841L188.84 42H180.999L183.158 29.2727C183.291 28.3163 183.158 27.5682 182.761 27.0284C182.363 26.4792 181.757 26.2045 180.942 26.2045C180.137 26.2045 179.456 26.4792 178.897 27.0284C178.348 27.5682 178.007 28.3163 177.874 29.2727L175.715 42H168.215L170.374 29.2727C170.507 28.3163 170.374 27.5682 169.976 27.0284C169.579 26.4792 168.973 26.2045 168.158 26.2045C167.628 26.2045 167.145 26.3277 166.709 26.5739C166.283 26.8201 165.928 27.1752 165.644 27.6392C165.369 28.0937 165.185 28.6383 165.09 29.2727L162.931 42H155.09ZM203.048 42.3977C200.719 42.3977 198.787 41.9527 197.253 41.0625C195.719 40.1629 194.639 38.875 194.014 37.1989C193.389 35.5133 193.275 33.4962 193.673 31.1477C194.052 28.8939 194.833 26.9242 196.017 25.2386C197.21 23.553 198.711 22.2415 200.52 21.304C202.338 20.3665 204.374 19.8977 206.628 19.8977C208.275 19.8977 209.72 20.1534 210.96 20.6648C212.21 21.1761 213.228 21.9195 214.014 22.8949C214.8 23.8703 215.33 25.0492 215.605 26.4318C215.889 27.8049 215.889 29.358 215.605 31.0909L215.321 32.9091H195.832L196.514 28.5909H208.787C208.882 27.9659 208.82 27.4167 208.602 26.9432C208.394 26.4602 208.058 26.0862 207.594 25.821C207.139 25.5464 206.59 25.4091 205.946 25.4091C205.302 25.4091 204.696 25.5464 204.128 25.821C203.569 26.0956 203.091 26.4792 202.693 26.9716C202.305 27.464 202.044 28.0417 201.912 28.7045L201.06 33.25C200.946 33.9508 200.989 34.5758 201.187 35.125C201.386 35.6742 201.732 36.1051 202.224 36.4176C202.717 36.7301 203.351 36.8864 204.128 36.8864C204.658 36.8864 205.16 36.8153 205.633 36.6733C206.116 36.5218 206.543 36.304 206.912 36.0199C207.291 35.7263 207.594 35.3712 207.821 34.9545H214.98C214.469 36.4697 213.659 37.786 212.551 38.9034C211.453 40.0114 210.098 40.8731 208.489 41.4886C206.888 42.0947 205.075 42.3977 203.048 42.3977ZM247.015 23.8182H239.117C239.174 23.1458 239.136 22.5398 239.003 22C238.871 21.4602 238.644 20.9962 238.322 20.608C238 20.2102 237.578 19.9072 237.057 19.6989C236.537 19.4905 235.916 19.3864 235.197 19.3864C233.814 19.3864 232.578 19.732 231.489 20.4233C230.4 21.1051 229.496 22.0852 228.776 23.3636C228.057 24.6326 227.545 26.1477 227.242 27.9091C226.977 29.6136 226.967 31.0294 227.214 32.1562C227.469 33.2831 227.967 34.1259 228.705 34.6847C229.453 35.2434 230.424 35.5227 231.617 35.5227C232.413 35.5227 233.142 35.428 233.805 35.2386C234.477 35.0492 235.074 34.7794 235.594 34.429C236.125 34.0691 236.575 33.643 236.944 33.1506C237.323 32.6487 237.611 32.0947 237.81 31.4886H245.765C245.462 32.7197 244.922 33.9792 244.146 35.267C243.369 36.5455 242.365 37.7244 241.134 38.804C239.903 39.8741 238.454 40.7405 236.788 41.4034C235.121 42.0663 233.246 42.3977 231.163 42.3977C228.435 42.3977 226.082 41.8011 224.103 40.608C222.133 39.4148 220.703 37.6723 219.813 35.3807C218.932 33.089 218.757 30.2955 219.288 27C219.818 23.8182 220.864 21.1525 222.427 19.0028C223.989 16.8532 225.888 15.2339 228.123 14.1449C230.358 13.0559 232.735 12.5114 235.253 12.5114C237.157 12.5114 238.861 12.7623 240.367 13.2642C241.882 13.7661 243.156 14.5 244.188 15.4659C245.23 16.4223 245.997 17.6013 246.489 19.0028C246.982 20.4044 247.157 22.0095 247.015 23.8182ZM258.126 42.3977C255.797 42.3977 253.865 41.9527 252.331 41.0625C250.797 40.1629 249.717 38.875 249.092 37.1989C248.467 35.5133 248.354 33.4962 248.751 31.1477C249.13 28.8939 249.911 26.9242 251.095 25.2386C252.288 23.553 253.789 22.2415 255.598 21.304C257.416 20.3665 259.452 19.8977 261.706 19.8977C263.354 19.8977 264.798 20.1534 266.038 20.6648C267.288 21.1761 268.306 21.9195 269.092 22.8949C269.878 23.8703 270.409 25.0492 270.683 26.4318C270.967 27.8049 270.967 29.358 270.683 31.0909L270.399 32.9091H250.91L251.592 28.5909H263.865C263.96 27.9659 263.898 27.4167 263.68 26.9432C263.472 26.4602 263.136 26.0862 262.672 25.821C262.217 25.5464 261.668 25.4091 261.024 25.4091C260.38 25.4091 259.774 25.5464 259.206 25.821C258.647 26.0956 258.169 26.4792 257.771 26.9716C257.383 27.464 257.123 28.0417 256.99 28.7045L256.138 33.25C256.024 33.9508 256.067 34.5758 256.266 35.125C256.464 35.6742 256.81 36.1051 257.302 36.4176C257.795 36.7301 258.429 36.8864 259.206 36.8864C259.736 36.8864 260.238 36.8153 260.712 36.6733C261.195 36.5218 261.621 36.304 261.99 36.0199C262.369 35.7263 262.672 35.3712 262.899 34.9545H270.058C269.547 36.4697 268.737 37.786 267.629 38.9034C266.531 40.0114 265.177 40.8731 263.567 41.4886C261.966 42.0947 260.153 42.3977 258.126 42.3977ZM282.008 29.7273L279.962 42H272.121L275.758 20.1818H283.201L282.519 24.3295H282.746C283.438 22.9375 284.446 21.8532 285.772 21.0767C287.107 20.2907 288.58 19.8977 290.19 19.8977C291.733 19.8977 293.016 20.2481 294.039 20.9489C295.062 21.6496 295.786 22.6155 296.212 23.8466C296.638 25.0777 296.714 26.4886 296.44 28.0795L294.11 42H286.269L288.315 29.7273C288.494 28.6477 288.362 27.8002 287.917 27.1847C287.481 26.5691 286.762 26.2614 285.758 26.2614C285.123 26.2614 284.541 26.4034 284.011 26.6875C283.49 26.9621 283.054 27.3598 282.704 27.8807C282.363 28.392 282.131 29.0076 282.008 29.7273ZM314.572 20.1818L313.606 25.8636H299.231L300.197 20.1818H314.572ZM303.833 14.9545H311.674L308.35 34.983C308.303 35.286 308.312 35.5417 308.378 35.75C308.445 35.9489 308.577 36.1004 308.776 36.2045C308.985 36.2992 309.259 36.3466 309.6 36.3466C309.827 36.3466 310.107 36.3182 310.438 36.2614C310.77 36.1951 311.021 36.1477 311.191 36.1193L311.418 41.6307C311.021 41.7443 310.485 41.8722 309.813 42.0142C309.15 42.1657 308.378 42.2652 307.498 42.3125C305.661 42.3977 304.164 42.2036 303.009 41.7301C301.863 41.2566 301.068 40.518 300.623 39.5142C300.187 38.5009 300.111 37.2367 300.396 35.7216L303.833 14.9545ZM324.298 42.3977C321.969 42.3977 320.037 41.9527 318.503 41.0625C316.969 40.1629 315.889 38.875 315.264 37.1989C314.639 35.5133 314.525 33.4962 314.923 31.1477C315.302 28.8939 316.083 26.9242 317.267 25.2386C318.46 23.553 319.961 22.2415 321.77 21.304C323.588 20.3665 325.624 19.8977 327.878 19.8977C329.525 19.8977 330.97 20.1534 332.21 20.6648C333.46 21.1761 334.478 21.9195 335.264 22.8949C336.05 23.8703 336.58 25.0492 336.855 26.4318C337.139 27.8049 337.139 29.358 336.855 31.0909L336.571 32.9091H317.082L317.764 28.5909H330.037C330.132 27.9659 330.07 27.4167 329.852 26.9432C329.644 26.4602 329.308 26.0862 328.844 25.821C328.389 25.5464 327.84 25.4091 327.196 25.4091C326.552 25.4091 325.946 25.5464 325.378 25.821C324.819 26.0956 324.341 26.4792 323.943 26.9716C323.555 27.464 323.294 28.0417 323.162 28.7045L322.31 33.25C322.196 33.9508 322.239 34.5758 322.437 35.125C322.636 35.6742 322.982 36.1051 323.474 36.4176C323.967 36.7301 324.601 36.8864 325.378 36.8864C325.908 36.8864 326.41 36.8153 326.883 36.6733C327.366 36.5218 327.793 36.304 328.162 36.0199C328.541 35.7263 328.844 35.3712 329.071 34.9545H336.23C335.719 36.4697 334.909 37.786 333.801 38.9034C332.703 40.0114 331.348 40.8731 329.739 41.4886C328.138 42.0947 326.325 42.3977 324.298 42.3977ZM338.236 42L341.873 20.1818H349.486L348.805 24.3295H349.032C349.685 22.7955 350.504 21.6733 351.489 20.9631C352.474 20.2528 353.549 19.8977 354.714 19.8977C355.055 19.8977 355.381 19.9261 355.694 19.983C356.016 20.0303 356.333 20.0966 356.646 20.1818L355.509 26.8864C355.14 26.7443 354.681 26.6449 354.131 26.5881C353.582 26.5218 353.094 26.4886 352.668 26.4886C351.911 26.4886 351.2 26.6638 350.538 27.0142C349.884 27.3551 349.325 27.8381 348.861 28.4631C348.407 29.0786 348.104 29.803 347.952 30.6364L346.077 42H338.236Z"/>
</mask>
<path d="M122.519 22.5114C122.481 22.0095 122.377 21.5691 122.207 21.1903C122.036 20.8021 121.795 20.4754 121.482 20.2102C121.17 19.9356 120.781 19.732 120.317 19.5994C119.863 19.4574 119.328 19.3864 118.712 19.3864C117.387 19.3864 116.179 19.7036 115.09 20.3381C114.001 20.9725 113.087 21.8864 112.349 23.0795C111.619 24.2727 111.118 25.7121 110.843 27.3977C110.559 29.1023 110.535 30.5606 110.772 31.7727C111.009 32.9848 111.52 33.9129 112.306 34.5568C113.101 35.2008 114.176 35.5227 115.53 35.5227C116.743 35.5227 117.789 35.3475 118.67 34.9972C119.55 34.6468 120.256 34.1496 120.786 33.5057C121.316 32.8617 121.648 32.1042 121.78 31.233L123.144 31.375H116.496L117.405 25.75H130.303L129.65 29.7841C129.214 32.4356 128.277 34.7036 126.837 36.5881C125.407 38.4631 123.627 39.9025 121.496 40.9062C119.366 41.9006 117.027 42.3977 114.479 42.3977C111.657 42.3977 109.276 41.7964 107.334 40.5938C105.393 39.3911 104.006 37.6771 103.173 35.4517C102.349 33.2263 102.188 30.5795 102.69 27.5114C103.087 25.1061 103.807 22.9754 104.849 21.1193C105.9 19.2633 107.183 17.696 108.698 16.4176C110.213 15.1297 111.885 14.1591 113.712 13.5057C115.54 12.8428 117.434 12.5114 119.394 12.5114C121.108 12.5114 122.666 12.7576 124.067 13.25C125.469 13.733 126.667 14.4242 127.661 15.3239C128.655 16.214 129.399 17.2699 129.891 18.4915C130.393 19.7131 130.597 21.053 130.502 22.5114H122.519ZM137.423 42.3409C136.041 42.3409 134.852 42.1136 133.858 41.6591C132.873 41.1951 132.153 40.4943 131.699 39.5568C131.254 38.6098 131.154 37.4167 131.4 35.9773C131.599 34.7841 131.973 33.7661 132.523 32.9233C133.072 32.0805 133.754 31.3892 134.568 30.8494C135.383 30.3097 136.296 29.8977 137.31 29.6136C138.332 29.3201 139.412 29.1307 140.548 29.0455C141.779 28.9508 142.778 28.8324 143.545 28.6903C144.312 28.5483 144.885 28.3542 145.264 28.108C145.643 27.8617 145.87 27.5303 145.946 27.1136V27.0568C146.031 26.4886 145.88 26.053 145.491 25.75C145.113 25.447 144.582 25.2955 143.9 25.2955C143.162 25.2955 142.523 25.4564 141.983 25.7784C141.453 26.1004 141.088 26.6023 140.889 27.2841H133.673C133.976 25.9583 134.597 24.7367 135.534 23.6193C136.481 22.4924 137.736 21.5928 139.298 20.9205C140.87 20.2386 142.745 19.8977 144.923 19.8977C146.476 19.8977 147.84 20.0824 149.014 20.4517C150.188 20.8116 151.159 21.3182 151.926 21.9716C152.703 22.6155 153.247 23.3731 153.56 24.2443C153.882 25.1061 153.957 26.0436 153.787 27.0568L151.287 42H143.957L144.469 38.9318H144.298C143.73 39.7462 143.091 40.4044 142.381 40.9062C141.68 41.4081 140.913 41.7727 140.079 42C139.256 42.2273 138.37 42.3409 137.423 42.3409ZM140.832 37.3977C141.419 37.3977 141.997 37.2746 142.565 37.0284C143.133 36.7822 143.621 36.4271 144.028 35.9631C144.436 35.4991 144.696 34.9356 144.81 34.2727L145.094 32.4545C144.885 32.5398 144.653 32.6203 144.398 32.696C144.151 32.7623 143.891 32.8286 143.616 32.8949C143.351 32.9612 143.067 33.0227 142.764 33.0795C142.471 33.1364 142.168 33.1932 141.855 33.25C141.23 33.3447 140.704 33.5009 140.278 33.7188C139.852 33.9271 139.521 34.1875 139.284 34.5C139.047 34.803 138.9 35.1439 138.844 35.5227C138.758 36.1193 138.896 36.5833 139.256 36.9148C139.625 37.2367 140.15 37.3977 140.832 37.3977ZM155.09 42L158.726 20.1818H166.17L165.488 24.3295H165.715C166.387 22.9659 167.339 21.8864 168.57 21.0909C169.801 20.2955 171.179 19.8977 172.704 19.8977C174.228 19.8977 175.478 20.3049 176.454 21.1193C177.429 21.9242 177.922 22.9943 177.931 24.3295H178.158C178.745 22.9943 179.707 21.9242 181.042 21.1193C182.377 20.3049 183.859 19.8977 185.488 19.8977C187.562 19.8977 189.138 20.5701 190.218 21.9148C191.307 23.2595 191.662 25.0492 191.283 27.2841L188.84 42H180.999L183.158 29.2727C183.291 28.3163 183.158 27.5682 182.761 27.0284C182.363 26.4792 181.757 26.2045 180.942 26.2045C180.137 26.2045 179.456 26.4792 178.897 27.0284C178.348 27.5682 178.007 28.3163 177.874 29.2727L175.715 42H168.215L170.374 29.2727C170.507 28.3163 170.374 27.5682 169.976 27.0284C169.579 26.4792 168.973 26.2045 168.158 26.2045C167.628 26.2045 167.145 26.3277 166.709 26.5739C166.283 26.8201 165.928 27.1752 165.644 27.6392C165.369 28.0937 165.185 28.6383 165.09 29.2727L162.931 42H155.09ZM203.048 42.3977C200.719 42.3977 198.787 41.9527 197.253 41.0625C195.719 40.1629 194.639 38.875 194.014 37.1989C193.389 35.5133 193.275 33.4962 193.673 31.1477C194.052 28.8939 194.833 26.9242 196.017 25.2386C197.21 23.553 198.711 22.2415 200.52 21.304C202.338 20.3665 204.374 19.8977 206.628 19.8977C208.275 19.8977 209.72 20.1534 210.96 20.6648C212.21 21.1761 213.228 21.9195 214.014 22.8949C214.8 23.8703 215.33 25.0492 215.605 26.4318C215.889 27.8049 215.889 29.358 215.605 31.0909L215.321 32.9091H195.832L196.514 28.5909H208.787C208.882 27.9659 208.82 27.4167 208.602 26.9432C208.394 26.4602 208.058 26.0862 207.594 25.821C207.139 25.5464 206.59 25.4091 205.946 25.4091C205.302 25.4091 204.696 25.5464 204.128 25.821C203.569 26.0956 203.091 26.4792 202.693 26.9716C202.305 27.464 202.044 28.0417 201.912 28.7045L201.06 33.25C200.946 33.9508 200.989 34.5758 201.187 35.125C201.386 35.6742 201.732 36.1051 202.224 36.4176C202.717 36.7301 203.351 36.8864 204.128 36.8864C204.658 36.8864 205.16 36.8153 205.633 36.6733C206.116 36.5218 206.543 36.304 206.912 36.0199C207.291 35.7263 207.594 35.3712 207.821 34.9545H214.98C214.469 36.4697 213.659 37.786 212.551 38.9034C211.453 40.0114 210.098 40.8731 208.489 41.4886C206.888 42.0947 205.075 42.3977 203.048 42.3977ZM247.015 23.8182H239.117C239.174 23.1458 239.136 22.5398 239.003 22C238.871 21.4602 238.644 20.9962 238.322 20.608C238 20.2102 237.578 19.9072 237.057 19.6989C236.537 19.4905 235.916 19.3864 235.197 19.3864C233.814 19.3864 232.578 19.732 231.489 20.4233C230.4 21.1051 229.496 22.0852 228.776 23.3636C228.057 24.6326 227.545 26.1477 227.242 27.9091C226.977 29.6136 226.967 31.0294 227.214 32.1562C227.469 33.2831 227.967 34.1259 228.705 34.6847C229.453 35.2434 230.424 35.5227 231.617 35.5227C232.413 35.5227 233.142 35.428 233.805 35.2386C234.477 35.0492 235.074 34.7794 235.594 34.429C236.125 34.0691 236.575 33.643 236.944 33.1506C237.323 32.6487 237.611 32.0947 237.81 31.4886H245.765C245.462 32.7197 244.922 33.9792 244.146 35.267C243.369 36.5455 242.365 37.7244 241.134 38.804C239.903 39.8741 238.454 40.7405 236.788 41.4034C235.121 42.0663 233.246 42.3977 231.163 42.3977C228.435 42.3977 226.082 41.8011 224.103 40.608C222.133 39.4148 220.703 37.6723 219.813 35.3807C218.932 33.089 218.757 30.2955 219.288 27C219.818 23.8182 220.864 21.1525 222.427 19.0028C223.989 16.8532 225.888 15.2339 228.123 14.1449C230.358 13.0559 232.735 12.5114 235.253 12.5114C237.157 12.5114 238.861 12.7623 240.367 13.2642C241.882 13.7661 243.156 14.5 244.188 15.4659C245.23 16.4223 245.997 17.6013 246.489 19.0028C246.982 20.4044 247.157 22.0095 247.015 23.8182ZM258.126 42.3977C255.797 42.3977 253.865 41.9527 252.331 41.0625C250.797 40.1629 249.717 38.875 249.092 37.1989C248.467 35.5133 248.354 33.4962 248.751 31.1477C249.13 28.8939 249.911 26.9242 251.095 25.2386C252.288 23.553 253.789 22.2415 255.598 21.304C257.416 20.3665 259.452 19.8977 261.706 19.8977C263.354 19.8977 264.798 20.1534 266.038 20.6648C267.288 21.1761 268.306 21.9195 269.092 22.8949C269.878 23.8703 270.409 25.0492 270.683 26.4318C270.967 27.8049 270.967 29.358 270.683 31.0909L270.399 32.9091H250.91L251.592 28.5909H263.865C263.96 27.9659 263.898 27.4167 263.68 26.9432C263.472 26.4602 263.136 26.0862 262.672 25.821C262.217 25.5464 261.668 25.4091 261.024 25.4091C260.38 25.4091 259.774 25.5464 259.206 25.821C258.647 26.0956 258.169 26.4792 257.771 26.9716C257.383 27.464 257.123 28.0417 256.99 28.7045L256.138 33.25C256.024 33.9508 256.067 34.5758 256.266 35.125C256.464 35.6742 256.81 36.1051 257.302 36.4176C257.795 36.7301 258.429 36.8864 259.206 36.8864C259.736 36.8864 260.238 36.8153 260.712 36.6733C261.195 36.5218 261.621 36.304 261.99 36.0199C262.369 35.7263 262.672 35.3712 262.899 34.9545H270.058C269.547 36.4697 268.737 37.786 267.629 38.9034C266.531 40.0114 265.177 40.8731 263.567 41.4886C261.966 42.0947 260.153 42.3977 258.126 42.3977ZM282.008 29.7273L279.962 42H272.121L275.758 20.1818H283.201L282.519 24.3295H282.746C283.438 22.9375 284.446 21.8532 285.772 21.0767C287.107 20.2907 288.58 19.8977 290.19 19.8977C291.733 19.8977 293.016 20.2481 294.039 20.9489C295.062 21.6496 295.786 22.6155 296.212 23.8466C296.638 25.0777 296.714 26.4886 296.44 28.0795L294.11 42H286.269L288.315 29.7273C288.494 28.6477 288.362 27.8002 287.917 27.1847C287.481 26.5691 286.762 26.2614 285.758 26.2614C285.123 26.2614 284.541 26.4034 284.011 26.6875C283.49 26.9621 283.054 27.3598 282.704 27.8807C282.363 28.392 282.131 29.0076 282.008 29.7273ZM314.572 20.1818L313.606 25.8636H299.231L300.197 20.1818H314.572ZM303.833 14.9545H311.674L308.35 34.983C308.303 35.286 308.312 35.5417 308.378 35.75C308.445 35.9489 308.577 36.1004 308.776 36.2045C308.985 36.2992 309.259 36.3466 309.6 36.3466C309.827 36.3466 310.107 36.3182 310.438 36.2614C310.77 36.1951 311.021 36.1477 311.191 36.1193L311.418 41.6307C311.021 41.7443 310.485 41.8722 309.813 42.0142C309.15 42.1657 308.378 42.2652 307.498 42.3125C305.661 42.3977 304.164 42.2036 303.009 41.7301C301.863 41.2566 301.068 40.518 300.623 39.5142C300.187 38.5009 300.111 37.2367 300.396 35.7216L303.833 14.9545ZM324.298 42.3977C321.969 42.3977 320.037 41.9527 318.503 41.0625C316.969 40.1629 315.889 38.875 315.264 37.1989C314.639 35.5133 314.525 33.4962 314.923 31.1477C315.302 28.8939 316.083 26.9242 317.267 25.2386C318.46 23.553 319.961 22.2415 321.77 21.304C323.588 20.3665 325.624 19.8977 327.878 19.8977C329.525 19.8977 330.97 20.1534 332.21 20.6648C333.46 21.1761 334.478 21.9195 335.264 22.8949C336.05 23.8703 336.58 25.0492 336.855 26.4318C337.139 27.8049 337.139 29.358 336.855 31.0909L336.571 32.9091H317.082L317.764 28.5909H330.037C330.132 27.9659 330.07 27.4167 329.852 26.9432C329.644 26.4602 329.308 26.0862 328.844 25.821C328.389 25.5464 327.84 25.4091 327.196 25.4091C326.552 25.4091 325.946 25.5464 325.378 25.821C324.819 26.0956 324.341 26.4792 323.943 26.9716C323.555 27.464 323.294 28.0417 323.162 28.7045L322.31 33.25C322.196 33.9508 322.239 34.5758 322.437 35.125C322.636 35.6742 322.982 36.1051 323.474 36.4176C323.967 36.7301 324.601 36.8864 325.378 36.8864C325.908 36.8864 326.41 36.8153 326.883 36.6733C327.366 36.5218 327.793 36.304 328.162 36.0199C328.541 35.7263 328.844 35.3712 329.071 34.9545H336.23C335.719 36.4697 334.909 37.786 333.801 38.9034C332.703 40.0114 331.348 40.8731 329.739 41.4886C328.138 42.0947 326.325 42.3977 324.298 42.3977ZM338.236 42L341.873 20.1818H349.486L348.805 24.3295H349.032C349.685 22.7955 350.504 21.6733 351.489 20.9631C352.474 20.2528 353.549 19.8977 354.714 19.8977C355.055 19.8977 355.381 19.9261 355.694 19.983C356.016 20.0303 356.333 20.0966 356.646 20.1818L355.509 26.8864C355.14 26.7443 354.681 26.6449 354.131 26.5881C353.582 26.5218 353.094 26.4886 352.668 26.4886C351.911 26.4886 351.2 26.6638 350.538 27.0142C349.884 27.3551 349.325 27.8381 348.861 28.4631C348.407 29.0786 348.104 29.803 347.952 30.6364L346.077 42H338.236Z" fill="#EDEDED"/>
<path d="M122.519 22.5114L118.53 22.8124L118.81 26.5114H122.519V22.5114ZM122.207 21.1903L118.544 22.7983L118.551 22.8151L118.559 22.8318L122.207 21.1903ZM121.482 20.2102L118.842 23.2149L118.868 23.2378L118.894 23.2603L121.482 20.2102ZM120.317 19.5994L119.124 23.4174L119.171 23.432L119.219 23.4455L120.317 19.5994ZM115.09 20.3381L117.104 23.7943L117.104 23.7943L115.09 20.3381ZM112.349 23.0795L108.948 20.9741L108.942 20.9839L108.936 20.9937L112.349 23.0795ZM110.843 27.3977L114.789 28.0553L114.79 28.0481L114.791 28.0409L110.843 27.3977ZM110.772 31.7727L106.846 32.5395L106.846 32.5395L110.772 31.7727ZM112.306 34.5568L109.771 37.651L109.78 37.6584L109.789 37.6658L112.306 34.5568ZM120.786 33.5057L117.698 30.9629L117.698 30.9629L120.786 33.5057ZM121.78 31.233L122.195 27.2545L118.4 26.8592L117.826 30.6312L121.78 31.233ZM123.144 31.375V35.375L123.559 27.3965L123.144 31.375ZM116.496 31.375L112.548 30.7368L111.798 35.375H116.496V31.375ZM117.405 25.75V21.75H114L113.457 25.1118L117.405 25.75ZM130.303 25.75L134.252 26.3896L135.003 21.75H130.303V25.75ZM129.65 29.7841L133.597 30.4325L133.598 30.4236L129.65 29.7841ZM126.837 36.5881L123.658 34.16L123.657 34.1624L126.837 36.5881ZM121.496 40.9062L123.188 44.531L123.195 44.5279L123.201 44.5248L121.496 40.9062ZM107.334 40.5938L105.228 43.9941L105.228 43.9941L107.334 40.5938ZM103.173 35.4517L99.4213 36.8404L99.4239 36.8475L99.4265 36.8545L103.173 35.4517ZM102.69 27.5114L98.7431 26.8588L98.742 26.8656L102.69 27.5114ZM104.849 21.1193L101.368 19.1482L101.364 19.1549L101.36 19.1617L104.849 21.1193ZM108.698 16.4176L111.278 19.4748L111.283 19.4701L111.289 19.4654L108.698 16.4176ZM113.712 13.5057L115.059 17.2722L115.068 17.2691L115.076 17.266L113.712 13.5057ZM124.067 13.25L122.741 17.0238L122.753 17.0278L122.764 17.0318L124.067 13.25ZM127.661 15.3239L124.977 18.29L124.985 18.2971L124.993 18.3041L127.661 15.3239ZM129.891 18.4915L126.181 19.987L126.186 19.9993L126.191 20.0116L129.891 18.4915ZM130.502 22.5114V26.5114H134.251L134.494 22.7706L130.502 22.5114ZM122.519 22.5114L126.508 22.2103C126.442 21.3403 126.251 20.4303 125.854 19.5489L122.207 21.1903L118.559 22.8318C118.531 22.7698 118.521 22.731 118.52 22.7255C118.519 22.7207 118.526 22.7473 118.53 22.8124L122.519 22.5114ZM122.207 21.1903L125.869 19.5824C125.463 18.6579 124.862 17.832 124.07 17.1602L121.482 20.2102L118.894 23.2603C118.818 23.1954 118.745 23.1181 118.681 23.0317C118.617 22.9457 118.573 22.8646 118.544 22.7983L122.207 21.1903ZM121.482 20.2102L124.123 17.2056C123.299 16.4818 122.359 16.0228 121.416 15.7533L120.317 19.5994L119.219 23.4455C119.204 23.4412 119.04 23.3894 118.842 23.2149L121.482 20.2102ZM120.317 19.5994L121.51 15.7815C120.576 15.4894 119.621 15.3864 118.712 15.3864V19.3864V23.3864C119.035 23.3864 119.15 23.4253 119.124 23.4174L120.317 19.5994ZM118.712 19.3864V15.3864C116.717 15.3864 114.809 15.8725 113.077 16.8819L115.09 20.3381L117.104 23.7943C117.549 23.5347 118.056 23.3864 118.712 23.3864V19.3864ZM115.09 20.3381L113.077 16.8819C111.359 17.8822 109.991 19.2881 108.948 20.9741L112.349 23.0795L115.75 25.185C116.183 24.4846 116.643 24.0629 117.104 23.7943L115.09 20.3381ZM112.349 23.0795L108.936 20.9937C107.884 22.7147 107.235 24.6679 106.895 26.7545L110.843 27.3977L114.791 28.0409C115 26.7563 115.355 25.8308 115.762 25.1653L112.349 23.0795ZM110.843 27.3977L106.897 26.7401C106.564 28.7425 106.489 30.7108 106.846 32.5395L110.772 31.7727L114.698 31.006C114.581 30.4104 114.554 29.462 114.789 28.0553L110.843 27.3977ZM110.772 31.7727L106.846 32.5395C107.221 34.4614 108.119 36.2971 109.771 37.651L112.306 34.5568L114.841 31.4627C114.859 31.4772 114.857 31.4848 114.836 31.4474C114.811 31.4015 114.749 31.2704 114.698 31.006L110.772 31.7727ZM112.306 34.5568L109.789 37.6658C111.498 39.0491 113.558 39.5227 115.53 39.5227V35.5227V31.5227C115.165 31.5227 114.954 31.4786 114.857 31.4495C114.77 31.4235 114.778 31.4118 114.823 31.4478L112.306 34.5568ZM115.53 35.5227V39.5227C117.114 39.5227 118.686 39.2956 120.148 38.7138L118.67 34.9972L117.191 31.2805C116.892 31.3995 116.371 31.5227 115.53 31.5227V35.5227ZM118.67 34.9972L120.148 38.7138C121.569 38.1485 122.859 37.2806 123.874 36.0485L120.786 33.5057L117.698 30.9629C117.652 31.0187 117.531 31.145 117.191 31.2805L118.67 34.9972ZM120.786 33.5057L123.874 36.0485C124.889 34.8157 125.5 33.3774 125.735 31.8347L121.78 31.233L117.826 30.6312C117.796 30.831 117.744 30.9078 117.698 30.9629L120.786 33.5057ZM121.78 31.233L121.366 35.2114L122.73 35.3535L123.144 31.375L123.559 27.3965L122.195 27.2545L121.78 31.233ZM123.144 31.375V27.375H116.496V31.375V35.375H123.144V31.375ZM116.496 31.375L120.445 32.0132L121.354 26.3882L117.405 25.75L113.457 25.1118L112.548 30.7368L116.496 31.375ZM117.405 25.75V29.75H130.303V25.75V21.75H117.405V25.75ZM130.303 25.75L126.355 25.1104L125.701 29.1445L129.65 29.7841L133.598 30.4236L134.252 26.3896L130.303 25.75ZM129.65 29.7841L125.703 29.1356C125.359 31.2271 124.649 32.8628 123.658 34.16L126.837 36.5881L130.016 39.0161C131.904 36.5444 133.069 33.6441 133.597 30.4325L129.65 29.7841ZM126.837 36.5881L123.657 34.1624C122.615 35.5278 121.341 36.5577 119.792 37.2877L121.496 40.9062L123.201 44.5248C125.913 43.2472 128.199 41.3983 130.018 39.0137L126.837 36.5881ZM121.496 40.9062L119.805 37.2815C118.247 38.0086 116.492 38.3977 114.479 38.3977V42.3977V46.3977C117.562 46.3977 120.485 45.7926 123.188 44.531L121.496 40.9062ZM114.479 42.3977V38.3977C112.227 38.3977 110.616 37.9211 109.441 37.1934L107.334 40.5938L105.228 43.9941C107.936 45.6717 111.088 46.3977 114.479 46.3977V42.3977ZM107.334 40.5938L109.441 37.1934C108.284 36.4768 107.455 35.4816 106.918 34.049L103.173 35.4517L99.4265 36.8545C100.557 39.8726 102.502 42.3054 105.228 43.9941L107.334 40.5938ZM103.173 35.4517L106.924 34.063C106.404 32.6584 106.213 30.7475 106.637 28.1571L102.69 27.5114L98.742 26.8656C98.162 30.4115 98.2936 33.7942 99.4213 36.8404L103.173 35.4517ZM102.69 27.5114L106.636 28.1639C106.969 26.1512 107.553 24.4736 108.337 23.077L104.849 21.1193L101.36 19.1617C100.061 21.4771 99.2058 24.0609 98.7431 26.8588L102.69 27.5114ZM104.849 21.1193L108.329 23.0905C109.165 21.6155 110.151 20.425 111.278 19.4748L108.698 16.4176L106.119 13.3604C104.214 14.9671 102.635 16.911 101.368 19.1482L104.849 21.1193ZM108.698 16.4176L111.289 19.4654C112.445 18.4824 113.697 17.7591 115.059 17.2722L113.712 13.5057L112.366 9.73915C110.072 10.5591 107.981 11.7771 106.107 13.3699L108.698 16.4176ZM113.712 13.5057L115.076 17.266C116.463 16.763 117.895 16.5114 119.394 16.5114V12.5114V8.51136C116.973 8.51136 114.617 8.92258 112.348 9.74537L113.712 13.5057ZM119.394 12.5114V16.5114C120.725 16.5114 121.826 16.7022 122.741 17.0238L124.067 13.25L125.393 9.47616C123.506 8.81298 121.491 8.51136 119.394 8.51136V12.5114ZM124.067 13.25L122.764 17.0318C123.709 17.3574 124.424 17.7892 124.977 18.29L127.661 15.3239L130.345 12.3577C128.91 11.0593 127.228 10.1085 125.371 9.46824L124.067 13.25ZM127.661 15.3239L124.993 18.3041C125.537 18.7912 125.921 19.3413 126.181 19.987L129.891 18.4915L133.601 16.996C132.877 15.1985 131.774 13.6368 130.329 12.3436L127.661 15.3239ZM129.891 18.4915L126.191 20.0116C126.438 20.6123 126.57 21.3359 126.51 22.2522L130.502 22.5114L134.494 22.7706C134.624 20.7702 134.348 18.8139 133.591 16.9714L129.891 18.4915ZM130.502 22.5114V18.5114H122.519V22.5114V26.5114H130.502V22.5114ZM133.858 41.6591L132.153 45.2776L132.174 45.2874L132.195 45.297L133.858 41.6591ZM131.699 39.5568L128.079 41.2583L128.089 41.2802L128.1 41.3019L131.699 39.5568ZM131.4 35.9773L135.343 36.6517L135.345 36.6433L135.346 36.6349L131.4 35.9773ZM132.523 32.9233L135.874 35.1072L135.874 35.1072L132.523 32.9233ZM134.568 30.8494L136.778 34.1836L136.778 34.1836L134.568 30.8494ZM137.31 29.6136L138.389 33.4651L138.401 33.4618L138.413 33.4584L137.31 29.6136ZM140.548 29.0455L140.847 33.0343L140.855 33.0337L140.548 29.0455ZM143.545 28.6903L142.817 24.7572L142.817 24.7572L143.545 28.6903ZM145.264 28.108L143.084 24.7542L143.084 24.7542L145.264 28.108ZM145.946 27.1136L149.881 27.8292L149.946 27.4743V27.1136H145.946ZM145.946 27.0568L141.99 26.4635L141.946 26.7585V27.0568H145.946ZM145.491 25.75L142.993 28.8735L143.011 28.8885L143.03 28.9033L145.491 25.75ZM141.983 25.7784L139.934 22.3431L139.92 22.3511L139.907 22.3593L141.983 25.7784ZM140.889 27.2841V31.2841H143.889L144.729 28.4041L140.889 27.2841ZM133.673 27.2841L129.774 26.3928L128.656 31.2841H133.673V27.2841ZM135.534 23.6193L132.472 21.0459L132.47 21.0484L135.534 23.6193ZM139.298 20.9205L140.879 24.5947L140.89 24.5901L139.298 20.9205ZM149.014 20.4517L147.814 24.2674L147.828 24.2718L147.842 24.2762L149.014 20.4517ZM151.926 21.9716L149.332 25.0166L149.352 25.0337L149.373 25.0506L151.926 21.9716ZM153.56 24.2443L149.794 25.5948L149.803 25.6196L149.813 25.6443L153.56 24.2443ZM153.787 27.0568L149.842 26.3932L149.842 26.3968L153.787 27.0568ZM151.287 42V46H154.673L155.232 42.66L151.287 42ZM143.957 42L140.012 41.3424L139.235 46H143.957V42ZM144.469 38.9318L148.414 39.5894L149.191 34.9318H144.469V38.9318ZM144.298 38.9318V34.9318H142.212L141.018 36.6431L144.298 38.9318ZM142.381 40.9062L140.072 37.6396L140.062 37.6469L140.052 37.6543L142.381 40.9062ZM140.079 42L139.027 38.1409L139.016 38.144L140.079 42ZM142.565 37.0284L144.156 40.6986L144.156 40.6986L142.565 37.0284ZM144.028 35.9631L147.035 38.6014L147.035 38.6014L144.028 35.9631ZM144.81 34.2727L148.752 34.9486L148.757 34.9194L148.762 34.8902L144.81 34.2727ZM145.094 32.4545L149.046 33.0721L150.14 26.0683L143.579 28.7524L145.094 32.4545ZM144.398 32.696L145.438 36.5585L145.486 36.5455L145.534 36.5312L144.398 32.696ZM143.616 32.8949L142.678 29.0066L142.662 29.0104L142.646 29.0143L143.616 32.8949ZM142.764 33.0795L142.027 29.1481L142.016 29.1502L142.004 29.1524L142.764 33.0795ZM141.855 33.25L142.454 37.2049L142.513 37.196L142.571 37.1855L141.855 33.25ZM140.278 33.7188L142.035 37.3123L142.067 37.2967L142.099 37.2805L140.278 33.7188ZM139.284 34.5L142.436 36.9626L142.454 36.9391L142.472 36.9154L139.284 34.5ZM138.844 35.5227L134.888 34.9294L134.886 34.9432L134.884 34.957L138.844 35.5227ZM139.256 36.9148L136.546 39.857L136.586 39.894L136.627 39.9299L139.256 36.9148ZM137.423 42.3409V38.3409C136.468 38.3409 135.874 38.1828 135.521 38.0212L133.858 41.6591L132.195 45.297C133.83 46.0445 135.614 46.3409 137.423 46.3409V42.3409ZM133.858 41.6591L135.563 38.0406C135.365 37.9473 135.335 37.8876 135.298 37.8117L131.699 39.5568L128.1 41.3019C128.972 43.1011 130.381 44.4428 132.153 45.2776L133.858 41.6591ZM131.699 39.5568L135.319 37.8554C135.335 37.8892 135.182 37.5938 135.343 36.6517L131.4 35.9773L127.458 35.3029C127.126 37.2395 127.173 39.3305 128.079 41.2583L131.699 39.5568ZM131.4 35.9773L135.346 36.6349C135.472 35.8779 135.68 35.404 135.874 35.1072L132.523 32.9233L129.171 30.7394C128.266 32.1282 127.726 33.6902 127.455 35.3197L131.4 35.9773ZM132.523 32.9233L135.874 35.1072C136.134 34.7078 136.432 34.4128 136.778 34.1836L134.568 30.8494L132.358 27.5153C131.075 28.3656 130.01 29.4532 129.171 30.7394L132.523 32.9233ZM134.568 30.8494L136.778 34.1836C137.219 33.8912 137.747 33.6454 138.389 33.4651L137.31 29.6136L136.23 25.7622C134.846 26.1501 133.546 26.7282 132.358 27.5153L134.568 30.8494ZM137.31 29.6136L138.413 33.4584C139.156 33.2453 139.964 33.1005 140.847 33.0343L140.548 29.0455L140.249 25.0567C138.859 25.1609 137.509 25.3949 136.206 25.7689L137.31 29.6136ZM140.548 29.0455L140.855 33.0337C142.156 32.9336 143.311 32.8017 144.274 32.6235L143.545 28.6903L142.817 24.7572C142.245 24.8631 141.402 24.9679 140.241 25.0572L140.548 29.0455ZM143.545 28.6903L144.274 32.6235C145.237 32.4451 146.415 32.1308 147.444 31.4617L145.264 28.108L143.084 24.7542C143.172 24.6968 143.237 24.6653 143.264 24.6526C143.292 24.6397 143.295 24.6401 143.267 24.6498C143.205 24.6708 143.063 24.7116 142.817 24.7572L143.545 28.6903ZM145.264 28.108L147.444 31.4617C148.677 30.6601 149.594 29.4078 149.881 27.8292L145.946 27.1136L142.01 26.3981C142.068 26.0823 142.198 25.7366 142.42 25.4126C142.638 25.0937 142.887 24.8823 143.084 24.7542L145.264 28.108ZM145.946 27.1136H149.946V27.0568H145.946H141.946V27.1136H145.946ZM145.946 27.0568L149.902 27.6502C150.158 25.9393 149.688 23.9514 147.952 22.5967L145.491 25.75L143.03 28.9033C142.661 28.6148 142.313 28.1772 142.118 27.6181C141.935 27.0915 141.96 26.6656 141.99 26.4635L145.946 27.0568ZM145.491 25.75L147.99 22.6265C146.664 21.5652 145.129 21.2955 143.9 21.2955V25.2955V29.2955C144.036 29.2955 143.562 29.3287 142.993 28.8735L145.491 25.75ZM143.9 25.2955V21.2955C142.568 21.2955 141.194 21.5912 139.934 22.3431L141.983 25.7784L144.032 29.2137C143.952 29.2614 143.883 29.2852 143.844 29.2951C143.809 29.304 143.822 29.2955 143.9 29.2955V25.2955ZM141.983 25.7784L139.907 22.3593C138.398 23.2754 137.485 24.6713 137.049 26.1641L140.889 27.2841L144.729 28.4041C144.718 28.442 144.672 28.5759 144.548 28.7472C144.418 28.9258 144.247 29.083 144.059 29.1976L141.983 25.7784ZM140.889 27.2841V23.2841H133.673V27.2841V31.2841H140.889V27.2841ZM133.673 27.2841L137.573 28.1754C137.724 27.5122 138.038 26.858 138.598 26.1903L135.534 23.6193L132.47 21.0484C131.155 22.6155 130.228 24.4045 129.774 26.3928L133.673 27.2841ZM135.534 23.6193L138.596 26.1927C139.084 25.6124 139.8 25.059 140.879 24.5947L139.298 20.9205L137.717 17.2462C135.671 18.1266 133.878 19.3724 132.472 21.0459L135.534 23.6193ZM139.298 20.9205L140.89 24.5901C141.843 24.1767 143.15 23.8977 144.923 23.8977V19.8977V15.8977C142.341 15.8977 139.897 16.3006 137.707 17.2508L139.298 20.9205ZM144.923 19.8977V23.8977C146.171 23.8977 147.114 24.0473 147.814 24.2674L149.014 20.4517L150.214 16.636C148.566 16.1174 146.782 15.8977 144.923 15.8977V19.8977ZM149.014 20.4517L147.842 24.2762C148.606 24.5102 149.061 24.7859 149.332 25.0166L151.926 21.9716L154.52 18.9266C153.257 17.8505 151.771 17.113 150.186 16.6273L149.014 20.4517ZM151.926 21.9716L149.373 25.0506C149.649 25.2797 149.745 25.4578 149.794 25.5948L153.56 24.2443L157.325 22.8938C156.749 21.2884 155.756 19.9513 154.479 18.8926L151.926 21.9716ZM153.56 24.2443L149.813 25.6443C149.861 25.773 149.91 25.9903 149.842 26.3932L153.787 27.0568L157.731 27.7204C158.005 26.0968 157.902 24.4391 157.307 22.8443L153.56 24.2443ZM153.787 27.0568L149.842 26.3968L147.342 41.34L151.287 42L155.232 42.66L157.732 27.7168L153.787 27.0568ZM151.287 42V38H143.957V42V46H151.287V42ZM143.957 42L147.903 42.6576L148.414 39.5894L144.469 38.9318L140.523 38.2742L140.012 41.3424L143.957 42ZM144.469 38.9318V34.9318H144.298V38.9318V42.9318H144.469V38.9318ZM144.298 38.9318L141.018 36.6431C140.677 37.1308 140.355 37.4399 140.072 37.6396L142.381 40.9062L144.689 44.1729C145.827 43.3688 146.783 42.3616 147.579 41.2205L144.298 38.9318ZM142.381 40.9062L140.052 37.6543C139.738 37.879 139.403 38.0384 139.027 38.1409L140.079 42L141.132 45.8591C142.423 45.5071 143.622 44.9373 144.71 44.1582L142.381 40.9062ZM140.079 42L139.016 38.144C138.573 38.266 138.049 38.3409 137.423 38.3409V42.3409V46.3409C138.691 46.3409 139.938 46.1885 141.143 45.856L140.079 42ZM140.832 37.3977V41.3977C141.996 41.3977 143.113 41.1503 144.156 40.6986L142.565 37.0284L140.975 33.3582C140.881 33.399 140.843 33.3977 140.832 33.3977V37.3977ZM142.565 37.0284L144.156 40.6986C145.265 40.2181 146.236 39.5112 147.035 38.6014L144.028 35.9631L141.022 33.3247C141.014 33.3331 141.01 33.3379 141.007 33.3401C141.005 33.3423 141.003 33.3433 141.003 33.3438C141.002 33.3443 141 33.3455 140.997 33.3475C140.993 33.3495 140.986 33.3532 140.975 33.3582L142.565 37.0284ZM144.028 35.9631L147.035 38.6014C147.972 37.533 148.525 36.2721 148.752 34.9486L144.81 34.2727L140.867 33.5969C140.865 33.6107 140.869 33.5769 140.898 33.5143C140.928 33.4496 140.971 33.3827 141.022 33.3247L144.028 35.9631ZM144.81 34.2727L148.762 34.8902L149.046 33.0721L145.094 32.4545L141.142 31.837L140.858 33.6552L144.81 34.2727ZM145.094 32.4545L143.579 28.7524C143.515 28.7787 143.411 28.8164 143.261 28.8608L144.398 32.696L145.534 36.5312C145.895 36.4242 146.256 36.3008 146.608 36.1567L145.094 32.4545ZM144.398 32.696L143.358 28.8336C143.149 28.8899 142.922 28.9476 142.678 29.0066L143.616 32.8949L144.555 36.7832C144.86 36.7096 145.154 36.6347 145.438 36.5585L144.398 32.696ZM143.616 32.8949L142.646 29.0143C142.467 29.0591 142.262 29.1041 142.027 29.1481L142.764 33.0795L143.501 37.011C143.873 36.9414 144.235 36.8633 144.587 36.7755L143.616 32.8949ZM142.764 33.0795L142.004 29.1524C141.726 29.2062 141.438 29.2602 141.139 29.3145L141.855 33.25L142.571 37.1855C142.897 37.1261 143.215 37.0665 143.524 37.0067L142.764 33.0795ZM141.855 33.25L141.256 29.2951C140.334 29.4349 139.368 29.6919 138.458 30.157L140.278 33.7188L142.099 37.2805C142.065 37.2977 142.071 37.2906 142.132 37.2724C142.193 37.2542 142.298 37.2286 142.454 37.2049L141.855 33.25ZM140.278 33.7188L138.521 30.1252C137.649 30.5517 136.782 31.1785 136.096 32.0846L139.284 34.5L142.472 36.9154C142.259 37.1965 142.055 37.3025 142.035 37.3123L140.278 33.7188ZM139.284 34.5L136.132 32.0374C135.472 32.8816 135.047 33.8658 134.888 34.9294L138.844 35.5227L142.799 36.1161C142.754 36.4221 142.622 36.7245 142.436 36.9626L139.284 34.5ZM138.844 35.5227L134.884 34.957C134.661 36.5151 134.988 38.4221 136.546 39.857L139.256 36.9148L141.966 33.9726C142.311 34.2908 142.58 34.7142 142.718 35.1832C142.848 35.6205 142.823 35.9533 142.803 36.0884L138.844 35.5227ZM139.256 36.9148L136.627 39.9299C137.966 41.0973 139.561 41.3977 140.832 41.3977V37.3977V33.3977C140.74 33.3977 141.284 33.3762 141.884 33.8997L139.256 36.9148ZM155.09 42L151.145 41.3424L150.368 46H155.09V42ZM158.726 20.1818V16.1818H155.338L154.781 19.5242L158.726 20.1818ZM166.17 20.1818L170.117 20.8306L170.881 16.1818H166.17V20.1818ZM165.488 24.3295L161.541 23.6807L160.777 28.3295H165.488V24.3295ZM165.715 24.3295V28.3295H168.203L169.303 26.0984L165.715 24.3295ZM168.57 21.0909L166.399 17.7312L166.399 17.7312L168.57 21.0909ZM176.454 21.1193L173.89 24.1898L173.899 24.1971L173.908 24.2044L176.454 21.1193ZM177.931 24.3295L173.931 24.3579L173.959 28.3295H177.931V24.3295ZM178.158 24.3295V28.3295H180.769L181.82 25.9396L178.158 24.3295ZM181.042 21.1193L183.107 24.545L183.116 24.5396L183.125 24.5342L181.042 21.1193ZM190.218 21.9148L187.099 24.4189L187.104 24.4256L187.109 24.4322L190.218 21.9148ZM191.283 27.2841L187.34 26.6157L187.337 26.629L191.283 27.2841ZM188.84 42V46H192.231L192.786 42.6551L188.84 42ZM180.999 42L177.056 41.331L176.263 46H180.999V42ZM183.158 29.2727L187.102 29.9417L187.112 29.882L187.12 29.8219L183.158 29.2727ZM182.761 27.0284L179.521 29.3744L179.531 29.3879L179.54 29.4012L182.761 27.0284ZM178.897 27.0284L181.701 29.8813L181.701 29.8809L178.897 27.0284ZM177.874 29.2727L181.818 29.9417L181.828 29.882L181.836 29.8219L177.874 29.2727ZM175.715 42V46H179.094L179.659 42.669L175.715 42ZM168.215 42L164.271 41.331L163.479 46H168.215V42ZM170.374 29.2727L174.318 29.9417L174.328 29.882L174.336 29.8219L170.374 29.2727ZM169.976 27.0284L166.737 29.3744L166.746 29.3879L166.756 29.4012L169.976 27.0284ZM166.709 26.5739L164.741 23.0916L164.725 23.1009L164.708 23.1104L166.709 26.5739ZM165.644 27.6392L162.233 25.5506L162.227 25.5606L162.22 25.5707L165.644 27.6392ZM165.09 29.2727L169.034 29.9417L169.04 29.9025L169.046 29.8632L165.09 29.2727ZM162.931 42V46H166.31L166.875 42.669L162.931 42ZM155.09 42L159.036 42.6576L162.672 20.8394L158.726 20.1818L154.781 19.5242L151.145 41.3424L155.09 42ZM158.726 20.1818V24.1818H166.17V20.1818V16.1818H158.726V20.1818ZM166.17 20.1818L162.223 19.533L161.541 23.6807L165.488 24.3295L169.435 24.9784L170.117 20.8306L166.17 20.1818ZM165.488 24.3295V28.3295H165.715V24.3295V20.3295H165.488V24.3295ZM165.715 24.3295L169.303 26.0984C169.668 25.358 170.141 24.8385 170.741 24.4506L168.57 21.0909L166.399 17.7312C164.538 18.9342 163.107 20.5738 162.128 22.5606L165.715 24.3295ZM168.57 21.0909L170.741 24.4506C171.298 24.0905 171.917 23.8977 172.704 23.8977V19.8977V15.8977C170.442 15.8977 168.304 16.5004 166.399 17.7312L168.57 21.0909ZM172.704 19.8977V23.8977C173.487 23.8977 173.771 24.0902 173.89 24.1898L176.454 21.1193L179.017 18.0489C177.186 16.5196 174.97 15.8977 172.704 15.8977V19.8977ZM176.454 21.1193L173.908 24.2044C173.942 24.233 173.951 24.2454 173.945 24.2384C173.939 24.2306 173.929 24.2157 173.921 24.1977C173.913 24.1802 173.914 24.1763 173.918 24.1949C173.922 24.2148 173.93 24.2665 173.931 24.3579L177.931 24.3295L181.931 24.3012C181.914 21.8578 180.945 19.6396 179 18.0342L176.454 21.1193ZM177.931 24.3295V28.3295H178.158V24.3295V20.3295H177.931V24.3295ZM178.158 24.3295L181.82 25.9396C182.052 25.4129 182.427 24.9549 183.107 24.545L181.042 21.1193L178.977 17.6936C176.986 18.8936 175.439 20.5757 174.497 22.7195L178.158 24.3295ZM181.042 21.1193L183.125 24.5342C183.806 24.1188 184.562 23.8977 185.488 23.8977V19.8977V15.8977C183.156 15.8977 180.948 16.4911 178.959 17.7044L181.042 21.1193ZM185.488 19.8977V23.8977C186.622 23.8977 186.934 24.2138 187.099 24.4189L190.218 21.9148L193.337 19.4106C191.343 16.9263 188.502 15.8977 185.488 15.8977V19.8977ZM190.218 21.9148L187.109 24.4322C187.268 24.6274 187.59 25.1409 187.34 26.6157L191.283 27.2841L195.227 27.9525C195.735 24.9576 195.346 21.8915 193.326 19.3973L190.218 21.9148ZM191.283 27.2841L187.337 26.629L184.894 41.3449L188.84 42L192.786 42.6551L195.229 27.9392L191.283 27.2841ZM188.84 42V38H180.999V42V46H188.84V42ZM180.999 42L184.943 42.669L187.102 29.9417L183.158 29.2727L179.215 28.6037L177.056 41.331L180.999 42ZM183.158 29.2727L187.12 29.8219C187.333 28.287 187.225 26.344 185.981 24.6556L182.761 27.0284L179.54 29.4012C179.328 29.1132 179.246 28.8431 179.22 28.6923C179.196 28.5603 179.22 28.553 179.196 28.7235L183.158 29.2727ZM182.761 27.0284L186 24.6824C184.694 22.8787 182.748 22.2045 180.942 22.2045V26.2045V30.2045C180.905 30.2045 180.675 30.1981 180.357 30.0539C180.014 29.8985 179.722 29.6517 179.521 29.3744L182.761 27.0284ZM180.942 26.2045V22.2045C179.121 22.2045 177.422 22.8691 176.093 24.1759L178.897 27.0284L181.701 29.8809C181.63 29.9511 181.501 30.0486 181.322 30.1209C181.144 30.1923 181.003 30.2045 180.942 30.2045V26.2045ZM178.897 27.0284L176.093 24.1755C174.769 25.4771 174.135 27.1183 173.912 28.7235L177.874 29.2727L181.836 29.8219C181.858 29.6621 181.884 29.6196 181.869 29.653C181.861 29.6704 181.844 29.7037 181.815 29.7466C181.785 29.79 181.746 29.8363 181.701 29.8813L178.897 27.0284ZM177.874 29.2727L173.931 28.6037L171.771 41.331L175.715 42L179.659 42.669L181.818 29.9417L177.874 29.2727ZM175.715 42V38H168.215V42V46H175.715V42ZM168.215 42L172.159 42.669L174.318 29.9417L170.374 29.2727L166.431 28.6037L164.271 41.331L168.215 42ZM170.374 29.2727L174.336 29.8219C174.549 28.287 174.441 26.344 173.197 24.6556L169.976 27.0284L166.756 29.4012C166.544 29.1132 166.462 28.8431 166.436 28.6923C166.412 28.5603 166.436 28.553 166.412 28.7235L170.374 29.2727ZM169.976 27.0284L173.216 24.6824C171.91 22.8787 169.964 22.2045 168.158 22.2045V26.2045V30.2045C168.121 30.2045 167.891 30.1981 167.573 30.0539C167.23 29.8985 166.938 29.6517 166.737 29.3744L169.976 27.0284ZM168.158 26.2045V22.2045C166.981 22.2045 165.813 22.4856 164.741 23.0916L166.709 26.5739L168.678 30.0561C168.589 30.1063 168.489 30.1468 168.386 30.1729C168.285 30.1988 168.205 30.2045 168.158 30.2045V26.2045ZM166.709 26.5739L164.708 23.1104C163.646 23.7243 162.827 24.5791 162.233 25.5506L165.644 27.6392L169.056 29.7278C169.047 29.7423 169.015 29.7904 168.952 29.8533C168.888 29.9175 168.806 29.9822 168.711 30.0373L166.709 26.5739ZM165.644 27.6392L162.22 25.5707C161.622 26.5616 161.291 27.631 161.134 28.6823L165.09 29.2727L169.046 29.8632C169.079 29.6455 169.117 29.6259 169.068 29.7077L165.644 27.6392ZM165.09 29.2727L161.146 28.6037L158.987 41.331L162.931 42L166.875 42.669L169.034 29.9417L165.09 29.2727ZM162.931 42V38H155.09V42V46H162.931V42ZM197.253 41.0625L195.229 44.513L195.237 44.5176L195.245 44.5223L197.253 41.0625ZM194.014 37.1989L190.264 38.5895L190.266 38.5964L194.014 37.1989ZM193.673 31.1477L197.617 31.8156L197.618 31.8107L193.673 31.1477ZM196.017 25.2386L192.752 22.9276L192.748 22.9337L192.744 22.9399L196.017 25.2386ZM200.52 21.304L198.687 17.7488L198.679 17.7527L200.52 21.304ZM210.96 20.6648L209.436 24.3629L209.446 24.367L210.96 20.6648ZM214.014 22.8949L210.9 25.4047L210.9 25.4047L214.014 22.8949ZM215.605 26.4318L211.682 27.2111L211.685 27.2267L211.688 27.2422L215.605 26.4318ZM215.605 31.0909L211.658 30.4438L211.655 30.4586L211.653 30.4734L215.605 31.0909ZM215.321 32.9091V36.9091H218.744L219.273 33.5266L215.321 32.9091ZM195.832 32.9091L191.881 32.2852L191.151 36.9091H195.832V32.9091ZM196.514 28.5909V24.5909H193.096L192.563 27.9671L196.514 28.5909ZM208.787 28.5909V32.5909H212.226L212.742 29.1901L208.787 28.5909ZM208.602 26.9432L204.929 28.5275L204.948 28.5714L204.968 28.6148L208.602 26.9432ZM207.594 25.821L205.525 29.2447L205.567 29.2698L205.609 29.294L207.594 25.821ZM204.128 25.821L202.387 22.2196L202.375 22.2254L202.363 22.2312L204.128 25.821ZM202.693 26.9716L199.581 24.4582L199.567 24.4765L199.552 24.495L202.693 26.9716ZM201.912 28.7045L197.99 27.9201L197.985 27.9437L197.98 27.9674L201.912 28.7045ZM201.06 33.25L197.128 32.5128L197.119 32.5612L197.111 32.6097L201.06 33.25ZM201.187 35.125L204.948 33.7632L204.948 33.7632L201.187 35.125ZM202.224 36.4176L204.368 33.0403L204.368 33.0403L202.224 36.4176ZM205.633 36.6733L206.783 40.5046L206.807 40.4974L206.831 40.4899L205.633 36.6733ZM206.912 36.0199L209.351 39.1904L209.356 39.186L209.362 39.1815L206.912 36.0199ZM207.821 34.9545V30.9545H205.446L204.309 33.0391L207.821 34.9545ZM214.98 34.9545L218.77 36.2337L220.552 30.9545H214.98V34.9545ZM212.551 38.9034L209.711 36.087L209.711 36.0871L212.551 38.9034ZM208.489 41.4886L209.905 45.2294L209.917 45.2248L208.489 41.4886ZM203.048 42.3977V38.3977C201.209 38.3977 200.022 38.0449 199.26 37.6027L197.253 41.0625L195.245 44.5223C197.551 45.8604 200.228 46.3977 203.048 46.3977V42.3977ZM197.253 41.0625L199.276 37.612C198.541 37.1809 198.068 36.6207 197.762 35.8013L194.014 37.1989L190.266 38.5964C191.211 41.1293 192.896 43.1448 195.229 44.513L197.253 41.0625ZM194.014 37.1989L197.765 35.8082C197.45 34.9599 197.3 33.6905 197.617 31.8156L193.673 31.1477L189.729 30.4798C189.251 33.302 189.328 36.0666 190.264 38.5895L194.014 37.1989ZM193.673 31.1477L197.618 31.8107C197.909 30.0803 198.486 28.6833 199.29 27.5374L196.017 25.2386L192.744 22.9399C191.181 25.1651 190.195 27.7076 189.729 30.4848L193.673 31.1477ZM196.017 25.2386L199.282 27.5497C200.111 26.3778 201.127 25.4948 202.361 24.8553L200.52 21.304L198.679 17.7527C196.295 18.9882 194.309 20.7283 192.752 22.9276L196.017 25.2386ZM200.52 21.304L202.353 24.8592C203.548 24.2428 204.946 23.8977 206.628 23.8977V19.8977V15.8977C203.802 15.8977 201.128 16.4902 198.687 17.7488L200.52 21.304ZM206.628 19.8977V23.8977C207.868 23.8977 208.775 24.0907 209.436 24.3629L210.96 20.6648L212.485 16.9666C210.664 16.2161 208.683 15.8977 206.628 15.8977V19.8977ZM210.96 20.6648L209.446 24.367C210.12 24.643 210.57 24.9963 210.9 25.4047L214.014 22.8949L217.129 20.3851C215.886 18.8427 214.3 17.7093 212.475 16.9626L210.96 20.6648ZM214.014 22.8949L210.9 25.4047C211.232 25.8169 211.517 26.3819 211.682 27.2111L215.605 26.4318L219.528 25.6525C219.144 23.7166 218.369 21.9237 217.129 20.3851L214.014 22.8949ZM215.605 26.4318L211.688 27.2422C211.851 28.0314 211.882 29.0771 211.658 30.4438L215.605 31.0909L219.552 31.738C219.896 29.6388 219.927 27.5785 219.522 25.6214L215.605 26.4318ZM215.605 31.0909L211.653 30.4734L211.369 32.2916L215.321 32.9091L219.273 33.5266L219.557 31.7084L215.605 31.0909ZM215.321 32.9091V28.9091H195.832V32.9091V36.9091H215.321V32.9091ZM195.832 32.9091L199.783 33.5329L200.465 29.2148L196.514 28.5909L192.563 27.9671L191.881 32.2852L195.832 32.9091ZM196.514 28.5909V32.5909H208.787V28.5909V24.5909H196.514V28.5909ZM208.787 28.5909L212.742 29.1901C212.928 27.9591 212.844 26.593 212.236 25.2716L208.602 26.9432L204.968 28.6148C204.888 28.4408 204.85 28.2796 204.837 28.1557C204.823 28.0371 204.834 27.9765 204.832 27.9917L208.787 28.5909ZM208.602 26.9432L212.275 25.3588C211.718 24.0664 210.782 23.0357 209.578 22.348L207.594 25.821L205.609 29.294C205.494 29.2281 205.353 29.1241 205.219 28.9742C205.084 28.8238 204.989 28.6662 204.929 28.5275L208.602 26.9432ZM207.594 25.821L209.662 22.3974C208.463 21.6728 207.164 21.4091 205.946 21.4091V25.4091V29.4091C205.985 29.4091 205.953 29.4133 205.871 29.3926C205.784 29.371 205.661 29.3268 205.525 29.2447L207.594 25.821ZM205.946 25.4091V21.4091C204.712 21.4091 203.509 21.6772 202.387 22.2196L204.128 25.821L205.868 29.4224C205.883 29.4151 205.89 29.4137 205.892 29.4132C205.895 29.4126 205.911 29.4091 205.946 29.4091V25.4091ZM204.128 25.821L202.363 22.2312C201.274 22.7668 200.338 23.5211 199.581 24.4582L202.693 26.9716L205.805 29.4849C205.843 29.4372 205.865 29.4245 205.892 29.4108L204.128 25.821ZM202.693 26.9716L199.552 24.495C198.744 25.5201 198.236 26.6888 197.99 27.9201L201.912 28.7045L205.834 29.489C205.84 29.4608 205.845 29.4421 205.848 29.4314C205.852 29.4208 205.854 29.4168 205.853 29.4181C205.853 29.4194 205.85 29.4239 205.846 29.4304C205.843 29.4369 205.838 29.4431 205.834 29.4482L202.693 26.9716ZM201.912 28.7045L197.98 27.9674L197.128 32.5128L201.06 33.25L204.991 33.9872L205.843 29.4417L201.912 28.7045ZM201.06 33.25L197.111 32.6097C196.912 33.839 196.951 35.1726 197.426 36.4868L201.187 35.125L204.948 33.7632C204.985 33.8638 204.995 33.9394 204.997 33.9722C204.999 34.0017 204.994 33.9784 205.008 33.8903L201.06 33.25ZM201.187 35.125L197.426 36.4868C197.926 37.8669 198.84 39.0073 200.081 39.7949L202.224 36.4176L204.368 33.0403C204.472 33.1065 204.598 33.2106 204.716 33.3571C204.833 33.5036 204.907 33.6487 204.948 33.7632L201.187 35.125ZM202.224 36.4176L200.081 39.7949C201.394 40.6282 202.838 40.8864 204.128 40.8864V36.8864V32.8864C204.003 32.8864 203.978 32.8734 204.026 32.8852C204.079 32.8983 204.207 32.9384 204.368 33.0403L202.224 36.4176ZM204.128 36.8864V40.8864C205.019 40.8864 205.91 40.7664 206.783 40.5046L205.633 36.6733L204.484 32.842C204.41 32.8643 204.297 32.8864 204.128 32.8864V36.8864ZM205.633 36.6733L206.831 40.4899C207.724 40.2098 208.578 39.7849 209.351 39.1904L206.912 36.0199L204.473 32.8494C204.487 32.8384 204.496 32.8339 204.495 32.8346C204.493 32.8355 204.475 32.8444 204.436 32.8567L205.633 36.6733ZM206.912 36.0199L209.362 39.1815C210.172 38.5535 210.839 37.7756 211.333 36.87L207.821 34.9545L204.309 33.0391C204.326 33.0089 204.35 32.9731 204.38 32.9369C204.411 32.9008 204.44 32.8746 204.462 32.8582L206.912 36.0199ZM207.821 34.9545V38.9545H214.98V34.9545V30.9545H207.821V34.9545ZM214.98 34.9545L211.19 33.6754C210.871 34.6222 210.382 35.4101 209.711 36.087L212.551 38.9034L215.392 41.7198C216.936 40.1618 218.067 38.3172 218.77 36.2337L214.98 34.9545ZM212.551 38.9034L209.711 36.0871C209.052 36.7512 208.195 37.3184 207.06 37.7524L208.489 41.4886L209.917 45.2248C212.002 44.4278 213.853 43.2716 215.392 41.7197L212.551 38.9034ZM208.489 41.4886L207.072 37.7479C205.999 38.1542 204.678 38.3977 203.048 38.3977V42.3977V46.3977C205.472 46.3977 207.777 46.0352 209.905 45.2294L208.489 41.4886ZM247.015 23.8182V27.8182H250.713L251.003 24.1314L247.015 23.8182ZM239.117 23.8182L235.131 23.4814L234.765 27.8182H239.117V23.8182ZM239.003 22L235.119 22.9541L235.119 22.9541L239.003 22ZM238.322 20.608L235.213 23.1247L235.228 23.1431L235.243 23.1613L238.322 20.608ZM237.057 19.6989L235.572 23.4128L237.057 19.6989ZM231.489 20.4233L233.612 23.8136L233.622 23.807L233.633 23.8004L231.489 20.4233ZM228.776 23.3636L232.256 25.337L232.262 25.3259L228.776 23.3636ZM227.242 27.9091L223.3 27.2309L223.295 27.2625L223.29 27.2943L227.242 27.9091ZM227.214 32.1562L223.306 33.0101L223.309 33.0257L223.313 33.0413L227.214 32.1562ZM228.705 34.6847L226.292 37.8748L226.302 37.8822L226.312 37.8895L228.705 34.6847ZM233.805 35.2386L232.72 31.3885L232.713 31.3905L232.706 31.3925L233.805 35.2386ZM235.594 34.429L237.827 37.7479L237.834 37.7434L237.84 37.7389L235.594 34.429ZM236.944 33.1506L233.751 30.7409L233.744 30.7506L236.944 33.1506ZM237.81 31.4886V27.4886H234.913L234.01 30.2415L237.81 31.4886ZM245.765 31.4886L249.649 32.4447L250.869 27.4886H245.765V31.4886ZM244.146 35.267L247.564 37.3436L247.571 37.3324L244.146 35.267ZM241.134 38.804L243.758 41.8229L243.765 41.8172L243.771 41.8114L241.134 38.804ZM236.788 41.4034L235.309 37.6866L235.309 37.6866L236.788 41.4034ZM224.103 40.608L222.03 44.0292L222.038 44.0336L224.103 40.608ZM219.813 35.3807L216.079 36.8156L216.082 36.8223L216.085 36.829L219.813 35.3807ZM219.288 27L215.342 26.3424L215.34 26.3534L215.338 26.3645L219.288 27ZM228.123 14.1449L229.875 17.7407L229.875 17.7407L228.123 14.1449ZM240.367 13.2642L239.102 17.0589L239.109 17.0613L240.367 13.2642ZM244.188 15.4659L241.455 18.3866L241.469 18.3995L241.483 18.4123L244.188 15.4659ZM246.489 19.0028L250.263 17.6769L250.263 17.6769L246.489 19.0028ZM247.015 23.8182V19.8182H239.117V23.8182V27.8182H247.015V23.8182ZM239.117 23.8182L243.103 24.155C243.189 23.1392 243.144 22.0868 242.888 21.0459L239.003 22L235.119 22.9541C235.128 22.9927 235.159 23.1525 235.131 23.4814L239.117 23.8182ZM239.003 22L242.888 21.0459C242.626 19.9797 242.147 18.954 241.401 18.0546L238.322 20.608L235.243 23.1613C235.197 23.1061 235.163 23.0516 235.141 23.0066C235.12 22.9628 235.116 22.9415 235.119 22.9541L239.003 22ZM238.322 20.608L241.431 18.0912C240.638 17.1122 239.636 16.4221 238.543 15.985L237.057 19.6989L235.572 23.4128C235.555 23.4061 235.502 23.3823 235.429 23.3299C235.354 23.2764 235.279 23.2068 235.213 23.1247L238.322 20.608ZM237.057 19.6989L238.543 15.985C237.437 15.5425 236.288 15.3864 235.197 15.3864V19.3864V23.3864C235.545 23.3864 235.636 23.4386 235.572 23.4128L237.057 19.6989ZM235.197 19.3864V15.3864C233.112 15.3864 231.122 15.9186 229.346 17.0462L231.489 20.4233L233.633 23.8004C234.035 23.5454 234.516 23.3864 235.197 23.3864V19.3864ZM231.489 20.4233L229.367 17.033C227.635 18.1171 226.291 19.6241 225.291 21.4014L228.776 23.3636L232.262 25.3259C232.701 24.5464 233.165 24.0932 233.612 23.8136L231.489 20.4233ZM228.776 23.3636L225.297 21.3903C224.305 23.1399 223.664 25.1133 223.3 27.2309L227.242 27.9091L231.184 28.5873C231.426 27.1822 231.808 26.1252 232.256 25.337L228.776 23.3636ZM227.242 27.9091L223.29 27.2943C222.983 29.2684 222.916 31.2236 223.306 33.0101L227.214 32.1562L231.122 31.3024C231.019 30.8351 230.971 29.9588 231.195 28.5239L227.242 27.9091ZM227.214 32.1562L223.313 33.0413C223.724 34.8531 224.629 36.6171 226.292 37.8748L228.705 34.6847L231.118 31.4945C231.149 31.5177 231.176 31.5431 231.197 31.5669C231.217 31.5903 231.225 31.6042 231.224 31.6012C231.219 31.5941 231.167 31.502 231.115 31.2712L227.214 32.1562ZM228.705 34.6847L226.312 37.8895C227.922 39.0923 229.803 39.5227 231.617 39.5227V35.5227V31.5227C231.329 31.5227 231.168 31.4887 231.101 31.4692C231.041 31.4522 231.055 31.4474 231.099 31.4798L228.705 34.6847ZM231.617 35.5227V39.5227C232.728 39.5227 233.833 39.3905 234.903 39.0847L233.805 35.2386L232.706 31.3925C232.45 31.4656 232.097 31.5227 231.617 31.5227V35.5227ZM233.805 35.2386L234.889 39.0888C235.924 38.7972 236.917 38.3602 237.827 37.7479L235.594 34.429L233.362 31.1101C233.23 31.1985 233.03 31.3013 232.72 31.3885L233.805 35.2386ZM235.594 34.429L237.84 37.7389C238.722 37.1409 239.498 36.4114 240.144 35.5506L236.944 33.1506L233.744 30.7506C233.651 30.8746 233.528 30.9973 233.348 31.1191L235.594 34.429ZM236.944 33.1506L240.137 35.5602C240.784 34.7018 241.277 33.754 241.611 32.7357L237.81 31.4886L234.01 30.2415C233.946 30.4354 233.861 30.5956 233.751 30.7409L236.944 33.1506ZM237.81 31.4886V35.4886H245.765V31.4886V27.4886H237.81V31.4886ZM245.765 31.4886L241.881 30.5326C241.69 31.3081 241.326 32.1961 240.72 33.2017L244.146 35.267L247.571 37.3324C248.518 35.7622 249.234 34.1313 249.649 32.4447L245.765 31.4886ZM244.146 35.267L240.727 33.1905C240.181 34.0893 239.45 34.9604 238.497 35.7965L241.134 38.804L243.771 41.8114C245.28 40.4885 246.557 39.0016 247.564 37.3436L244.146 35.267ZM241.134 38.804L238.51 35.7851C237.651 36.5317 236.599 37.1737 235.309 37.6866L236.788 41.4034L238.266 45.1202C240.309 44.3074 242.155 43.2164 243.758 41.8229L241.134 38.804ZM236.788 41.4034L235.309 37.6866C234.183 38.1347 232.82 38.3977 231.163 38.3977V42.3977V46.3977C233.672 46.3977 236.059 45.9978 238.266 45.1202L236.788 41.4034ZM231.163 42.3977V38.3977C229.031 38.3977 227.42 37.9368 226.168 37.1823L224.103 40.608L222.038 44.0336C224.745 45.6655 227.84 46.3977 231.163 46.3977V42.3977ZM224.103 40.608L226.175 37.1867C225.013 36.4825 224.136 35.4611 223.542 33.9324L219.813 35.3807L216.085 36.829C217.271 39.8836 219.254 42.3471 222.03 44.0292L224.103 40.608ZM219.813 35.3807L223.547 33.9458C222.995 32.5086 222.78 30.4747 223.237 27.6355L219.288 27L215.338 26.3645C214.735 30.1162 214.87 33.6694 216.079 36.8156L219.813 35.3807ZM219.288 27L223.233 27.6576C223.683 24.9589 224.535 22.9062 225.662 21.3547L222.427 19.0028L219.191 16.651C217.194 19.3987 215.953 22.6775 215.342 26.3424L219.288 27ZM222.427 19.0028L225.662 21.3547C226.867 19.6973 228.269 18.5231 229.875 17.7407L228.123 14.1449L226.371 10.5491C223.507 11.9447 221.112 14.0091 219.191 16.651L222.427 19.0028ZM228.123 14.1449L229.875 17.7407C231.557 16.9213 233.333 16.5114 235.253 16.5114V12.5114V8.51136C232.136 8.51136 229.159 9.19047 226.371 10.5491L228.123 14.1449ZM235.253 12.5114V16.5114C236.81 16.5114 238.076 16.717 239.102 17.0589L240.367 13.2642L241.632 9.46947C239.647 8.80764 237.504 8.51136 235.253 8.51136V12.5114ZM240.367 13.2642L239.109 17.0613C240.146 17.4048 240.897 17.8643 241.455 18.3866L244.188 15.4659L246.921 12.5453C245.415 11.1357 243.618 10.1274 241.625 9.4671L240.367 13.2642ZM244.188 15.4659L241.483 18.4123C242.016 18.9019 242.429 19.5146 242.715 20.3288L246.489 19.0028L250.263 17.6769C249.564 15.688 248.444 13.9428 246.893 12.5195L244.188 15.4659ZM246.489 19.0028L242.715 20.3288C242.987 21.102 243.135 22.1316 243.027 23.505L247.015 23.8182L251.003 24.1314C251.179 21.8873 250.976 19.7067 250.263 17.6769L246.489 19.0028ZM252.331 41.0625L250.307 44.513L250.315 44.5176L250.323 44.5223L252.331 41.0625ZM249.092 37.1989L245.342 38.5895L245.344 38.5964L249.092 37.1989ZM248.751 31.1477L252.695 31.8156L252.696 31.8107L248.751 31.1477ZM251.095 25.2386L247.83 22.9276L247.826 22.9337L247.822 22.9399L251.095 25.2386ZM255.598 21.304L253.765 17.7488L253.757 17.7527L255.598 21.304ZM266.038 20.6648L264.514 24.3629L264.524 24.367L266.038 20.6648ZM269.092 22.8949L265.978 25.4047L265.978 25.4047L269.092 22.8949ZM270.683 26.4318L266.76 27.2111L266.763 27.2267L266.766 27.2422L270.683 26.4318ZM270.683 31.0909L266.736 30.4438L266.733 30.4586L266.731 30.4734L270.683 31.0909ZM270.399 32.9091V36.9091H273.823L274.351 33.5266L270.399 32.9091ZM250.91 32.9091L246.959 32.2852L246.229 36.9091H250.91V32.9091ZM251.592 28.5909V24.5909H248.174L247.641 27.9671L251.592 28.5909ZM263.865 28.5909V32.5909H267.305L267.82 29.1901L263.865 28.5909ZM263.68 26.9432L260.007 28.5275L260.026 28.5714L260.046 28.6148L263.68 26.9432ZM262.672 25.821L260.603 29.2447L260.645 29.2698L260.687 29.294L262.672 25.821ZM259.206 25.821L257.465 22.2196L257.453 22.2254L257.441 22.2312L259.206 25.821ZM257.771 26.9716L254.659 24.4582L254.645 24.4765L254.63 24.495L257.771 26.9716ZM256.99 28.7045L253.068 27.9201L253.063 27.9437L253.058 27.9674L256.99 28.7045ZM256.138 33.25L252.206 32.5128L252.197 32.5612L252.189 32.6097L256.138 33.25ZM256.266 35.125L260.027 33.7632L260.027 33.7632L256.266 35.125ZM257.302 36.4176L259.446 33.0403L259.446 33.0403L257.302 36.4176ZM260.712 36.6733L261.861 40.5046L261.885 40.4974L261.909 40.4899L260.712 36.6733ZM261.99 36.0199L264.429 39.1904L264.435 39.186L264.44 39.1815L261.99 36.0199ZM262.899 34.9545V30.9545H260.525L259.387 33.0391L262.899 34.9545ZM270.058 34.9545L273.848 36.2337L275.63 30.9545H270.058V34.9545ZM267.629 38.9034L264.789 36.087L264.789 36.0871L267.629 38.9034ZM263.567 41.4886L264.983 45.2294L264.995 45.2248L263.567 41.4886ZM258.126 42.3977V38.3977C256.287 38.3977 255.1 38.0449 254.338 37.6027L252.331 41.0625L250.323 44.5223C252.63 45.8604 255.307 46.3977 258.126 46.3977V42.3977ZM252.331 41.0625L254.354 37.612C253.619 37.1809 253.146 36.6207 252.84 35.8013L249.092 37.1989L245.344 38.5964C246.289 41.1293 247.974 43.1448 250.307 44.513L252.331 41.0625ZM249.092 37.1989L252.843 35.8082C252.528 34.9599 252.378 33.6905 252.695 31.8156L248.751 31.1477L244.808 30.4798C244.33 33.302 244.406 36.0666 245.342 38.5895L249.092 37.1989ZM248.751 31.1477L252.696 31.8107C252.987 30.0803 253.564 28.6833 254.369 27.5374L251.095 25.2386L247.822 22.9399C246.259 25.1651 245.273 27.7076 244.807 30.4848L248.751 31.1477ZM251.095 25.2386L254.36 27.5497C255.189 26.3778 256.205 25.4948 257.439 24.8553L255.598 21.304L253.757 17.7527C251.374 18.9882 249.387 20.7283 247.83 22.9276L251.095 25.2386ZM255.598 21.304L257.431 24.8592C258.627 24.2428 260.024 23.8977 261.706 23.8977V19.8977V15.8977C258.88 15.8977 256.206 16.4902 253.765 17.7488L255.598 21.304ZM261.706 19.8977V23.8977C262.946 23.8977 263.853 24.0907 264.514 24.3629L266.038 20.6648L267.563 16.9666C265.742 16.2161 263.761 15.8977 261.706 15.8977V19.8977ZM266.038 20.6648L264.524 24.367C265.199 24.643 265.649 24.9963 265.978 25.4047L269.092 22.8949L272.207 20.3851C270.964 18.8427 269.378 17.7093 267.553 16.9626L266.038 20.6648ZM269.092 22.8949L265.978 25.4047C266.31 25.8169 266.595 26.3819 266.76 27.2111L270.683 26.4318L274.607 25.6525C274.222 23.7166 273.447 21.9237 272.207 20.3851L269.092 22.8949ZM270.683 26.4318L266.766 27.2422C266.929 28.0314 266.96 29.0771 266.736 30.4438L270.683 31.0909L274.63 31.738C274.975 29.6388 275.005 27.5785 274.6 25.6214L270.683 26.4318ZM270.683 31.0909L266.731 30.4734L266.447 32.2916L270.399 32.9091L274.351 33.5266L274.635 31.7084L270.683 31.0909ZM270.399 32.9091V28.9091H250.91V32.9091V36.9091H270.399V32.9091ZM250.91 32.9091L254.861 33.5329L255.543 29.2148L251.592 28.5909L247.641 27.9671L246.959 32.2852L250.91 32.9091ZM251.592 28.5909V32.5909H263.865V28.5909V24.5909H251.592V28.5909ZM263.865 28.5909L267.82 29.1901C268.006 27.9591 267.922 26.593 267.314 25.2716L263.68 26.9432L260.046 28.6148C259.966 28.4408 259.929 28.2796 259.915 28.1557C259.901 28.0371 259.912 27.9765 259.91 27.9917L263.865 28.5909ZM263.68 26.9432L267.353 25.3588C266.796 24.0664 265.86 23.0357 264.656 22.348L262.672 25.821L260.687 29.294C260.572 29.2281 260.432 29.1241 260.297 28.9742C260.162 28.8238 260.067 28.6662 260.007 28.5275L263.68 26.9432ZM262.672 25.821L264.74 22.3974C263.541 21.6728 262.242 21.4091 261.024 21.4091V25.4091V29.4091C261.063 29.4091 261.031 29.4133 260.949 29.3926C260.862 29.371 260.739 29.3268 260.603 29.2447L262.672 25.821ZM261.024 25.4091V21.4091C259.79 21.4091 258.588 21.6772 257.465 22.2196L259.206 25.821L260.947 29.4224C260.962 29.4151 260.968 29.4137 260.97 29.4132C260.973 29.4126 260.989 29.4091 261.024 29.4091V25.4091ZM259.206 25.821L257.441 22.2312C256.352 22.7668 255.416 23.5211 254.659 24.4582L257.771 26.9716L260.883 29.4849C260.922 29.4372 260.943 29.4245 260.97 29.4108L259.206 25.821ZM257.771 26.9716L254.63 24.495C253.822 25.5201 253.314 26.6888 253.068 27.9201L256.99 28.7045L260.912 29.489C260.918 29.4608 260.923 29.4421 260.927 29.4314C260.93 29.4208 260.932 29.4168 260.931 29.4181C260.931 29.4194 260.929 29.4239 260.925 29.4304C260.921 29.4369 260.916 29.4431 260.912 29.4482L257.771 26.9716ZM256.99 28.7045L253.058 27.9674L252.206 32.5128L256.138 33.25L260.069 33.9872L260.921 29.4417L256.99 28.7045ZM256.138 33.25L252.189 32.6097C251.99 33.839 252.029 35.1726 252.504 36.4868L256.266 35.125L260.027 33.7632C260.063 33.8638 260.073 33.9394 260.075 33.9722C260.077 34.0017 260.072 33.9784 260.086 33.8903L256.138 33.25ZM256.266 35.125L252.504 36.4868C253.004 37.8669 253.918 39.0073 255.159 39.7949L257.302 36.4176L259.446 33.0403C259.55 33.1065 259.677 33.2106 259.794 33.3571C259.912 33.5036 259.985 33.6487 260.027 33.7632L256.266 35.125ZM257.302 36.4176L255.159 39.7949C256.472 40.6282 257.916 40.8864 259.206 40.8864V36.8864V32.8864C259.081 32.8864 259.056 32.8734 259.104 32.8852C259.157 32.8983 259.285 32.9384 259.446 33.0403L257.302 36.4176ZM259.206 36.8864V40.8864C260.097 40.8864 260.988 40.7664 261.861 40.5046L260.712 36.6733L259.562 32.842C259.488 32.8643 259.375 32.8864 259.206 32.8864V36.8864ZM260.712 36.6733L261.909 40.4899C262.802 40.2098 263.656 39.7849 264.429 39.1904L261.99 36.0199L259.551 32.8494C259.565 32.8384 259.574 32.8339 259.573 32.8346C259.571 32.8355 259.553 32.8444 259.514 32.8567L260.712 36.6733ZM261.99 36.0199L264.44 39.1815C265.251 38.5535 265.917 37.7756 266.411 36.87L262.899 34.9545L259.387 33.0391C259.404 33.0089 259.428 32.9731 259.459 32.9369C259.489 32.9008 259.519 32.8746 259.54 32.8582L261.99 36.0199ZM262.899 34.9545V38.9545H270.058V34.9545V30.9545H262.899V34.9545ZM270.058 34.9545L266.268 33.6754C265.949 34.6222 265.46 35.4101 264.789 36.087L267.629 38.9034L270.47 41.7198C272.014 40.1618 273.145 38.3172 273.848 36.2337L270.058 34.9545ZM267.629 38.9034L264.789 36.0871C264.13 36.7512 263.273 37.3184 262.138 37.7524L263.567 41.4886L264.995 45.2248C267.08 44.4278 268.931 43.2716 270.47 41.7197L267.629 38.9034ZM263.567 41.4886L262.15 37.7479C261.077 38.1542 259.756 38.3977 258.126 38.3977V42.3977V46.3977C260.55 46.3977 262.855 46.0352 264.983 45.2294L263.567 41.4886ZM282.008 29.7273L278.065 29.0529L278.064 29.0613L278.062 29.0697L282.008 29.7273ZM279.962 42V46H283.351L283.908 42.6576L279.962 42ZM272.121 42L268.176 41.3424L267.4 46H272.121V42ZM275.758 20.1818V16.1818H272.369L271.812 19.5242L275.758 20.1818ZM283.201 20.1818L287.148 20.8306L287.912 16.1818H283.201V20.1818ZM282.519 24.3295L278.572 23.6807L277.808 28.3295H282.519V24.3295ZM282.746 24.3295V28.3295H285.226L286.329 26.1086L282.746 24.3295ZM285.772 21.0767L287.794 24.5282L287.801 24.5238L285.772 21.0767ZM294.039 20.9489L296.3 17.6491L296.3 17.6491L294.039 20.9489ZM296.212 23.8466L299.992 22.5381L299.992 22.5381L296.212 23.8466ZM296.44 28.0795L292.498 27.3991L292.496 27.4092L292.494 27.4193L296.44 28.0795ZM294.11 42V46H297.496L298.055 42.6602L294.11 42ZM286.269 42L282.324 41.3424L281.547 46H286.269V42ZM288.315 29.7273L292.26 30.3849L292.26 30.3849L288.315 29.7273ZM287.917 27.1847L284.652 29.4953L284.664 29.5119L284.675 29.5284L287.917 27.1847ZM284.011 26.6875L285.876 30.2258L285.888 30.2196L285.899 30.2134L284.011 26.6875ZM282.704 27.8807L279.385 25.648L279.38 25.6549L279.376 25.6619L282.704 27.8807ZM282.008 29.7273L278.062 29.0697L276.017 41.3424L279.962 42L283.908 42.6576L285.953 30.3849L282.008 29.7273ZM279.962 42V38H272.121V42V46H279.962V42ZM272.121 42L276.067 42.6576L279.703 20.8394L275.758 20.1818L271.812 19.5242L268.176 41.3424L272.121 42ZM275.758 20.1818V24.1818H283.201V20.1818V16.1818H275.758V20.1818ZM283.201 20.1818L279.254 19.533L278.572 23.6807L282.519 24.3295L286.466 24.9784L287.148 20.8306L283.201 20.1818ZM282.519 24.3295V28.3295H282.746V24.3295V20.3295H282.519V24.3295ZM282.746 24.3295L286.329 26.1086C286.678 25.4056 287.148 24.9063 287.794 24.5282L285.772 21.0767L283.75 17.6252C281.744 18.8001 280.197 20.4694 279.164 22.5504L282.746 24.3295ZM285.772 21.0767L287.801 24.5238C288.497 24.1143 289.264 23.8977 290.19 23.8977V19.8977V15.8977C287.895 15.8977 285.718 16.4671 283.743 17.6296L285.772 21.0767ZM290.19 19.8977V23.8977C291.125 23.8977 291.568 24.1048 291.778 24.2486L294.039 20.9489L296.3 17.6491C294.464 16.3914 292.341 15.8977 290.19 15.8977V19.8977ZM294.039 20.9489L291.778 24.2486C292.057 24.4397 292.271 24.6894 292.432 25.155L296.212 23.8466L299.992 22.5381C299.301 20.5417 298.066 18.8595 296.3 17.6491L294.039 20.9489ZM296.212 23.8466L292.432 25.155C292.59 25.6119 292.685 26.3169 292.498 27.3991L296.44 28.0795L300.381 28.76C300.744 26.6604 300.686 24.5434 299.992 22.5381L296.212 23.8466ZM296.44 28.0795L292.494 27.4193L290.165 41.3398L294.11 42L298.055 42.6602L300.385 28.7398L296.44 28.0795ZM294.11 42V38H286.269V42V46H294.11V42ZM286.269 42L290.215 42.6576L292.26 30.3849L288.315 29.7273L284.369 29.0697L282.324 41.3424L286.269 42ZM288.315 29.7273L292.26 30.3849C292.538 28.7184 292.461 26.6431 291.158 24.8409L287.917 27.1847L284.675 29.5284C284.483 29.2623 284.417 29.0182 284.398 28.9001C284.383 28.8029 284.407 28.8415 284.369 29.0697L288.315 29.7273ZM287.917 27.1847L291.182 24.874C289.76 22.8651 287.588 22.2614 285.758 22.2614V26.2614V30.2614C285.865 30.2614 285.734 30.2796 285.478 30.17C285.185 30.0449 284.878 29.8145 284.652 29.4953L287.917 27.1847ZM285.758 26.2614V22.2614C284.501 22.2614 283.265 22.5492 282.122 23.1616L284.011 26.6875L285.899 30.2134C285.868 30.23 285.831 30.2448 285.793 30.254C285.756 30.2629 285.741 30.2614 285.758 30.2614V26.2614ZM284.011 26.6875L282.145 23.1492C281.001 23.7526 280.079 24.6159 279.385 25.648L282.704 27.8807L286.023 30.1134C286.031 30.1004 286.022 30.1165 285.99 30.1457C285.957 30.1758 285.917 30.2042 285.876 30.2258L284.011 26.6875ZM282.704 27.8807L279.376 25.6619C278.671 26.7186 278.265 27.8833 278.065 29.0529L282.008 29.7273L285.95 30.4017C285.997 30.1318 286.055 30.0655 286.032 30.0995L282.704 27.8807ZM314.572 20.1818L318.515 20.8522L319.309 16.1818H314.572V20.1818ZM313.606 25.8636V29.8636H316.983L317.549 26.534L313.606 25.8636ZM299.231 25.8636L295.287 25.1933L294.493 29.8636H299.231V25.8636ZM300.197 20.1818V16.1818H296.819L296.253 19.5114L300.197 20.1818ZM303.833 14.9545V10.9545H300.441L299.887 14.3013L303.833 14.9545ZM311.674 14.9545L315.62 15.6094L316.392 10.9545H311.674V14.9545ZM308.35 34.983L304.404 34.3281L304.401 34.3468L304.398 34.3654L308.35 34.983ZM308.378 35.75L304.567 36.9628L304.575 36.9889L304.584 37.0149L308.378 35.75ZM308.776 36.2045L306.92 39.7479L307.019 39.7997L307.121 39.846L308.776 36.2045ZM310.438 36.2614L311.114 40.2039L311.168 40.1945L311.223 40.1837L310.438 36.2614ZM311.191 36.1193L315.188 35.9545L315.001 31.4291L310.533 32.1737L311.191 36.1193ZM311.418 41.6307L312.517 45.4768L315.545 44.6118L315.415 41.4659L311.418 41.6307ZM309.813 42.0142L308.986 38.1006L308.954 38.1074L308.922 38.1148L309.813 42.0142ZM307.498 42.3125L307.683 46.3082L307.698 46.3075L307.713 46.3067L307.498 42.3125ZM303.009 41.7301L301.482 45.4269L301.492 45.4313L303.009 41.7301ZM300.623 39.5142L296.948 41.094L296.957 41.1148L296.966 41.1356L300.623 39.5142ZM300.396 35.7216L304.327 36.4587L304.335 36.4169L304.342 36.3748L300.396 35.7216ZM314.572 20.1818L310.628 19.5114L309.662 25.1933L313.606 25.8636L317.549 26.534L318.515 20.8522L314.572 20.1818ZM313.606 25.8636V21.8636H299.231V25.8636V29.8636H313.606V25.8636ZM299.231 25.8636L303.174 26.534L304.14 20.8522L300.197 20.1818L296.253 19.5114L295.287 25.1933L299.231 25.8636ZM300.197 20.1818V24.1818H314.572V20.1818V16.1818H300.197V20.1818ZM303.833 14.9545V18.9545H311.674V14.9545V10.9545H303.833V14.9545ZM311.674 14.9545L307.728 14.2997L304.404 34.3281L308.35 34.983L312.296 35.6378L315.62 15.6094L311.674 14.9545ZM308.35 34.983L304.398 34.3654C304.291 35.0495 304.252 35.9745 304.567 36.9628L308.378 35.75L312.19 34.5372C312.372 35.1088 312.314 35.5225 312.302 35.6005L308.35 34.983ZM308.378 35.75L304.584 37.0149C305.002 38.2695 305.876 39.2011 306.92 39.7479L308.776 36.2045L310.632 32.6612C310.92 32.8121 311.244 33.0424 311.538 33.3788C311.836 33.7192 312.045 34.1018 312.173 34.4851L308.378 35.75ZM308.776 36.2045L307.121 39.846C308.04 40.2637 308.943 40.3466 309.6 40.3466V36.3466V32.3466C309.609 32.3466 309.688 32.3468 309.818 32.3692C309.947 32.3915 310.166 32.4423 310.431 32.5631L308.776 36.2045ZM309.6 36.3466V40.3466C310.133 40.3466 310.655 40.2826 311.114 40.2039L310.438 36.2614L309.762 32.3189C309.67 32.3348 309.609 32.3424 309.575 32.3458C309.54 32.3494 309.552 32.3466 309.6 32.3466V36.3466ZM310.438 36.2614L311.223 40.1837C311.544 40.1195 311.744 40.0824 311.849 40.0649L311.191 36.1193L310.533 32.1737C310.298 32.2131 309.996 32.2707 309.654 32.339L310.438 36.2614ZM311.191 36.1193L307.194 36.2841L307.422 41.7955L311.418 41.6307L315.415 41.4659L315.188 35.9545L311.191 36.1193ZM311.418 41.6307L310.319 37.7846C310.051 37.8614 309.618 37.9671 308.986 38.1006L309.813 42.0142L310.64 45.9278C311.353 45.7773 311.99 45.6273 312.517 45.4768L311.418 41.6307ZM309.813 42.0142L308.922 38.1148C308.535 38.2031 307.999 38.2798 307.283 38.3183L307.498 42.3125L307.713 46.3067C308.758 46.2505 309.765 46.1284 310.704 45.9136L309.813 42.0142ZM307.498 42.3125L307.312 38.3168C305.805 38.3867 304.949 38.2022 304.526 38.0289L303.009 41.7301L301.492 45.4313C303.38 46.205 305.517 46.4087 307.683 46.3082L307.498 42.3125ZM303.009 41.7301L304.537 38.0333C304.342 37.953 304.278 37.8922 304.275 37.8898C304.272 37.8874 304.276 37.8904 304.281 37.8974C304.286 37.9043 304.285 37.9047 304.279 37.8929L300.623 39.5142L296.966 41.1356C297.883 43.2026 299.518 44.6157 301.482 45.4269L303.009 41.7301ZM300.623 39.5142L304.298 37.9344C304.278 37.8879 304.133 37.4926 304.327 36.4587L300.396 35.7216L296.464 34.9844C296.09 36.9808 296.097 39.114 296.948 41.094L300.623 39.5142ZM300.396 35.7216L304.342 36.3748L307.779 15.6078L303.833 14.9545L299.887 14.3013L296.449 35.0684L300.396 35.7216ZM318.503 41.0625L316.479 44.513L316.487 44.5176L316.495 44.5223L318.503 41.0625ZM315.264 37.1989L311.514 38.5895L311.516 38.5964L315.264 37.1989ZM314.923 31.1477L318.867 31.8156L318.868 31.8107L314.923 31.1477ZM317.267 25.2386L314.002 22.9276L313.998 22.9337L313.994 22.9399L317.267 25.2386ZM321.77 21.304L319.937 17.7488L319.929 17.7527L321.77 21.304ZM332.21 20.6648L330.686 24.3629L330.696 24.367L332.21 20.6648ZM335.264 22.8949L332.15 25.4047L332.15 25.4047L335.264 22.8949ZM336.855 26.4318L332.932 27.2111L332.935 27.2267L332.938 27.2422L336.855 26.4318ZM336.855 31.0909L332.908 30.4438L332.905 30.4586L332.903 30.4734L336.855 31.0909ZM336.571 32.9091V36.9091H339.994L340.523 33.5266L336.571 32.9091ZM317.082 32.9091L313.131 32.2852L312.401 36.9091H317.082V32.9091ZM317.764 28.5909V24.5909H314.346L313.813 27.9671L317.764 28.5909ZM330.037 28.5909V32.5909H333.476L333.992 29.1901L330.037 28.5909ZM329.852 26.9432L326.179 28.5275L326.198 28.5714L326.218 28.6148L329.852 26.9432ZM328.844 25.821L326.775 29.2447L326.817 29.2698L326.859 29.294L328.844 25.821ZM325.378 25.821L323.637 22.2196L323.625 22.2254L323.613 22.2312L325.378 25.821ZM323.943 26.9716L320.831 24.4582L320.817 24.4765L320.802 24.495L323.943 26.9716ZM323.162 28.7045L319.24 27.9201L319.235 27.9437L319.23 27.9674L323.162 28.7045ZM322.31 33.25L318.378 32.5128L318.369 32.5612L318.361 32.6097L322.31 33.25ZM322.437 35.125L326.198 33.7632L326.198 33.7632L322.437 35.125ZM323.474 36.4176L325.618 33.0403L325.618 33.0403L323.474 36.4176ZM326.883 36.6733L328.033 40.5046L328.057 40.4974L328.081 40.4899L326.883 36.6733ZM328.162 36.0199L330.601 39.1904L330.606 39.186L330.612 39.1815L328.162 36.0199ZM329.071 34.9545V30.9545H326.696L325.559 33.0391L329.071 34.9545ZM336.23 34.9545L340.02 36.2337L341.802 30.9545H336.23V34.9545ZM333.801 38.9034L330.961 36.087L330.961 36.0871L333.801 38.9034ZM329.739 41.4886L331.155 45.2294L331.167 45.2248L329.739 41.4886ZM324.298 42.3977V38.3977C322.459 38.3977 321.272 38.0449 320.51 37.6027L318.503 41.0625L316.495 44.5223C318.801 45.8604 321.478 46.3977 324.298 46.3977V42.3977ZM318.503 41.0625L320.526 37.612C319.791 37.1809 319.318 36.6207 319.012 35.8013L315.264 37.1989L311.516 38.5964C312.461 41.1293 314.146 43.1448 316.479 44.513L318.503 41.0625ZM315.264 37.1989L319.015 35.8082C318.7 34.9599 318.55 33.6905 318.867 31.8156L314.923 31.1477L310.979 30.4798C310.501 33.302 310.578 36.0666 311.514 38.5895L315.264 37.1989ZM314.923 31.1477L318.868 31.8107C319.159 30.0803 319.736 28.6833 320.54 27.5374L317.267 25.2386L313.994 22.9399C312.431 25.1651 311.445 27.7076 310.979 30.4848L314.923 31.1477ZM317.267 25.2386L320.532 27.5497C321.361 26.3778 322.377 25.4948 323.611 24.8553L321.77 21.304L319.929 17.7527C317.545 18.9882 315.559 20.7283 314.002 22.9276L317.267 25.2386ZM321.77 21.304L323.603 24.8592C324.798 24.2428 326.196 23.8977 327.878 23.8977V19.8977V15.8977C325.052 15.8977 322.378 16.4902 319.937 17.7488L321.77 21.304ZM327.878 19.8977V23.8977C329.118 23.8977 330.025 24.0907 330.686 24.3629L332.21 20.6648L333.735 16.9666C331.914 16.2161 329.933 15.8977 327.878 15.8977V19.8977ZM332.21 20.6648L330.696 24.367C331.37 24.643 331.82 24.9963 332.15 25.4047L335.264 22.8949L338.379 20.3851C337.136 18.8427 335.55 17.7093 333.725 16.9626L332.21 20.6648ZM335.264 22.8949L332.15 25.4047C332.482 25.8169 332.767 26.3819 332.932 27.2111L336.855 26.4318L340.778 25.6525C340.394 23.7166 339.619 21.9237 338.379 20.3851L335.264 22.8949ZM336.855 26.4318L332.938 27.2422C333.101 28.0314 333.132 29.0771 332.908 30.4438L336.855 31.0909L340.802 31.738C341.146 29.6388 341.177 27.5785 340.772 25.6214L336.855 26.4318ZM336.855 31.0909L332.903 30.4734L332.619 32.2916L336.571 32.9091L340.523 33.5266L340.807 31.7084L336.855 31.0909ZM336.571 32.9091V28.9091H317.082V32.9091V36.9091H336.571V32.9091ZM317.082 32.9091L321.033 33.5329L321.715 29.2148L317.764 28.5909L313.813 27.9671L313.131 32.2852L317.082 32.9091ZM317.764 28.5909V32.5909H330.037V28.5909V24.5909H317.764V28.5909ZM330.037 28.5909L333.992 29.1901C334.178 27.9591 334.094 26.593 333.486 25.2716L329.852 26.9432L326.218 28.6148C326.138 28.4408 326.1 28.2796 326.087 28.1557C326.073 28.0371 326.084 27.9765 326.082 27.9917L330.037 28.5909ZM329.852 26.9432L333.525 25.3588C332.968 24.0664 332.032 23.0357 330.828 22.348L328.844 25.821L326.859 29.294C326.744 29.2281 326.603 29.1241 326.469 28.9742C326.334 28.8238 326.239 28.6662 326.179 28.5275L329.852 26.9432ZM328.844 25.821L330.912 22.3974C329.713 21.6728 328.414 21.4091 327.196 21.4091V25.4091V29.4091C327.235 29.4091 327.203 29.4133 327.121 29.3926C327.034 29.371 326.911 29.3268 326.775 29.2447L328.844 25.821ZM327.196 25.4091V21.4091C325.962 21.4091 324.759 21.6772 323.637 22.2196L325.378 25.821L327.118 29.4224C327.133 29.4151 327.14 29.4137 327.142 29.4132C327.145 29.4126 327.161 29.4091 327.196 29.4091V25.4091ZM325.378 25.821L323.613 22.2312C322.524 22.7668 321.588 23.5211 320.831 24.4582L323.943 26.9716L327.055 29.4849C327.093 29.4372 327.115 29.4245 327.142 29.4108L325.378 25.821ZM323.943 26.9716L320.802 24.495C319.994 25.5201 319.486 26.6888 319.24 27.9201L323.162 28.7045L327.084 29.489C327.09 29.4608 327.095 29.4421 327.098 29.4314C327.102 29.4208 327.104 29.4168 327.103 29.4181C327.103 29.4194 327.1 29.4239 327.096 29.4304C327.093 29.4369 327.088 29.4431 327.084 29.4482L323.943 26.9716ZM323.162 28.7045L319.23 27.9674L318.378 32.5128L322.31 33.25L326.241 33.9872L327.093 29.4417L323.162 28.7045ZM322.31 33.25L318.361 32.6097C318.162 33.839 318.201 35.1726 318.676 36.4868L322.437 35.125L326.198 33.7632C326.235 33.8638 326.245 33.9394 326.247 33.9722C326.249 34.0017 326.244 33.9784 326.258 33.8903L322.31 33.25ZM322.437 35.125L318.676 36.4868C319.176 37.8669 320.09 39.0073 321.331 39.7949L323.474 36.4176L325.618 33.0403C325.722 33.1065 325.848 33.2106 325.966 33.3571C326.083 33.5036 326.157 33.6487 326.198 33.7632L322.437 35.125ZM323.474 36.4176L321.331 39.7949C322.644 40.6282 324.088 40.8864 325.378 40.8864V36.8864V32.8864C325.253 32.8864 325.228 32.8734 325.276 32.8852C325.329 32.8983 325.457 32.9384 325.618 33.0403L323.474 36.4176ZM325.378 36.8864V40.8864C326.269 40.8864 327.16 40.7664 328.033 40.5046L326.883 36.6733L325.734 32.842C325.66 32.8643 325.547 32.8864 325.378 32.8864V36.8864ZM326.883 36.6733L328.081 40.4899C328.974 40.2098 329.828 39.7849 330.601 39.1904L328.162 36.0199L325.723 32.8494C325.737 32.8384 325.746 32.8339 325.745 32.8346C325.743 32.8355 325.725 32.8444 325.686 32.8567L326.883 36.6733ZM328.162 36.0199L330.612 39.1815C331.422 38.5535 332.089 37.7756 332.583 36.87L329.071 34.9545L325.559 33.0391C325.576 33.0089 325.6 32.9731 325.63 32.9369C325.661 32.9008 325.69 32.8746 325.712 32.8582L328.162 36.0199ZM329.071 34.9545V38.9545H336.23V34.9545V30.9545H329.071V34.9545ZM336.23 34.9545L332.44 33.6754C332.121 34.6222 331.632 35.4101 330.961 36.087L333.801 38.9034L336.642 41.7198C338.186 40.1618 339.317 38.3172 340.02 36.2337L336.23 34.9545ZM333.801 38.9034L330.961 36.0871C330.302 36.7512 329.445 37.3184 328.31 37.7524L329.739 41.4886L331.167 45.2248C333.252 44.4278 335.103 43.2716 336.642 41.7197L333.801 38.9034ZM329.739 41.4886L328.322 37.7479C327.249 38.1542 325.928 38.3977 324.298 38.3977V42.3977V46.3977C326.722 46.3977 329.027 46.0352 331.155 45.2294L329.739 41.4886ZM338.236 42L334.291 41.3424L333.515 46H338.236V42ZM341.873 20.1818V16.1818H338.484L337.927 19.5242L341.873 20.1818ZM349.486 20.1818L353.433 20.8306L354.198 16.1818H349.486V20.1818ZM348.805 24.3295L344.858 23.6807L344.093 28.3295H348.805V24.3295ZM349.032 24.3295V28.3295H351.676L352.712 25.897L349.032 24.3295ZM351.489 20.9631L349.15 17.7187L349.15 17.7187L351.489 20.9631ZM355.694 19.983L354.978 23.9184L355.045 23.9305L355.112 23.9404L355.694 19.983ZM356.646 20.1818L360.589 20.8503L361.195 17.2765L357.698 16.3228L356.646 20.1818ZM355.509 26.8864L354.073 30.6197L358.636 32.3747L359.453 27.5548L355.509 26.8864ZM354.131 26.5881L353.652 30.5593L353.686 30.5633L353.72 30.5668L354.131 26.5881ZM350.538 27.0142L352.388 30.5605L352.397 30.5556L352.407 30.5506L350.538 27.0142ZM348.861 28.4631L345.65 26.0787L345.644 26.0869L348.861 28.4631ZM347.952 30.6364L344.017 29.9208L344.011 29.953L344.006 29.9852L347.952 30.6364ZM346.077 42V46H349.471L350.024 42.6512L346.077 42ZM338.236 42L342.182 42.6576L345.818 20.8394L341.873 20.1818L337.927 19.5242L334.291 41.3424L338.236 42ZM341.873 20.1818V24.1818H349.486V20.1818V16.1818H341.873V20.1818ZM349.486 20.1818L345.539 19.533L344.858 23.6807L348.805 24.3295L352.752 24.9784L353.433 20.8306L349.486 20.1818ZM348.805 24.3295V28.3295H349.032V24.3295V20.3295H348.805V24.3295ZM349.032 24.3295L352.712 25.897C353.182 24.7931 353.616 24.3607 353.829 24.2074L351.489 20.9631L349.15 17.7187C347.392 18.9859 346.188 20.7978 345.352 22.7621L349.032 24.3295ZM351.489 20.9631L353.829 24.2074C354.163 23.9662 354.426 23.8977 354.714 23.8977V19.8977V15.8977C352.672 15.8977 350.785 16.5395 349.15 17.7187L351.489 20.9631ZM354.714 19.8977V23.8977C354.832 23.8977 354.918 23.9075 354.978 23.9184L355.694 19.983L356.409 16.0475C355.844 15.9447 355.277 15.8977 354.714 15.8977V19.8977ZM355.694 19.983L355.112 23.9404C355.276 23.9645 355.436 23.998 355.593 24.0409L356.646 20.1818L357.698 16.3228C357.23 16.1951 356.756 16.0961 356.276 16.0255L355.694 19.983ZM356.646 20.1818L352.702 19.5134L351.565 26.2179L355.509 26.8864L359.453 27.5548L360.589 20.8503L356.646 20.1818ZM355.509 26.8864L356.945 23.153C356.146 22.8455 355.316 22.6893 354.543 22.6093L354.131 26.5881L353.72 30.5668C353.873 30.5827 353.977 30.6009 354.041 30.6147C354.106 30.6287 354.112 30.6346 354.073 30.6197L355.509 26.8864ZM354.131 26.5881L354.611 22.6169C353.946 22.5367 353.294 22.4886 352.668 22.4886V26.4886V30.4886C352.895 30.4886 353.218 30.5068 353.652 30.5593L354.131 26.5881ZM352.668 26.4886V22.4886C351.266 22.4886 349.913 22.8197 348.668 23.4778L350.538 27.0142L352.407 30.5506C352.487 30.508 352.555 30.4886 352.668 30.4886V26.4886ZM350.538 27.0142L348.687 23.4679C347.468 24.104 346.453 24.9964 345.65 26.0787L348.861 28.4631L352.073 30.8475C352.198 30.6797 352.3 30.6063 352.388 30.5605L350.538 27.0142ZM348.861 28.4631L345.644 26.0869C344.789 27.2445 344.266 28.5515 344.017 29.9208L347.952 30.6364L351.888 31.3519C351.942 31.0546 352.025 30.9127 352.079 30.8392L348.861 28.4631ZM347.952 30.6364L344.006 29.9852L342.131 41.3488L346.077 42L350.024 42.6512L351.899 31.2876L347.952 30.6364ZM346.077 42V38H338.236V42V46H346.077V42Z" fill="#3D5AFE" mask="url(#path-2-outside-1_2046_1897)"/>
<defs>
<filter id="filter0_d_2046_1897" x="0" y="2.6842" width="100.332" height="59.3158" filterUnits="userSpaceOnUse" color-interpolation-filters="sRGB">
<feFlood flood-opacity="0" result="BackgroundImageFix"/>
<feColorMatrix in="SourceAlpha" type="matrix" values="0 0 0 0 0 0 0 0 0 0 0 0 0 0 0 0 0 0 127 0" result="hardAlpha"/>
<feOffset dy="4"/>
<feGaussianBlur stdDeviation="2"/>
<feComposite in2="hardAlpha" operator="out"/>
<feColorMatrix type="matrix" values="0 0 0 0 0 0 0 0 0 0.901961 0 0 0 0 0.462745 0 0 0 1 0"/>
<feBlend mode="normal" in2="BackgroundImageFix" result="effect1_dropShadow_2046_1897"/>
<feBlend mode="normal" in="SourceGraphic" in2="effect1_dropShadow_2046_1897" result="shape"/>
</filter>
</defs>
</svg>
