<svg width="197" height="38" viewBox="0 0 197 38" fill="none" xmlns="http://www.w3.org/2000/svg">
<g filter="url(#filter0_d_75_500)">
<path d="M48.4524 8.30078C49.6536 9.36849 50.5691 10.5794 51.199 11.9336C51.8289 13.2878 52.1511 14.7266 52.1658 16.25C52.1658 16.7057 52.1511 17.2526 52.1218 17.8906C52.0925 18.5286 52.0339 19.2188 51.946 19.9609C51.8582 20.7031 51.719 21.4648 51.5286 22.2461C51.3381 23.0273 51.0964 23.8021 50.8035 24.5703C50.364 25.6901 49.8513 26.6016 49.2654 27.3047C48.6794 28.0078 48.0715 28.5612 47.4417 28.9648C46.8118 29.3685 46.1746 29.6419 45.53 29.7852C44.8855 29.9284 44.2849 30 43.7283 30C43.2449 30 42.8054 29.9284 42.4099 29.7852C42.0144 29.6419 41.6335 29.4466 41.2673 29.1992C40.9011 28.9518 40.5642 28.6849 40.2566 28.3984C39.949 28.112 39.634 27.7995 39.3118 27.4609C39.0042 27.1484 38.7039 26.849 38.4109 26.5625C38.1179 26.276 37.803 26.0221 37.4661 25.8008C37.1292 25.5794 36.7922 25.3906 36.4553 25.2344C36.1184 25.0781 35.7229 25 35.2688 25H24.0627C23.6379 25.013 23.2498 25.0911 22.8982 25.2344C22.5466 25.3776 22.2024 25.5599 21.8655 25.7812C21.5286 26.0026 21.2209 26.263 20.9426 26.5625C20.6643 26.862 20.3567 27.1615 20.0198 27.4609C19.7122 27.7734 19.4045 28.0794 19.0969 28.3789C18.7893 28.6784 18.4524 28.9518 18.0862 29.1992C17.72 29.4466 17.3391 29.6354 16.9436 29.7656C16.5481 29.8958 16.1013 29.974 15.6033 30C15.0466 30 14.446 29.9284 13.8015 29.7852C13.157 29.6419 12.5198 29.375 11.8899 28.9844C11.26 28.5938 10.6521 28.0404 10.0662 27.3242C9.48022 26.6081 8.96753 25.6901 8.52808 24.5703C8.23511 23.8151 8.00073 23.0469 7.82495 22.2656C7.64917 21.4844 7.51001 20.7161 7.40747 19.9609C7.30493 19.2057 7.23901 18.5156 7.20972 17.8906C7.18042 17.2656 7.16577 16.7188 7.16577 16.25C7.16577 14.7396 7.48071 13.3073 8.1106 11.9531C8.74048 10.599 9.66333 9.38151 10.8792 8.30078C12.0657 7.23307 13.428 6.41927 14.9661 5.85938C16.5042 5.29948 18.1228 5.01302 19.822 5H39.5095C41.2087 5 42.8201 5.27995 44.3435 5.83984C45.8669 6.39974 47.2366 7.22005 48.4524 8.30078ZM48.1448 23.75C48.4231 23.0599 48.6428 22.3438 48.804 21.6016C48.9651 20.8594 49.0823 20.1497 49.1555 19.4727C49.2288 18.7956 49.28 18.1706 49.3093 17.5977C49.3386 17.0247 49.3533 16.5755 49.3533 16.25C49.3533 15.0391 49.0969 13.9062 48.5842 12.8516C48.0715 11.7969 47.3684 10.8724 46.4749 10.0781C45.5813 9.28385 44.5413 8.65885 43.3547 8.20312C42.1682 7.7474 40.8865 7.51302 39.5095 7.5H19.822C18.4597 7.5 17.1853 7.72786 15.9988 8.18359C14.8123 8.63932 13.7722 9.26432 12.8787 10.0586C11.9851 10.8529 11.282 11.7773 10.7693 12.832C10.2566 13.8867 9.99292 15.026 9.97827 16.25C9.97827 16.5885 9.9856 17.0378 10.0002 17.5977C10.0149 18.1576 10.0662 18.776 10.1541 19.4531C10.2419 20.1302 10.3665 20.8464 10.5276 21.6016C10.6887 22.3568 10.9084 23.0729 11.1868 23.75C11.553 24.6875 11.9558 25.4102 12.3953 25.918C12.8347 26.4258 13.2595 26.7969 13.6697 27.0312C14.0798 27.2656 14.4607 27.4023 14.8123 27.4414C15.1638 27.4805 15.4275 27.5 15.6033 27.5C15.9255 27.5 16.2771 27.3307 16.658 26.9922C17.0388 26.6536 17.449 26.263 17.8884 25.8203C18.24 25.4557 18.6135 25.0846 19.009 24.707C19.4045 24.3294 19.8513 23.9779 20.3494 23.6523C20.8474 23.3268 21.3967 23.0599 21.9973 22.8516C22.5979 22.6432 23.2644 22.526 23.9968 22.5H35.3347C36.0671 22.526 36.7336 22.6432 37.3342 22.8516C37.9348 23.0599 38.4768 23.3203 38.9602 23.6328C39.4436 23.9453 39.8904 24.2969 40.3005 24.6875C40.7107 25.0781 41.0916 25.4557 41.4431 25.8203C41.8679 26.25 42.2708 26.6341 42.6516 26.9727C43.0325 27.3112 43.3914 27.487 43.7283 27.5C43.9041 27.5 44.1604 27.4805 44.4973 27.4414C44.8342 27.4023 45.2151 27.2656 45.6399 27.0312C46.0647 26.7969 46.4968 26.4258 46.9363 25.918C47.3757 25.4102 47.7786 24.6875 48.1448 23.75ZM18.4158 15H21.2283V17.5H18.4158V20H15.6033V17.5H12.7908V15H15.6033V12.5H18.4158V15ZM43.7283 17.5C44.1238 17.5 44.49 17.5651 44.8269 17.6953C45.1638 17.8255 45.4568 18.0013 45.7058 18.2227C45.9548 18.444 46.1599 18.7109 46.321 19.0234C46.4822 19.3359 46.5554 19.6615 46.5408 20C46.5408 20.3516 46.4675 20.6771 46.321 20.9766C46.1746 21.276 45.9768 21.5365 45.7278 21.7578C45.4788 21.9792 45.1785 22.1615 44.8269 22.3047C44.4753 22.4479 44.1091 22.513 43.7283 22.5C43.3328 22.5 42.9666 22.4349 42.6296 22.3047C42.2927 22.1745 41.9998 21.9987 41.7507 21.7773C41.5017 21.556 41.2966 21.2891 41.1355 20.9766C40.9744 20.6641 40.9011 20.3385 40.9158 20C40.9158 19.6484 40.989 19.3229 41.1355 19.0234C41.282 18.724 41.4797 18.4635 41.7288 18.2422C41.9778 18.0208 42.2781 17.8385 42.6296 17.6953C42.9812 17.5521 43.3474 17.487 43.7283 17.5ZM38.1033 12.5C38.4988 12.5 38.865 12.5651 39.2019 12.6953C39.5388 12.8255 39.8318 13.0013 40.0808 13.2227C40.3298 13.444 40.5349 13.7109 40.696 14.0234C40.8572 14.3359 40.9304 14.6615 40.9158 15C40.9158 15.3516 40.8425 15.6771 40.696 15.9766C40.5496 16.276 40.3518 16.5365 40.1028 16.7578C39.8538 16.9792 39.5535 17.1615 39.2019 17.3047C38.8503 17.4479 38.4841 17.513 38.1033 17.5C37.7078 17.5 37.3416 17.4349 37.0046 17.3047C36.6677 17.1745 36.3748 16.9987 36.1257 16.7773C35.8767 16.556 35.6716 16.2891 35.5105 15.9766C35.3494 15.6641 35.2761 15.3385 35.2908 15C35.2908 14.6484 35.364 14.3229 35.5105 14.0234C35.657 13.724 35.8547 13.4635 36.1038 13.2422C36.3528 13.0208 36.6531 12.8385 37.0046 12.6953C37.3562 12.5521 37.7224 12.487 38.1033 12.5Z" fill="#EDEDED"/>
</g>
<mask id="path-2-outside-1_75_500" maskUnits="userSpaceOnUse" x="53.1658" y="8" width="132" height="20" fill="black">
<rect fill="white" x="53.1658" y="8" width="132" height="20"/>
<path d="M65.2595 15.2557C65.2406 15.0047 65.1885 14.7846 65.1033 14.5952C65.018 14.401 64.8973 14.2377 64.7411 14.1051C64.5848 13.9678 64.3907 13.866 64.1587 13.7997C63.9314 13.7287 63.6639 13.6932 63.3561 13.6932C62.6932 13.6932 62.0895 13.8518 61.545 14.169C61.0005 14.4863 60.5436 14.9432 60.1743 15.5398C59.8097 16.1364 59.5588 16.8561 59.4215 17.6989C59.2794 18.5511 59.2676 19.2803 59.3859 19.8864C59.5043 20.4924 59.76 20.9564 60.153 21.2784C60.5507 21.6004 61.0881 21.7614 61.7652 21.7614C62.3713 21.7614 62.8945 21.6738 63.3348 21.4986C63.7751 21.3234 64.1279 21.0748 64.393 20.7528C64.6582 20.4309 64.8239 20.0521 64.8902 19.6165L65.572 19.6875H62.2482L62.7027 16.875H69.1516L68.8249 18.892C68.6071 20.2178 68.1383 21.3518 67.4186 22.294C66.7037 23.2315 65.8135 23.9512 64.7482 24.4531C63.6828 24.9503 62.5133 25.1989 61.2396 25.1989C59.8287 25.1989 58.6378 24.8982 57.6672 24.2969C56.6965 23.6955 56.0029 22.8385 55.5862 21.7259C55.1743 20.6132 55.0938 19.2898 55.3447 17.7557C55.5436 16.553 55.9035 15.4877 56.4243 14.5597C56.9499 13.6316 57.5914 12.848 58.349 12.2088C59.1066 11.5649 59.9423 11.0795 60.8561 10.7528C61.7699 10.4214 62.7169 10.2557 63.697 10.2557C64.554 10.2557 65.3329 10.3788 66.0337 10.625C66.7344 10.8665 67.3334 11.2121 67.8305 11.6619C68.3277 12.107 68.6994 12.6349 68.9456 13.2457C69.1965 13.8565 69.2983 14.5265 69.251 15.2557H65.2595ZM72.7116 25.1705C72.0203 25.1705 71.4261 25.0568 70.9289 24.8295C70.4365 24.5975 70.0766 24.2472 69.8494 23.7784C69.6268 23.3049 69.5771 22.7083 69.7002 21.9886C69.7996 21.392 69.9867 20.883 70.2613 20.4616C70.5359 20.0402 70.8768 19.6946 71.284 19.4247C71.6912 19.1548 72.1481 18.9489 72.6548 18.8068C73.1661 18.66 73.7059 18.5653 74.2741 18.5227C74.8896 18.4754 75.3891 18.4162 75.7727 18.3452C76.1562 18.2741 76.4426 18.1771 76.632 18.054C76.8214 17.9309 76.9351 17.7652 76.9729 17.5568V17.5284C77.0156 17.2443 76.9398 17.0265 76.7457 16.875C76.5563 16.7235 76.2911 16.6477 75.9502 16.6477C75.5809 16.6477 75.2613 16.7282 74.9914 16.8892C74.7263 17.0502 74.544 17.3011 74.4445 17.642H70.8366C70.9881 16.9792 71.2982 16.3684 71.767 15.8097C72.2405 15.2462 72.8678 14.7964 73.6491 14.4602C74.4351 14.1193 75.3726 13.9489 76.4616 13.9489C77.2381 13.9489 77.9199 14.0412 78.507 14.2259C79.0942 14.4058 79.5795 14.6591 79.963 14.9858C80.3513 15.3078 80.6235 15.6866 80.7798 16.1222C80.9407 16.553 80.9786 17.0218 80.8934 17.5284L79.6434 25H75.9786L76.2343 23.4659H76.1491C75.865 23.8731 75.5454 24.2022 75.1903 24.4531C74.8399 24.7041 74.4564 24.8864 74.0397 25C73.6278 25.1136 73.1851 25.1705 72.7116 25.1705ZM74.4161 22.6989C74.7097 22.6989 74.9985 22.6373 75.2826 22.5142C75.5667 22.3911 75.8105 22.2135 76.0141 21.9815C76.2177 21.7495 76.3479 21.4678 76.4048 21.1364L76.5468 20.2273C76.4426 20.2699 76.3266 20.3101 76.1988 20.348C76.0757 20.3812 75.9455 20.4143 75.8082 20.4474C75.6756 20.4806 75.5336 20.5114 75.382 20.5398C75.2353 20.5682 75.0837 20.5966 74.9275 20.625C74.615 20.6723 74.3522 20.7505 74.1391 20.8594C73.9261 20.9635 73.7604 21.0938 73.642 21.25C73.5236 21.4015 73.4502 21.572 73.4218 21.7614C73.3792 22.0597 73.4479 22.2917 73.6278 22.4574C73.8124 22.6184 74.0752 22.6989 74.4161 22.6989ZM81.545 25L83.3632 14.0909H87.0848L86.7439 16.1648H86.8575C87.1937 15.483 87.6696 14.9432 88.2851 14.5455C88.9006 14.1477 89.5895 13.9489 90.3519 13.9489C91.1142 13.9489 91.7392 14.1525 92.2269 14.5597C92.7145 14.9621 92.9608 15.4972 92.9655 16.1648H93.0791C93.3727 15.4972 93.8533 14.9621 94.5209 14.5597C95.1885 14.1525 95.9295 13.9489 96.7439 13.9489C97.7808 13.9489 98.5692 14.285 99.109 14.9574C99.6535 15.6297 99.831 16.5246 99.6416 17.642L98.42 25H94.4996L95.5791 18.6364C95.6454 18.1581 95.5791 17.7841 95.3803 17.5142C95.1814 17.2396 94.8784 17.1023 94.4712 17.1023C94.0687 17.1023 93.7278 17.2396 93.4484 17.5142C93.1738 17.7841 93.0034 18.1581 92.9371 18.6364L91.8575 25H88.1075L89.1871 18.6364C89.2534 18.1581 89.1871 17.7841 88.9882 17.5142C88.7894 17.2396 88.4863 17.1023 88.0791 17.1023C87.814 17.1023 87.5725 17.1638 87.3547 17.2869C87.1416 17.41 86.9641 17.5876 86.822 17.8196C86.6847 18.0469 86.5924 18.3191 86.545 18.6364L85.4655 25H81.545ZM105.524 25.1989C104.359 25.1989 103.393 24.9763 102.626 24.5312C101.859 24.0814 101.32 23.4375 101.007 22.5994C100.695 21.7566 100.638 20.7481 100.837 19.5739C101.026 18.447 101.417 17.4621 102.008 16.6193C102.605 15.7765 103.356 15.1207 104.26 14.652C105.169 14.1832 106.187 13.9489 107.314 13.9489C108.138 13.9489 108.86 14.0767 109.48 14.3324C110.105 14.5881 110.614 14.9598 111.007 15.4474C111.4 15.9351 111.665 16.5246 111.802 17.2159C111.945 17.9025 111.945 18.679 111.802 19.5455L111.66 20.4545H101.916L102.257 18.2955H108.393C108.441 17.983 108.41 17.7083 108.301 17.4716C108.197 17.2301 108.029 17.0431 107.797 16.9105C107.57 16.7732 107.295 16.7045 106.973 16.7045C106.651 16.7045 106.348 16.7732 106.064 16.9105C105.784 17.0478 105.545 17.2396 105.347 17.4858C105.152 17.732 105.022 18.0208 104.956 18.3523L104.53 20.625C104.473 20.9754 104.494 21.2879 104.594 21.5625C104.693 21.8371 104.866 22.0526 105.112 22.2088C105.358 22.3651 105.676 22.4432 106.064 22.4432C106.329 22.4432 106.58 22.4077 106.817 22.3366C107.058 22.2609 107.271 22.152 107.456 22.0099C107.645 21.8632 107.797 21.6856 107.91 21.4773H111.49C111.234 22.2348 110.829 22.893 110.276 23.4517C109.726 24.0057 109.049 24.4366 108.244 24.7443C107.444 25.0473 106.537 25.1989 105.524 25.1989ZM127.507 15.9091H123.559C123.587 15.5729 123.568 15.2699 123.502 15C123.435 14.7301 123.322 14.4981 123.161 14.304C123 14.1051 122.789 13.9536 122.529 13.8494C122.268 13.7453 121.958 13.6932 121.598 13.6932C120.907 13.6932 120.289 13.866 119.745 14.2116C119.2 14.5526 118.748 15.0426 118.388 15.6818C118.028 16.3163 117.773 17.0739 117.621 17.9545C117.488 18.8068 117.484 19.5147 117.607 20.0781C117.735 20.6416 117.983 21.063 118.353 21.3423C118.727 21.6217 119.212 21.7614 119.809 21.7614C120.206 21.7614 120.571 21.714 120.902 21.6193C121.238 21.5246 121.537 21.3897 121.797 21.2145C122.062 21.0346 122.287 20.8215 122.472 20.5753C122.661 20.3243 122.806 20.0473 122.905 19.7443H126.882C126.731 20.3598 126.461 20.9896 126.073 21.6335C125.684 22.2727 125.183 22.8622 124.567 23.402C123.952 23.937 123.227 24.3703 122.394 24.7017C121.56 25.0331 120.623 25.1989 119.581 25.1989C118.218 25.1989 117.041 24.9006 116.051 24.304C115.067 23.7074 114.352 22.8362 113.907 21.6903C113.466 20.5445 113.379 19.1477 113.644 17.5C113.909 15.9091 114.432 14.5762 115.213 13.5014C115.995 12.4266 116.944 11.617 118.061 11.0724C119.179 10.5279 120.367 10.2557 121.627 10.2557C122.578 10.2557 123.431 10.3812 124.184 10.6321C124.941 10.883 125.578 11.25 126.094 11.733C126.615 12.2112 126.998 12.8007 127.245 13.5014C127.491 14.2022 127.578 15.0047 127.507 15.9091ZM133.063 25.1989C131.898 25.1989 130.932 24.9763 130.165 24.5312C129.398 24.0814 128.859 23.4375 128.546 22.5994C128.234 21.7566 128.177 20.7481 128.376 19.5739C128.565 18.447 128.956 17.4621 129.548 16.6193C130.144 15.7765 130.895 15.1207 131.799 14.652C132.708 14.1832 133.726 13.9489 134.853 13.9489C135.677 13.9489 136.399 14.0767 137.019 14.3324C137.644 14.5881 138.153 14.9598 138.546 15.4474C138.939 15.9351 139.204 16.5246 139.342 17.2159C139.484 17.9025 139.484 18.679 139.342 19.5455L139.2 20.4545H129.455L129.796 18.2955H135.932C135.98 17.983 135.949 17.7083 135.84 17.4716C135.736 17.2301 135.568 17.0431 135.336 16.9105C135.109 16.7732 134.834 16.7045 134.512 16.7045C134.19 16.7045 133.887 16.7732 133.603 16.9105C133.324 17.0478 133.084 17.2396 132.886 17.4858C132.691 17.732 132.561 18.0208 132.495 18.3523L132.069 20.625C132.012 20.9754 132.033 21.2879 132.133 21.5625C132.232 21.8371 132.405 22.0526 132.651 22.2088C132.897 22.3651 133.215 22.4432 133.603 22.4432C133.868 22.4432 134.119 22.4077 134.356 22.3366C134.597 22.2609 134.81 22.152 134.995 22.0099C135.184 21.8632 135.336 21.6856 135.45 21.4773H139.029C138.773 22.2348 138.369 22.893 137.815 23.4517C137.265 24.0057 136.588 24.4366 135.783 24.7443C134.983 25.0473 134.076 25.1989 133.063 25.1989ZM145.004 18.8636L143.981 25H140.061L141.879 14.0909H145.6L145.26 16.1648H145.373C145.719 15.4687 146.223 14.9266 146.886 14.5384C147.554 14.1454 148.29 13.9489 149.095 13.9489C149.867 13.9489 150.508 14.1241 151.019 14.4744C151.531 14.8248 151.893 15.3078 152.106 15.9233C152.319 16.5388 152.357 17.2443 152.22 18.0398L151.055 25H147.135L148.157 18.8636C148.247 18.3239 148.181 17.9001 147.958 17.5923C147.741 17.2846 147.381 17.1307 146.879 17.1307C146.562 17.1307 146.27 17.2017 146.005 17.3438C145.745 17.4811 145.527 17.6799 145.352 17.9403C145.181 18.196 145.065 18.5038 145.004 18.8636ZM161.286 14.0909L160.803 16.9318H153.615L154.098 14.0909H161.286ZM155.916 11.4773H159.837L158.175 21.4915C158.151 21.643 158.156 21.7708 158.189 21.875C158.222 21.9744 158.289 22.0502 158.388 22.1023C158.492 22.1496 158.63 22.1733 158.8 22.1733C158.914 22.1733 159.053 22.1591 159.219 22.1307C159.385 22.0975 159.51 22.0739 159.595 22.0597L159.709 24.8153C159.51 24.8722 159.243 24.9361 158.907 25.0071C158.575 25.0829 158.189 25.1326 157.749 25.1562C156.83 25.1989 156.082 25.1018 155.505 24.8651C154.932 24.6283 154.534 24.259 154.311 23.7571C154.094 23.2505 154.056 22.6184 154.198 21.8608L155.916 11.4773ZM166.149 25.1989C164.984 25.1989 164.018 24.9763 163.251 24.5312C162.484 24.0814 161.945 23.4375 161.632 22.5994C161.32 21.7566 161.263 20.7481 161.462 19.5739C161.651 18.447 162.042 17.4621 162.633 16.6193C163.23 15.7765 163.981 15.1207 164.885 14.652C165.794 14.1832 166.812 13.9489 167.939 13.9489C168.763 13.9489 169.485 14.0767 170.105 14.3324C170.73 14.5881 171.239 14.9598 171.632 15.4474C172.025 15.9351 172.29 16.5246 172.427 17.2159C172.57 17.9025 172.57 18.679 172.427 19.5455L172.285 20.4545H162.541L162.882 18.2955H169.018C169.066 17.983 169.035 17.7083 168.926 17.4716C168.822 17.2301 168.654 17.0431 168.422 16.9105C168.195 16.7732 167.92 16.7045 167.598 16.7045C167.276 16.7045 166.973 16.7732 166.689 16.9105C166.409 17.0478 166.17 17.2396 165.972 17.4858C165.777 17.732 165.647 18.0208 165.581 18.3523L165.155 20.625C165.098 20.9754 165.119 21.2879 165.219 21.5625C165.318 21.8371 165.491 22.0526 165.737 22.2088C165.983 22.3651 166.301 22.4432 166.689 22.4432C166.954 22.4432 167.205 22.4077 167.442 22.3366C167.683 22.2609 167.896 22.152 168.081 22.0099C168.27 21.8632 168.422 21.6856 168.535 21.4773H172.115C171.859 22.2348 171.454 22.893 170.901 23.4517C170.351 24.0057 169.674 24.4366 168.869 24.7443C168.069 25.0473 167.162 25.1989 166.149 25.1989ZM173.118 25L174.936 14.0909H178.743L178.402 16.1648H178.516C178.843 15.3977 179.252 14.8366 179.745 14.4815C180.237 14.1264 180.774 13.9489 181.357 13.9489C181.527 13.9489 181.691 13.9631 181.847 13.9915C182.008 14.0152 182.166 14.0483 182.323 14.0909L181.755 17.4432C181.57 17.3722 181.34 17.3224 181.066 17.294C180.791 17.2609 180.547 17.2443 180.334 17.2443C179.955 17.2443 179.6 17.3319 179.269 17.5071C178.942 17.6776 178.663 17.919 178.431 18.2315C178.203 18.5393 178.052 18.9015 177.976 19.3182L177.039 25H173.118Z"/>
</mask>
<path d="M65.2595 15.2557C65.2406 15.0047 65.1885 14.7846 65.1033 14.5952C65.018 14.401 64.8973 14.2377 64.7411 14.1051C64.5848 13.9678 64.3907 13.866 64.1587 13.7997C63.9314 13.7287 63.6639 13.6932 63.3561 13.6932C62.6932 13.6932 62.0895 13.8518 61.545 14.169C61.0005 14.4863 60.5436 14.9432 60.1743 15.5398C59.8097 16.1364 59.5588 16.8561 59.4215 17.6989C59.2794 18.5511 59.2676 19.2803 59.3859 19.8864C59.5043 20.4924 59.76 20.9564 60.153 21.2784C60.5507 21.6004 61.0881 21.7614 61.7652 21.7614C62.3713 21.7614 62.8945 21.6738 63.3348 21.4986C63.7751 21.3234 64.1279 21.0748 64.393 20.7528C64.6582 20.4309 64.8239 20.0521 64.8902 19.6165L65.572 19.6875H62.2482L62.7027 16.875H69.1516L68.8249 18.892C68.6071 20.2178 68.1383 21.3518 67.4186 22.294C66.7037 23.2315 65.8135 23.9512 64.7482 24.4531C63.6828 24.9503 62.5133 25.1989 61.2396 25.1989C59.8287 25.1989 58.6378 24.8982 57.6672 24.2969C56.6965 23.6955 56.0029 22.8385 55.5862 21.7259C55.1743 20.6132 55.0938 19.2898 55.3447 17.7557C55.5436 16.553 55.9035 15.4877 56.4243 14.5597C56.9499 13.6316 57.5914 12.848 58.349 12.2088C59.1066 11.5649 59.9423 11.0795 60.8561 10.7528C61.7699 10.4214 62.7169 10.2557 63.697 10.2557C64.554 10.2557 65.3329 10.3788 66.0337 10.625C66.7344 10.8665 67.3334 11.2121 67.8305 11.6619C68.3277 12.107 68.6994 12.6349 68.9456 13.2457C69.1965 13.8565 69.2983 14.5265 69.251 15.2557H65.2595ZM72.7116 25.1705C72.0203 25.1705 71.4261 25.0568 70.9289 24.8295C70.4365 24.5975 70.0766 24.2472 69.8494 23.7784C69.6268 23.3049 69.5771 22.7083 69.7002 21.9886C69.7996 21.392 69.9867 20.883 70.2613 20.4616C70.5359 20.0402 70.8768 19.6946 71.284 19.4247C71.6912 19.1548 72.1481 18.9489 72.6548 18.8068C73.1661 18.66 73.7059 18.5653 74.2741 18.5227C74.8896 18.4754 75.3891 18.4162 75.7727 18.3452C76.1562 18.2741 76.4426 18.1771 76.632 18.054C76.8214 17.9309 76.9351 17.7652 76.9729 17.5568V17.5284C77.0156 17.2443 76.9398 17.0265 76.7457 16.875C76.5563 16.7235 76.2911 16.6477 75.9502 16.6477C75.5809 16.6477 75.2613 16.7282 74.9914 16.8892C74.7263 17.0502 74.544 17.3011 74.4445 17.642H70.8366C70.9881 16.9792 71.2982 16.3684 71.767 15.8097C72.2405 15.2462 72.8678 14.7964 73.6491 14.4602C74.4351 14.1193 75.3726 13.9489 76.4616 13.9489C77.2381 13.9489 77.9199 14.0412 78.507 14.2259C79.0942 14.4058 79.5795 14.6591 79.963 14.9858C80.3513 15.3078 80.6235 15.6866 80.7798 16.1222C80.9407 16.553 80.9786 17.0218 80.8934 17.5284L79.6434 25H75.9786L76.2343 23.4659H76.1491C75.865 23.8731 75.5454 24.2022 75.1903 24.4531C74.8399 24.7041 74.4564 24.8864 74.0397 25C73.6278 25.1136 73.1851 25.1705 72.7116 25.1705ZM74.4161 22.6989C74.7097 22.6989 74.9985 22.6373 75.2826 22.5142C75.5667 22.3911 75.8105 22.2135 76.0141 21.9815C76.2177 21.7495 76.3479 21.4678 76.4048 21.1364L76.5468 20.2273C76.4426 20.2699 76.3266 20.3101 76.1988 20.348C76.0757 20.3812 75.9455 20.4143 75.8082 20.4474C75.6756 20.4806 75.5336 20.5114 75.382 20.5398C75.2353 20.5682 75.0837 20.5966 74.9275 20.625C74.615 20.6723 74.3522 20.7505 74.1391 20.8594C73.9261 20.9635 73.7604 21.0938 73.642 21.25C73.5236 21.4015 73.4502 21.572 73.4218 21.7614C73.3792 22.0597 73.4479 22.2917 73.6278 22.4574C73.8124 22.6184 74.0752 22.6989 74.4161 22.6989ZM81.545 25L83.3632 14.0909H87.0848L86.7439 16.1648H86.8575C87.1937 15.483 87.6696 14.9432 88.2851 14.5455C88.9006 14.1477 89.5895 13.9489 90.3519 13.9489C91.1142 13.9489 91.7392 14.1525 92.2269 14.5597C92.7145 14.9621 92.9608 15.4972 92.9655 16.1648H93.0791C93.3727 15.4972 93.8533 14.9621 94.5209 14.5597C95.1885 14.1525 95.9295 13.9489 96.7439 13.9489C97.7808 13.9489 98.5692 14.285 99.109 14.9574C99.6535 15.6297 99.831 16.5246 99.6416 17.642L98.42 25H94.4996L95.5791 18.6364C95.6454 18.1581 95.5791 17.7841 95.3803 17.5142C95.1814 17.2396 94.8784 17.1023 94.4712 17.1023C94.0687 17.1023 93.7278 17.2396 93.4484 17.5142C93.1738 17.7841 93.0034 18.1581 92.9371 18.6364L91.8575 25H88.1075L89.1871 18.6364C89.2534 18.1581 89.1871 17.7841 88.9882 17.5142C88.7894 17.2396 88.4863 17.1023 88.0791 17.1023C87.814 17.1023 87.5725 17.1638 87.3547 17.2869C87.1416 17.41 86.9641 17.5876 86.822 17.8196C86.6847 18.0469 86.5924 18.3191 86.545 18.6364L85.4655 25H81.545ZM105.524 25.1989C104.359 25.1989 103.393 24.9763 102.626 24.5312C101.859 24.0814 101.32 23.4375 101.007 22.5994C100.695 21.7566 100.638 20.7481 100.837 19.5739C101.026 18.447 101.417 17.4621 102.008 16.6193C102.605 15.7765 103.356 15.1207 104.26 14.652C105.169 14.1832 106.187 13.9489 107.314 13.9489C108.138 13.9489 108.86 14.0767 109.48 14.3324C110.105 14.5881 110.614 14.9598 111.007 15.4474C111.4 15.9351 111.665 16.5246 111.802 17.2159C111.945 17.9025 111.945 18.679 111.802 19.5455L111.66 20.4545H101.916L102.257 18.2955H108.393C108.441 17.983 108.41 17.7083 108.301 17.4716C108.197 17.2301 108.029 17.0431 107.797 16.9105C107.57 16.7732 107.295 16.7045 106.973 16.7045C106.651 16.7045 106.348 16.7732 106.064 16.9105C105.784 17.0478 105.545 17.2396 105.347 17.4858C105.152 17.732 105.022 18.0208 104.956 18.3523L104.53 20.625C104.473 20.9754 104.494 21.2879 104.594 21.5625C104.693 21.8371 104.866 22.0526 105.112 22.2088C105.358 22.3651 105.676 22.4432 106.064 22.4432C106.329 22.4432 106.58 22.4077 106.817 22.3366C107.058 22.2609 107.271 22.152 107.456 22.0099C107.645 21.8632 107.797 21.6856 107.91 21.4773H111.49C111.234 22.2348 110.829 22.893 110.276 23.4517C109.726 24.0057 109.049 24.4366 108.244 24.7443C107.444 25.0473 106.537 25.1989 105.524 25.1989ZM127.507 15.9091H123.559C123.587 15.5729 123.568 15.2699 123.502 15C123.435 14.7301 123.322 14.4981 123.161 14.304C123 14.1051 122.789 13.9536 122.529 13.8494C122.268 13.7453 121.958 13.6932 121.598 13.6932C120.907 13.6932 120.289 13.866 119.745 14.2116C119.2 14.5526 118.748 15.0426 118.388 15.6818C118.028 16.3163 117.773 17.0739 117.621 17.9545C117.488 18.8068 117.484 19.5147 117.607 20.0781C117.735 20.6416 117.983 21.063 118.353 21.3423C118.727 21.6217 119.212 21.7614 119.809 21.7614C120.206 21.7614 120.571 21.714 120.902 21.6193C121.238 21.5246 121.537 21.3897 121.797 21.2145C122.062 21.0346 122.287 20.8215 122.472 20.5753C122.661 20.3243 122.806 20.0473 122.905 19.7443H126.882C126.731 20.3598 126.461 20.9896 126.073 21.6335C125.684 22.2727 125.183 22.8622 124.567 23.402C123.952 23.937 123.227 24.3703 122.394 24.7017C121.56 25.0331 120.623 25.1989 119.581 25.1989C118.218 25.1989 117.041 24.9006 116.051 24.304C115.067 23.7074 114.352 22.8362 113.907 21.6903C113.466 20.5445 113.379 19.1477 113.644 17.5C113.909 15.9091 114.432 14.5762 115.213 13.5014C115.995 12.4266 116.944 11.617 118.061 11.0724C119.179 10.5279 120.367 10.2557 121.627 10.2557C122.578 10.2557 123.431 10.3812 124.184 10.6321C124.941 10.883 125.578 11.25 126.094 11.733C126.615 12.2112 126.998 12.8007 127.245 13.5014C127.491 14.2022 127.578 15.0047 127.507 15.9091ZM133.063 25.1989C131.898 25.1989 130.932 24.9763 130.165 24.5312C129.398 24.0814 128.859 23.4375 128.546 22.5994C128.234 21.7566 128.177 20.7481 128.376 19.5739C128.565 18.447 128.956 17.4621 129.548 16.6193C130.144 15.7765 130.895 15.1207 131.799 14.652C132.708 14.1832 133.726 13.9489 134.853 13.9489C135.677 13.9489 136.399 14.0767 137.019 14.3324C137.644 14.5881 138.153 14.9598 138.546 15.4474C138.939 15.9351 139.204 16.5246 139.342 17.2159C139.484 17.9025 139.484 18.679 139.342 19.5455L139.2 20.4545H129.455L129.796 18.2955H135.932C135.98 17.983 135.949 17.7083 135.84 17.4716C135.736 17.2301 135.568 17.0431 135.336 16.9105C135.109 16.7732 134.834 16.7045 134.512 16.7045C134.19 16.7045 133.887 16.7732 133.603 16.9105C133.324 17.0478 133.084 17.2396 132.886 17.4858C132.691 17.732 132.561 18.0208 132.495 18.3523L132.069 20.625C132.012 20.9754 132.033 21.2879 132.133 21.5625C132.232 21.8371 132.405 22.0526 132.651 22.2088C132.897 22.3651 133.215 22.4432 133.603 22.4432C133.868 22.4432 134.119 22.4077 134.356 22.3366C134.597 22.2609 134.81 22.152 134.995 22.0099C135.184 21.8632 135.336 21.6856 135.45 21.4773H139.029C138.773 22.2348 138.369 22.893 137.815 23.4517C137.265 24.0057 136.588 24.4366 135.783 24.7443C134.983 25.0473 134.076 25.1989 133.063 25.1989ZM145.004 18.8636L143.981 25H140.061L141.879 14.0909H145.6L145.26 16.1648H145.373C145.719 15.4687 146.223 14.9266 146.886 14.5384C147.554 14.1454 148.29 13.9489 149.095 13.9489C149.867 13.9489 150.508 14.1241 151.019 14.4744C151.531 14.8248 151.893 15.3078 152.106 15.9233C152.319 16.5388 152.357 17.2443 152.22 18.0398L151.055 25H147.135L148.157 18.8636C148.247 18.3239 148.181 17.9001 147.958 17.5923C147.741 17.2846 147.381 17.1307 146.879 17.1307C146.562 17.1307 146.27 17.2017 146.005 17.3438C145.745 17.4811 145.527 17.6799 145.352 17.9403C145.181 18.196 145.065 18.5038 145.004 18.8636ZM161.286 14.0909L160.803 16.9318H153.615L154.098 14.0909H161.286ZM155.916 11.4773H159.837L158.175 21.4915C158.151 21.643 158.156 21.7708 158.189 21.875C158.222 21.9744 158.289 22.0502 158.388 22.1023C158.492 22.1496 158.63 22.1733 158.8 22.1733C158.914 22.1733 159.053 22.1591 159.219 22.1307C159.385 22.0975 159.51 22.0739 159.595 22.0597L159.709 24.8153C159.51 24.8722 159.243 24.9361 158.907 25.0071C158.575 25.0829 158.189 25.1326 157.749 25.1562C156.83 25.1989 156.082 25.1018 155.505 24.8651C154.932 24.6283 154.534 24.259 154.311 23.7571C154.094 23.2505 154.056 22.6184 154.198 21.8608L155.916 11.4773ZM166.149 25.1989C164.984 25.1989 164.018 24.9763 163.251 24.5312C162.484 24.0814 161.945 23.4375 161.632 22.5994C161.32 21.7566 161.263 20.7481 161.462 19.5739C161.651 18.447 162.042 17.4621 162.633 16.6193C163.23 15.7765 163.981 15.1207 164.885 14.652C165.794 14.1832 166.812 13.9489 167.939 13.9489C168.763 13.9489 169.485 14.0767 170.105 14.3324C170.73 14.5881 171.239 14.9598 171.632 15.4474C172.025 15.9351 172.29 16.5246 172.427 17.2159C172.57 17.9025 172.57 18.679 172.427 19.5455L172.285 20.4545H162.541L162.882 18.2955H169.018C169.066 17.983 169.035 17.7083 168.926 17.4716C168.822 17.2301 168.654 17.0431 168.422 16.9105C168.195 16.7732 167.92 16.7045 167.598 16.7045C167.276 16.7045 166.973 16.7732 166.689 16.9105C166.409 17.0478 166.17 17.2396 165.972 17.4858C165.777 17.732 165.647 18.0208 165.581 18.3523L165.155 20.625C165.098 20.9754 165.119 21.2879 165.219 21.5625C165.318 21.8371 165.491 22.0526 165.737 22.2088C165.983 22.3651 166.301 22.4432 166.689 22.4432C166.954 22.4432 167.205 22.4077 167.442 22.3366C167.683 22.2609 167.896 22.152 168.081 22.0099C168.27 21.8632 168.422 21.6856 168.535 21.4773H172.115C171.859 22.2348 171.454 22.893 170.901 23.4517C170.351 24.0057 169.674 24.4366 168.869 24.7443C168.069 25.0473 167.162 25.1989 166.149 25.1989ZM173.118 25L174.936 14.0909H178.743L178.402 16.1648H178.516C178.843 15.3977 179.252 14.8366 179.745 14.4815C180.237 14.1264 180.774 13.9489 181.357 13.9489C181.527 13.9489 181.691 13.9631 181.847 13.9915C182.008 14.0152 182.166 14.0483 182.323 14.0909L181.755 17.4432C181.57 17.3722 181.34 17.3224 181.066 17.294C180.791 17.2609 180.547 17.2443 180.334 17.2443C179.955 17.2443 179.6 17.3319 179.269 17.5071C178.942 17.6776 178.663 17.919 178.431 18.2315C178.203 18.5393 178.052 18.9015 177.976 19.3182L177.039 25H173.118Z" fill="#EDEDED"/>
<path d="M65.2595 15.2557L63.2652 15.4062L63.4048 17.2557H65.2595V15.2557ZM65.1033 14.5952L63.272 15.3991L63.2757 15.4075L63.2794 15.4159L65.1033 14.5952ZM64.7411 14.1051L63.4208 15.6074L63.4339 15.6189L63.4471 15.6301L64.7411 14.1051ZM64.1587 13.7997L63.5621 15.7087L63.5856 15.716L63.6092 15.7228L64.1587 13.7997ZM61.545 14.169L62.5518 15.8971L62.5518 15.8971L61.545 14.169ZM60.1743 15.5398L58.4737 14.487L58.4677 14.4969L60.1743 15.5398ZM59.4215 17.6989L61.3943 18.0277L61.3954 18.0205L59.4215 17.6989ZM59.3859 19.8864L57.423 20.2697L57.423 20.2697L59.3859 19.8864ZM60.153 21.2784L58.8855 22.8255L58.8946 22.8329L60.153 21.2784ZM64.393 20.7528L62.8492 19.4814L62.8492 19.4814L64.393 20.7528ZM64.8902 19.6165L65.0974 17.6272L63.2 17.4296L62.913 19.3156L64.8902 19.6165ZM65.572 19.6875V21.6875L65.7792 17.6983L65.572 19.6875ZM62.2482 19.6875L60.2738 19.3684L59.899 21.6875H62.2482V19.6875ZM62.7027 16.875V14.875H61L60.7283 16.5559L62.7027 16.875ZM69.1516 16.875L71.1258 17.1948L71.5016 14.875H69.1516V16.875ZM68.8249 18.892L70.7984 19.2163L70.7991 19.2118L68.8249 18.892ZM67.4186 22.294L65.8292 21.08L65.8283 21.0812L67.4186 22.294ZM64.7482 24.4531L65.5939 26.2655L65.6005 26.2624L64.7482 24.4531ZM57.6672 24.2969L56.6139 25.9971L56.6139 25.9971L57.6672 24.2969ZM55.5862 21.7259L53.7106 22.4202L53.7132 22.4272L55.5862 21.7259ZM55.3447 17.7557L53.3715 17.4294L53.371 17.4328L55.3447 17.7557ZM56.4243 14.5597L54.684 13.5741L54.6802 13.5808L56.4243 14.5597ZM58.349 12.2088L59.6388 13.7374L59.6443 13.7327L58.349 12.2088ZM60.8561 10.7528L61.5294 12.6361L61.538 12.633L60.8561 10.7528ZM66.0337 10.625L65.3707 12.512L65.3821 12.5159L66.0337 10.625ZM67.8305 11.6619L66.4887 13.145L66.4965 13.152L67.8305 11.6619ZM68.9456 13.2457L67.0906 13.9935L67.0957 14.0058L68.9456 13.2457ZM69.251 15.2557V17.2557H71.1253L71.2468 15.3853L69.251 15.2557ZM65.2595 15.2557L67.2538 15.1052C67.221 14.6701 67.1254 14.2151 66.9271 13.7744L65.1033 14.5952L63.2794 15.4159C63.2655 15.3849 63.2606 15.3655 63.26 15.3628C63.2594 15.3604 63.2627 15.3737 63.2652 15.4062L65.2595 15.2557ZM65.1033 14.5952L66.9346 13.7912C66.7316 13.329 66.4309 12.916 66.035 12.5801L64.7411 14.1051L63.4471 15.6301C63.4089 15.5977 63.3724 15.5591 63.3404 15.5158C63.3087 15.4728 63.2865 15.4323 63.272 15.3991L65.1033 14.5952ZM64.7411 14.1051L66.0613 12.6028C65.6495 12.2409 65.1796 12.0114 64.7081 11.8767L64.1587 13.7997L63.6092 15.7228C63.6017 15.7206 63.5201 15.6947 63.4208 15.6074L64.7411 14.1051ZM64.1587 13.7997L64.7552 11.8908C64.2879 11.7447 63.8103 11.6932 63.3561 11.6932V13.6932V15.6932C63.5174 15.6932 63.5749 15.7127 63.5621 15.7087L64.1587 13.7997ZM63.3561 13.6932V11.6932C62.3586 11.6932 61.4045 11.9362 60.5382 12.4409L61.545 14.169L62.5518 15.8971C62.7746 15.7674 63.0279 15.6932 63.3561 15.6932V13.6932ZM61.545 14.169L60.5382 12.4409C59.6797 12.9411 58.9956 13.644 58.4738 14.4871L60.1743 15.5398L61.8748 16.5925C62.0916 16.2423 62.3213 16.0314 62.5518 15.8971L61.545 14.169ZM60.1743 15.5398L58.4677 14.4969C57.9419 15.3573 57.6175 16.334 57.4475 17.3773L59.4215 17.6989L61.3954 18.0205C61.5001 17.3782 61.6775 16.9154 61.8809 16.5827L60.1743 15.5398ZM59.4215 17.6989L57.4487 17.3701C57.2818 18.3713 57.2444 19.3554 57.423 20.2697L59.3859 19.8864L61.3489 19.503C61.2907 19.2052 61.277 18.731 61.3942 18.0277L59.4215 17.6989ZM59.3859 19.8864L57.423 20.2697C57.6107 21.2307 58.0593 22.1486 58.8855 22.8255L60.153 21.2784L61.4205 19.7313C61.4293 19.7386 61.4285 19.7424 61.4182 19.7237C61.4055 19.7007 61.3747 19.6352 61.3489 19.503L59.3859 19.8864ZM60.153 21.2784L58.8946 22.8329C59.749 23.5246 60.7788 23.7614 61.7652 23.7614V21.7614V19.7614C61.5823 19.7614 61.4769 19.7393 61.4283 19.7247C61.3849 19.7118 61.3891 19.7059 61.4114 19.7239L60.153 21.2784ZM61.7652 21.7614V23.7614C62.5569 23.7614 63.343 23.6478 64.0741 23.3569L63.3348 21.4986L62.5955 19.6403C62.4459 19.6998 62.1856 19.7614 61.7652 19.7614V21.7614ZM63.3348 21.4986L64.0741 23.3569C64.7846 23.0743 65.4296 22.6403 65.9369 22.0243L64.393 20.7528L62.8492 19.4814C62.8262 19.5093 62.7657 19.5725 62.5955 19.6403L63.3348 21.4986ZM64.393 20.7528L65.9369 22.0243C66.4445 21.4079 66.7501 20.6887 66.8674 19.9174L64.8902 19.6165L62.913 19.3156C62.8978 19.4155 62.8719 19.4539 62.8492 19.4814L64.393 20.7528ZM64.8902 19.6165L64.683 21.6057L65.3648 21.6767L65.572 19.6875L65.7792 17.6983L65.0974 17.6272L64.8902 19.6165ZM65.572 19.6875V17.6875H62.2482V19.6875V21.6875H65.572V19.6875ZM62.2482 19.6875L64.2225 20.0066L64.6771 17.1941L62.7027 16.875L60.7283 16.5559L60.2738 19.3684L62.2482 19.6875ZM62.7027 16.875V18.875H69.1516V16.875V14.875H62.7027V16.875ZM69.1516 16.875L67.1773 16.5552L66.8506 18.5723L68.8249 18.892L70.7991 19.2118L71.1258 17.1948L69.1516 16.875ZM68.8249 18.892L66.8513 18.5678C66.6795 19.6136 66.3247 20.4314 65.8292 21.08L67.4186 22.294L69.008 23.508C69.952 22.2722 70.5346 20.822 70.7984 19.2163L68.8249 18.892ZM67.4186 22.294L65.8283 21.0812C65.3077 21.7639 64.6705 22.2789 63.8958 22.6439L64.7482 24.4531L65.6005 26.2624C66.9565 25.6236 68.0996 24.6992 69.0089 23.5068L67.4186 22.294ZM64.7482 24.4531L63.9024 22.6408C63.1234 23.0043 62.2458 23.1989 61.2396 23.1989V25.1989V27.1989C62.7808 27.1989 64.2422 26.8963 65.5939 26.2655L64.7482 24.4531ZM61.2396 25.1989V23.1989C60.1132 23.1989 59.3078 22.9605 58.7205 22.5967L57.6672 24.2969L56.6139 25.9971C57.9679 26.8359 59.5441 27.1989 61.2396 27.1989V25.1989ZM57.6672 24.2969L58.7205 22.5967C58.1421 22.2384 57.7275 21.7408 57.4592 21.0245L55.5862 21.7259L53.7132 22.4272C54.2783 23.9363 55.251 25.1527 56.6139 25.9971L57.6672 24.2969ZM55.5862 21.7259L57.4618 21.0315C57.2018 20.3292 57.1066 19.3738 57.3185 18.0786L55.3447 17.7557L53.371 17.4328C53.081 19.2058 53.1468 20.8971 53.7106 22.4202L55.5862 21.7259ZM55.3447 17.7557L57.318 18.082C57.4844 17.0756 57.7765 16.2368 58.1684 15.5385L56.4243 14.5597L54.6802 13.5808C54.0304 14.7386 53.6029 16.0304 53.3715 17.4294L55.3447 17.7557ZM56.4243 14.5597L58.1646 15.5452C58.5823 14.8077 59.0757 14.2125 59.6388 13.7374L58.349 12.2088L57.0593 10.6802C56.1072 11.4835 55.3175 12.4555 54.684 13.5741L56.4243 14.5597ZM58.349 12.2088L59.6443 13.7327C60.2225 13.2412 60.8485 12.8795 61.5294 12.6361L60.8561 10.7528L60.1828 8.86958C59.0361 9.27956 57.9906 9.88854 57.0537 10.6849L58.349 12.2088ZM60.8561 10.7528L61.538 12.633C62.2314 12.3815 62.9475 12.2557 63.697 12.2557V10.2557V8.25568C62.4863 8.25568 61.3085 8.46129 60.1742 8.87268L60.8561 10.7528ZM63.697 10.2557V12.2557C64.3624 12.2557 64.9129 12.3511 65.3707 12.5119L66.0337 10.625L66.6966 8.73808C65.7529 8.40649 64.7457 8.25568 63.697 8.25568V10.2557ZM66.0337 10.625L65.3821 12.5159C65.8546 12.6787 66.2119 12.8946 66.4887 13.145L67.8305 11.6619L69.1724 10.1789C68.4548 9.52966 67.6142 9.05423 66.6853 8.73412L66.0337 10.625ZM67.8305 11.6619L66.4965 13.152C66.7686 13.3956 66.9605 13.6706 67.0906 13.9935L68.9456 13.2457L70.8006 12.498C70.4383 11.5992 69.8868 10.8184 69.1646 10.1718L67.8305 11.6619ZM68.9456 13.2457L67.0957 14.0058C67.219 14.3061 67.285 14.6679 67.2552 15.1261L69.251 15.2557L71.2468 15.3853C71.3117 14.3851 71.1741 13.4069 70.7956 12.4857L68.9456 13.2457ZM69.251 15.2557V13.2557H65.2595V15.2557V17.2557H69.251V15.2557ZM70.9289 24.8295L70.0765 26.6388L70.0869 26.6437L70.0974 26.6485L70.9289 24.8295ZM69.8494 23.7784L68.0393 24.6291L68.0445 24.6401L68.0497 24.651L69.8494 23.7784ZM69.7002 21.9886L71.6716 22.3258L71.673 22.3174L69.7002 21.9886ZM70.2613 20.4616L71.9369 21.5536L71.9369 21.5536L70.2613 20.4616ZM71.284 19.4247L72.3889 21.0918L72.3889 21.0918L71.284 19.4247ZM72.6548 18.8068L73.1947 20.7326L73.2066 20.7292L72.6548 18.8068ZM74.2741 18.5227L74.4237 20.5171L74.4275 20.5168L74.2741 18.5227ZM75.7727 18.3452L75.4085 16.3786L75.4085 16.3786L75.7727 18.3452ZM76.632 18.054L75.5421 16.3771L75.5421 16.3771L76.632 18.054ZM76.9729 17.5568L78.9407 17.9146L78.9729 17.7372V17.5568H76.9729ZM76.9729 17.5284L74.9951 17.2317L74.9729 17.3792V17.5284H76.9729ZM76.7457 16.875L75.4963 18.4367L75.5057 18.4442L75.5151 18.4516L76.7457 16.875ZM74.9914 16.8892L73.9669 15.1716L73.9601 15.1756L73.9535 15.1796L74.9914 16.8892ZM74.4445 17.642V19.642H75.9445L76.3645 18.202L74.4445 17.642ZM70.8366 17.642L68.8869 17.1964L68.3279 19.642H70.8366V17.642ZM71.767 15.8097L70.2358 14.523L70.2348 14.5242L71.767 15.8097ZM73.6491 14.4602L74.4396 16.2974L74.4449 16.2951L73.6491 14.4602ZM78.507 14.2259L77.907 16.1337L77.914 16.1359L77.921 16.1381L78.507 14.2259ZM79.963 14.9858L78.6661 16.5083L78.6761 16.5169L78.6863 16.5253L79.963 14.9858ZM80.7798 16.1222L78.8972 16.7974L78.9017 16.8098L78.9063 16.8221L80.7798 16.1222ZM80.8934 17.5284L78.9211 17.1966L78.9208 17.1984L80.8934 17.5284ZM79.6434 25V27H81.3366L81.616 25.33L79.6434 25ZM75.9786 25L74.0058 24.6712L73.6177 27H75.9786V25ZM76.2343 23.4659L78.2071 23.7947L78.5952 21.4659H76.2343V23.4659ZM76.1491 23.4659V21.4659H75.1058L74.5088 22.3215L76.1491 23.4659ZM75.1903 24.4531L74.036 22.8198L74.0257 22.8271L75.1903 24.4531ZM74.0397 25L73.5135 23.0705L73.5078 23.072L74.0397 25ZM75.2826 22.5142L76.0778 24.3493L76.0778 24.3493L75.2826 22.5142ZM76.0141 21.9815L77.5174 23.3007L77.5174 23.3007L76.0141 21.9815ZM76.4048 21.1364L78.376 21.4743L78.3785 21.4597L78.3808 21.4451L76.4048 21.1364ZM76.5468 20.2273L78.5228 20.536L79.07 17.0342L75.7895 18.3762L76.5468 20.2273ZM76.1988 20.348L76.7187 22.2792L76.7429 22.2727L76.767 22.2656L76.1988 20.348ZM75.8082 20.4474L75.3389 18.5033L75.331 18.5052L75.3231 18.5072L75.8082 20.4474ZM75.382 20.5398L75.0135 18.574L75.002 18.5762L75.382 20.5398ZM74.9275 20.625L75.2271 22.6024L75.2563 22.598L75.2853 22.5927L74.9275 20.625ZM74.1391 20.8594L75.0176 22.6561L75.0335 22.6483L75.0494 22.6402L74.1391 20.8594ZM73.642 21.25L75.218 22.4813L75.2272 22.4696L75.2362 22.4577L73.642 21.25ZM73.4218 21.7614L71.4439 21.4647L71.4419 21.4785L73.4218 21.7614ZM73.6278 22.4574L72.2728 23.9285L72.2929 23.947L72.3135 23.9649L73.6278 22.4574ZM72.7116 25.1705V23.1705C72.2338 23.1705 71.9372 23.0914 71.7604 23.0106L70.9289 24.8295L70.0974 26.6485C70.915 27.0222 71.8068 27.1705 72.7116 27.1705V25.1705ZM70.9289 24.8295L71.7813 23.0203C71.6823 22.9737 71.6674 22.9438 71.649 22.9059L69.8494 23.7784L68.0497 24.651C68.4859 25.5505 69.1906 26.2214 70.0765 26.6388L70.9289 24.8295ZM69.8494 23.7784L71.6594 22.9277C71.6674 22.9446 71.591 22.7969 71.6716 22.3258L69.7002 21.9886L67.7288 21.6514C67.5632 22.6198 67.5863 23.6652 68.0393 24.6291L69.8494 23.7784ZM69.7002 21.9886L71.673 22.3174C71.7361 21.939 71.8402 21.702 71.9369 21.5536L70.2613 20.4616L68.5857 19.3697C68.1332 20.0641 67.8632 20.8451 67.7274 21.6598L69.7002 21.9886ZM70.2613 20.4616L71.9369 21.5536C72.067 21.3539 72.216 21.2064 72.3889 21.0918L71.284 19.4247L70.1791 17.7576C69.5376 18.1828 69.0048 18.7266 68.5857 19.3697L70.2613 20.4616ZM71.284 19.4247L72.3889 21.0918C72.6096 20.9456 72.8733 20.8227 73.1947 20.7326L72.6548 18.8068L72.1148 16.8811C71.423 17.0751 70.7729 17.3641 70.1791 17.7576L71.284 19.4247ZM72.6548 18.8068L73.2066 20.7292C73.5777 20.6226 73.9821 20.5502 74.4237 20.5171L74.2741 18.5227L74.1245 16.5283C73.4297 16.5804 72.7545 16.6974 72.103 16.8844L72.6548 18.8068ZM74.2741 18.5227L74.4275 20.5168C75.0781 20.4668 75.6556 20.4008 76.1368 20.3117L75.7727 18.3452L75.4085 16.3786C75.1227 16.4315 74.7011 16.484 74.1207 16.5286L74.2741 18.5227ZM75.7727 18.3452L76.1368 20.3117C76.6184 20.2226 77.2073 20.0654 77.722 19.7309L76.632 18.054L75.5421 16.3771C75.5862 16.3484 75.6183 16.3326 75.632 16.3263C75.6459 16.3198 75.6475 16.3201 75.6333 16.3249C75.6024 16.3354 75.5315 16.3558 75.4085 16.3786L75.7727 18.3452ZM76.632 18.054L77.722 19.7309C78.3386 19.3301 78.7972 18.7039 78.9407 17.9146L76.9729 17.5568L75.0052 17.199C75.0339 17.0411 75.0987 16.8683 75.2099 16.7063C75.3192 16.5468 75.4435 16.4411 75.5421 16.3771L76.632 18.054ZM76.9729 17.5568H78.9729V17.5284H76.9729H74.9729V17.5568H76.9729ZM76.9729 17.5284L78.9508 17.8251C79.0791 16.9697 78.8441 15.9757 77.9762 15.2984L76.7457 16.875L75.5151 18.4516C75.3304 18.3074 75.1563 18.0886 75.0591 17.809C74.9675 17.5458 74.9799 17.3328 74.9951 17.2317L76.9729 17.5284ZM76.7457 16.875L77.9951 15.3133C77.3317 14.7826 76.5644 14.6477 75.9502 14.6477V16.6477V18.6477C76.0179 18.6477 75.7808 18.6644 75.4963 18.4367L76.7457 16.875ZM75.9502 16.6477V14.6477C75.284 14.6477 74.5971 14.7956 73.9669 15.1716L74.9914 16.8892L76.016 18.6068C75.976 18.6307 75.9415 18.6426 75.922 18.6475C75.9042 18.652 75.9108 18.6477 75.9502 18.6477V16.6477ZM74.9914 16.8892L73.9535 15.1796C73.199 15.6377 72.7422 16.3356 72.5245 17.082L74.4445 17.642L76.3645 18.202C76.359 18.221 76.3362 18.288 76.274 18.3736C76.2091 18.4629 76.1237 18.5415 76.0294 18.5988L74.9914 16.8892ZM74.4445 17.642V15.642H70.8366V17.642V19.642H74.4445V17.642ZM70.8366 17.642L72.7863 18.0877C72.8621 17.7561 73.019 17.429 73.2992 17.0951L71.767 15.8097L70.2348 14.5242C69.5774 15.3077 69.1141 16.2023 68.8869 17.1964L70.8366 17.642ZM71.767 15.8097L73.2981 17.0963C73.5419 16.8062 73.9001 16.5295 74.4396 16.2974L73.6491 14.4602L72.8586 12.6231C71.8355 13.0633 70.939 13.6862 70.2358 14.523L71.767 15.8097ZM73.6491 14.4602L74.4449 16.2951C74.9215 16.0883 75.5749 15.9489 76.4616 15.9489V13.9489V11.9489C75.1703 11.9489 73.9486 12.1503 72.8532 12.6254L73.6491 14.4602ZM76.4616 13.9489V15.9489C77.0852 15.9489 77.5571 16.0237 77.907 16.1337L78.507 14.2259L79.1071 12.318C78.2827 12.0587 77.3909 11.9489 76.4616 11.9489V13.9489ZM78.507 14.2259L77.921 16.1381C78.3028 16.2551 78.5307 16.3929 78.6661 16.5083L79.963 14.9858L81.2599 13.4633C80.6283 12.9253 79.8855 12.5565 79.093 12.3136L78.507 14.2259ZM79.963 14.9858L78.6863 16.5253C78.8245 16.6399 78.8726 16.7289 78.8972 16.7974L80.7798 16.1222L82.6623 15.4469C82.3744 14.6442 81.8781 13.9757 81.2397 13.4463L79.963 14.9858ZM80.7798 16.1222L78.9063 16.8221C78.9303 16.8865 78.955 16.9952 78.9211 17.1966L80.8934 17.5284L82.8657 17.8602C83.0023 17.0484 82.9512 16.2196 82.6533 15.4222L80.7798 16.1222ZM80.8934 17.5284L78.9208 17.1984L77.6708 24.67L79.6434 25L81.616 25.33L82.866 17.8584L80.8934 17.5284ZM79.6434 25V23H75.9786V25V27H79.6434V25ZM75.9786 25L77.9514 25.3288L78.2071 23.7947L76.2343 23.4659L74.2615 23.1371L74.0058 24.6712L75.9786 25ZM76.2343 23.4659V21.4659H76.1491V23.4659V25.4659H76.2343V23.4659ZM76.1491 23.4659L74.5088 22.3215C74.3387 22.5654 74.1773 22.72 74.0361 22.8198L75.1903 24.4531L76.3445 26.0865C76.9135 25.6844 77.3913 25.1808 77.7893 24.6103L76.1491 23.4659ZM75.1903 24.4531L74.0257 22.8271C73.8688 22.9395 73.7015 23.0192 73.5135 23.0705L74.0397 25L74.5659 26.9295C75.2112 26.7535 75.811 26.4686 76.3548 26.0791L75.1903 24.4531ZM74.0397 25L73.5078 23.072C73.2867 23.133 73.0245 23.1705 72.7116 23.1705V25.1705V27.1705C73.3456 27.1705 73.9688 27.0943 74.5716 26.928L74.0397 25ZM74.4161 22.6989V24.6989C74.9981 24.6989 75.5567 24.5751 76.0778 24.3493L75.2826 22.5142L74.4874 20.6791C74.4403 20.6995 74.4213 20.6989 74.4161 20.6989V22.6989ZM75.2826 22.5142L76.0778 24.3493C76.6323 24.109 77.1182 23.7556 77.5174 23.3007L76.0141 21.9815L74.5109 20.6624C74.5072 20.6665 74.5047 20.6689 74.5035 20.67C74.5023 20.6712 74.5016 20.6717 74.5013 20.6719C74.5009 20.6722 74.5001 20.6728 74.4984 20.6737C74.4966 20.6747 74.4931 20.6766 74.4874 20.6791L75.2826 22.5142ZM76.0141 21.9815L77.5174 23.3007C77.9862 22.7665 78.2626 22.136 78.376 21.4743L76.4048 21.1364L74.4335 20.7984C74.4323 20.8053 74.4345 20.7885 74.449 20.7572C74.464 20.7248 74.4854 20.6914 74.5109 20.6624L76.0141 21.9815ZM76.4048 21.1364L78.3808 21.4451L78.5228 20.536L76.5468 20.2273L74.5708 19.9185L74.4287 20.8276L76.4048 21.1364ZM76.5468 20.2273L75.7895 18.3762C75.7573 18.3894 75.7057 18.4082 75.6306 18.4304L76.1988 20.348L76.767 22.2656C76.9476 22.2121 77.128 22.1504 77.3041 22.0784L76.5468 20.2273ZM76.1988 20.348L75.6788 18.4168C75.5743 18.4449 75.461 18.4738 75.3389 18.5033L75.8082 20.4474L76.2775 22.3916C76.4299 22.3548 76.5771 22.3174 76.7187 22.2792L76.1988 20.348ZM75.8082 20.4474L75.3231 18.5072C75.2336 18.5295 75.1307 18.552 75.0135 18.574L75.382 20.5398L75.7506 22.5055C75.9364 22.4707 76.1176 22.4316 76.2932 22.3877L75.8082 20.4474ZM75.382 20.5398L75.002 18.5762C74.8631 18.6031 74.719 18.6301 74.5697 18.6573L74.9275 20.625L75.2853 22.5927C75.4485 22.5631 75.6074 22.5333 75.7621 22.5033L75.382 20.5398ZM74.9275 20.625L74.6279 18.6476C74.1667 18.7174 73.6839 18.846 73.2289 19.0785L74.1391 20.8594L75.0494 22.6402C75.0325 22.6489 75.0353 22.6453 75.066 22.6362C75.0966 22.6271 75.1488 22.6143 75.2271 22.6024L74.9275 20.625ZM74.1391 20.8594L73.2607 19.0626C72.8246 19.2758 72.391 19.5893 72.0478 20.0423L73.642 21.25L75.2362 22.4577C75.1297 22.5982 75.0276 22.6513 75.0176 22.6561L74.1391 20.8594ZM73.642 21.25L72.0659 20.0187C71.7362 20.4408 71.5237 20.9329 71.4439 21.4647L73.4218 21.7614L75.3997 22.058C75.3767 22.211 75.311 22.3622 75.218 22.4813L73.642 21.25ZM73.4218 21.7614L71.4419 21.4785C71.3306 22.2575 71.4939 23.2111 72.2728 23.9285L73.6278 22.4574L74.9827 20.9863C75.1555 21.1454 75.2897 21.3571 75.3591 21.5916C75.4238 21.8102 75.4114 21.9767 75.4017 22.0442L73.4218 21.7614ZM73.6278 22.4574L72.3135 23.9649C72.9831 24.5487 73.7807 24.6989 74.4161 24.6989V22.6989V20.6989C74.3698 20.6989 74.6418 20.6881 74.942 20.9498L73.6278 22.4574ZM81.545 25L79.5722 24.6712L79.1841 27H81.545V25ZM83.3632 14.0909V12.0909H81.669L81.3904 13.7621L83.3632 14.0909ZM87.0848 14.0909L89.0583 14.4153L89.4404 12.0909H87.0848V14.0909ZM86.7439 16.1648L84.7704 15.8404L84.3883 18.1648H86.7439V16.1648ZM86.8575 16.1648V18.1648H88.1013L88.6513 17.0492L86.8575 16.1648ZM88.2851 14.5455L87.1997 12.8656L87.1997 12.8656L88.2851 14.5455ZM92.2269 14.5597L90.945 16.0949L90.9539 16.1022L92.2269 14.5597ZM92.9655 16.1648L90.9655 16.179L90.9796 18.1648H92.9655V16.1648ZM93.0791 16.1648V18.1648H94.3845L94.9099 16.9698L93.0791 16.1648ZM94.5209 14.5597L95.5535 16.2725L95.5623 16.2671L94.5209 14.5597ZM99.109 14.9574L97.5493 16.2095L97.5547 16.2161L99.109 14.9574ZM99.6416 17.642L97.6697 17.3078L97.6686 17.3145L99.6416 17.642ZM98.42 25V27H100.115L100.393 25.3276L98.42 25ZM94.4996 25L92.5278 24.6655L92.1317 27H94.4996V25ZM95.5791 18.6364L97.551 18.9709L97.556 18.941L97.5602 18.911L95.5791 18.6364ZM95.3803 17.5142L93.7604 18.6872L93.7652 18.6939L93.7702 18.7006L95.3803 17.5142ZM93.4484 17.5142L94.8503 18.9407L94.8505 18.9405L93.4484 17.5142ZM92.9371 18.6364L94.9089 18.9709L94.914 18.941L94.9181 18.911L92.9371 18.6364ZM91.8575 25V27H93.5468L93.8294 25.3345L91.8575 25ZM88.1075 25L86.1357 24.6655L85.7397 27H88.1075V25ZM89.1871 18.6364L91.1589 18.9709L91.164 18.941L91.1681 18.911L89.1871 18.6364ZM88.9882 17.5142L87.3683 18.6872L87.3732 18.6939L87.3781 18.7006L88.9882 17.5142ZM87.3547 17.2869L86.3706 15.5458L86.3623 15.5505L86.3541 15.5552L87.3547 17.2869ZM86.822 17.8196L85.1163 16.7753L85.1102 16.7854L86.822 17.8196ZM86.545 18.6364L88.5169 18.9709L88.5202 18.9513L88.5231 18.9316L86.545 18.6364ZM85.4655 25V27H87.1548L87.4373 25.3345L85.4655 25ZM81.545 25L83.5178 25.3288L85.336 14.4197L83.3632 14.0909L81.3904 13.7621L79.5722 24.6712L81.545 25ZM83.3632 14.0909V16.0909H87.0848V14.0909V12.0909H83.3632V14.0909ZM87.0848 14.0909L85.1113 13.7665L84.7704 15.8404L86.7439 16.1648L88.7174 16.4892L89.0583 14.4153L87.0848 14.0909ZM86.7439 16.1648V18.1648H86.8575V16.1648V14.1648H86.7439V16.1648ZM86.8575 16.1648L88.6513 17.0492C88.8339 16.679 89.0703 16.4193 89.3705 16.2253L88.2851 14.5455L87.1997 12.8656C86.2688 13.4671 85.5535 14.2869 85.0637 15.2803L86.8575 16.1648ZM88.2851 14.5455L89.3705 16.2253C89.6492 16.0452 89.9583 15.9489 90.3519 15.9489V13.9489V11.9489C89.2208 11.9489 88.1521 12.2502 87.1997 12.8656L88.2851 14.5455ZM90.3519 13.9489V15.9489C90.7433 15.9489 90.8854 16.0451 90.945 16.0949L92.2269 14.5597L93.5087 13.0244C92.5929 12.2598 91.4851 11.9489 90.3519 11.9489V13.9489ZM92.2269 14.5597L90.9539 16.1022C90.9712 16.1165 90.9752 16.1227 90.9725 16.1192C90.9695 16.1153 90.9645 16.1078 90.9604 16.0989C90.9564 16.0901 90.9569 16.0882 90.9588 16.0974C90.9609 16.1074 90.9652 16.1332 90.9655 16.179L92.9655 16.1648L94.9654 16.1506C94.9568 14.9289 94.4725 13.8198 93.4998 13.0171L92.2269 14.5597ZM92.9655 16.1648V18.1648H93.0791V16.1648V14.1648H92.9655V16.1648ZM93.0791 16.1648L94.9099 16.9698C95.0257 16.7065 95.2135 16.4774 95.5534 16.2725L94.5209 14.5597L93.4883 12.8468C92.4931 13.4468 91.7196 14.2878 91.2483 15.3597L93.0791 16.1648ZM94.5209 14.5597L95.5623 16.2671C95.9029 16.0594 96.281 15.9489 96.7439 15.9489V13.9489V11.9489C95.578 11.9489 94.4741 12.2455 93.4795 12.8522L94.5209 14.5597ZM96.7439 13.9489V15.9489C97.3108 15.9489 97.4671 16.1069 97.5494 16.2095L99.109 14.9574L100.669 13.7053C99.6713 12.4632 98.2508 11.9489 96.7439 11.9489V13.9489ZM99.109 14.9574L97.5547 16.2161C97.6338 16.3137 97.7947 16.5704 97.6697 17.3078L99.6416 17.642L101.614 17.9763C101.867 16.4788 101.673 14.9458 100.663 13.6987L99.109 14.9574ZM99.6416 17.642L97.6686 17.3145L96.447 24.6724L98.42 25L100.393 25.3276L101.615 17.9696L99.6416 17.642ZM98.42 25V23H94.4996V25V27H98.42V25ZM94.4996 25L96.4714 25.3345L97.551 18.9709L95.5791 18.6364L93.6073 18.3019L92.5278 24.6655L94.4996 25ZM95.5791 18.6364L97.5602 18.911C97.6666 18.1435 97.6124 17.172 96.9904 16.3278L95.3803 17.5142L93.7702 18.7006C93.664 18.5566 93.6232 18.4216 93.6098 18.3462C93.5981 18.2801 93.6099 18.2765 93.5981 18.3618L95.5791 18.6364ZM95.3803 17.5142L97.0001 16.3412C96.3471 15.4394 95.3739 15.1023 94.4712 15.1023V17.1023V19.1023C94.4524 19.1023 94.3375 19.0991 94.1784 19.027C94.0069 18.9493 93.8608 18.8259 93.7604 18.6872L95.3803 17.5142ZM94.4712 17.1023V15.1023C93.5602 15.1023 92.711 15.4345 92.0464 16.088L93.4484 17.5142L94.8505 18.9405C94.8148 18.9755 94.7506 19.0243 94.6609 19.0604C94.5722 19.0962 94.5016 19.1023 94.4712 19.1023V17.1023ZM93.4484 17.5142L92.0466 16.0877C91.3844 16.7385 91.0673 17.5591 90.956 18.3618L92.9371 18.6364L94.9181 18.911C94.9292 18.8311 94.9422 18.8098 94.9346 18.8265C94.9306 18.8352 94.9221 18.8518 94.9073 18.8733C94.8923 18.895 94.8732 18.9182 94.8503 18.9407L93.4484 17.5142ZM92.9371 18.6364L90.9653 18.3019L89.8857 24.6655L91.8575 25L93.8294 25.3345L94.9089 18.9709L92.9371 18.6364ZM91.8575 25V23H88.1075V25V27H91.8575V25ZM88.1075 25L90.0794 25.3345L91.1589 18.9709L89.1871 18.6364L87.2153 18.3019L86.1357 24.6655L88.1075 25ZM89.1871 18.6364L91.1681 18.911C91.2745 18.1435 91.2204 17.172 90.5983 16.3278L88.9882 17.5142L87.3781 18.7006C87.272 18.5566 87.2311 18.4216 87.2178 18.3462C87.2061 18.2801 87.2178 18.2765 87.206 18.3618L89.1871 18.6364ZM88.9882 17.5142L90.6081 16.3412C89.9551 15.4394 88.9819 15.1023 88.0791 15.1023V17.1023V19.1023C88.0603 19.1023 87.9455 19.0991 87.7863 19.027C87.6149 18.9493 87.4687 18.8259 87.3683 18.6872L88.9882 17.5142ZM88.0791 17.1023V15.1023C87.4905 15.1023 86.9067 15.2428 86.3706 15.5458L87.3547 17.2869L88.3388 19.0281C88.2944 19.0532 88.2445 19.0734 88.1932 19.0865C88.1425 19.0994 88.1025 19.1023 88.0791 19.1023V17.1023ZM87.3547 17.2869L86.3541 15.5552C85.8228 15.8622 85.4137 16.2896 85.1163 16.7753L86.822 17.8196L88.5277 18.8639C88.5233 18.8712 88.5074 18.8952 88.4759 18.9266C88.4438 18.9588 88.4029 18.9911 88.3552 19.0187L87.3547 17.2869ZM86.822 17.8196L85.1102 16.7854C84.8109 17.2808 84.6454 17.8155 84.5669 18.3411L86.545 18.6364L88.5231 18.9316C88.5394 18.8228 88.5585 18.813 88.5339 18.8538L86.822 17.8196ZM86.545 18.6364L84.5732 18.3019L83.4937 24.6655L85.4655 25L87.4373 25.3345L88.5169 18.9709L86.545 18.6364ZM85.4655 25V23H81.545V25V27H85.4655V25ZM102.626 24.5312L101.615 26.2565L101.623 26.2611L102.626 24.5312ZM101.007 22.5994L99.1318 23.2947L99.1331 23.2982L101.007 22.5994ZM100.837 19.5739L102.809 19.9078L102.809 19.9053L100.837 19.5739ZM102.008 16.6193L100.376 15.4638L100.372 15.4699L102.008 16.6193ZM104.26 14.652L103.343 12.8744L103.34 12.8763L104.26 14.652ZM109.48 14.3324L108.718 16.1815L108.723 16.1835L109.48 14.3324ZM111.007 15.4474L109.45 16.7024L109.45 16.7024L111.007 15.4474ZM111.802 17.2159L109.841 17.6056L109.842 17.6133L109.844 17.6211L111.802 17.2159ZM111.802 19.5455L109.829 19.2219L109.828 19.2293L109.826 19.2367L111.802 19.5455ZM111.66 20.4545V22.4545H113.372L113.636 20.7633L111.66 20.4545ZM101.916 20.4545L99.9406 20.1426L99.5756 22.4545H101.916V20.4545ZM102.257 18.2955V16.2955H100.548L100.282 17.9835L102.257 18.2955ZM108.393 18.2955V20.2955H110.113L110.371 18.5951L108.393 18.2955ZM108.301 17.4716L106.465 18.2638L106.474 18.2857L106.484 18.3074L108.301 17.4716ZM107.797 16.9105L106.763 18.6223L106.783 18.6349L106.805 18.647L107.797 16.9105ZM106.064 16.9105L105.193 15.1098L105.182 15.1156L106.064 16.9105ZM105.347 17.4858L103.791 16.2291L103.783 16.2383L103.776 16.2475L105.347 17.4858ZM104.956 18.3523L102.995 17.96L102.992 17.9719L102.99 17.9837L104.956 18.3523ZM104.53 20.625L102.564 20.2564L102.559 20.2806L102.556 20.3049L104.53 20.625ZM104.594 21.5625L106.474 20.8816L106.474 20.8816L104.594 21.5625ZM105.112 22.2088L106.184 20.5201L106.184 20.5201L105.112 22.2088ZM106.817 22.3366L107.391 24.2523L107.403 24.2487L107.415 24.2449L106.817 22.3366ZM107.456 22.0099L108.675 23.5952L108.681 23.5908L107.456 22.0099ZM107.91 21.4773V19.4773H106.723L106.155 20.5196L107.91 21.4773ZM111.49 21.4773L113.385 22.1168L114.276 19.4773H111.49V21.4773ZM110.276 23.4517L108.855 22.0435L108.855 22.0436L110.276 23.4517ZM108.244 24.7443L108.953 26.6147L108.959 26.6124L108.244 24.7443ZM105.524 25.1989V23.1989C104.604 23.1989 104.011 23.0224 103.63 22.8014L102.626 24.5312L101.623 26.2611C102.776 26.9302 104.114 27.1989 105.524 27.1989V25.1989ZM102.626 24.5312L103.638 22.806C103.271 22.5905 103.034 22.3103 102.881 21.9007L101.007 22.5994L99.1331 23.2982C99.6053 24.5647 100.448 25.5724 101.615 26.2565L102.626 24.5312ZM101.007 22.5994L102.882 21.9041C102.725 21.48 102.65 20.8452 102.809 19.9078L100.837 19.5739L98.8647 19.2399C98.6257 20.651 98.6641 22.0333 99.1318 23.2947L101.007 22.5994ZM100.837 19.5739L102.809 19.9053C102.954 19.0402 103.243 18.3417 103.645 17.7687L102.008 16.6193L100.372 15.4699C99.5904 16.5826 99.0976 17.8538 98.8642 19.2424L100.837 19.5739ZM102.008 16.6193L103.641 17.7748C104.056 17.1889 104.563 16.7474 105.18 16.4276L104.26 14.652L103.34 12.8763C102.148 13.4941 101.154 14.3641 100.376 15.4638L102.008 16.6193ZM104.26 14.652L105.176 16.4296C105.774 16.1214 106.473 15.9489 107.314 15.9489V13.9489V11.9489C105.901 11.9489 104.564 12.2451 103.343 12.8744L104.26 14.652ZM107.314 13.9489V15.9489C107.934 15.9489 108.388 16.0453 108.718 16.1815L109.48 14.3324L110.242 12.4833C109.332 12.1081 108.341 11.9489 107.314 11.9489V13.9489ZM109.48 14.3324L108.723 16.1835C109.06 16.3215 109.285 16.4982 109.45 16.7024L111.007 15.4474L112.564 14.1925C111.943 13.4213 111.15 12.8546 110.237 12.4813L109.48 14.3324ZM111.007 15.4474L109.45 16.7024C109.616 16.9084 109.758 17.1909 109.841 17.6056L111.802 17.2159L113.764 16.8263C113.572 15.8583 113.184 14.9618 112.564 14.1925L111.007 15.4474ZM111.802 17.2159L109.844 17.6211C109.926 18.0157 109.941 18.5385 109.829 19.2219L111.802 19.5455L113.776 19.869C113.948 18.8194 113.963 17.7892 113.761 16.8107L111.802 17.2159ZM111.802 19.5455L109.826 19.2367L109.684 20.1458L111.66 20.4545L113.636 20.7633L113.779 19.8542L111.802 19.5455ZM111.66 20.4545V18.4545H101.916V20.4545V22.4545H111.66V20.4545ZM101.916 20.4545L103.892 20.7665L104.233 18.6074L102.257 18.2955L100.282 17.9835L99.9406 20.1426L101.916 20.4545ZM102.257 18.2955V20.2955H108.393V18.2955V16.2955H102.257V18.2955ZM108.393 18.2955L110.371 18.5951C110.464 17.9795 110.422 17.2965 110.118 16.6358L108.301 17.4716L106.484 18.3074C106.444 18.2204 106.425 18.1398 106.418 18.0779C106.412 18.0185 106.417 17.9882 106.416 17.9958L108.393 18.2955ZM108.301 17.4716L110.137 16.6794C109.859 16.0332 109.391 15.5179 108.789 15.174L107.797 16.9105L106.805 18.647C106.747 18.614 106.677 18.562 106.609 18.4871C106.542 18.4119 106.495 18.3331 106.465 18.2638L108.301 17.4716ZM107.797 16.9105L108.831 15.1987C108.231 14.8364 107.582 14.7045 106.973 14.7045V16.7045V18.7045C106.992 18.7045 106.977 18.7066 106.935 18.6963C106.892 18.6855 106.831 18.6634 106.763 18.6223L107.797 16.9105ZM106.973 16.7045V14.7045C106.356 14.7045 105.755 14.8386 105.194 15.1098L106.064 16.9105L106.934 18.7112C106.942 18.7076 106.945 18.7069 106.946 18.7066C106.947 18.7063 106.955 18.7045 106.973 18.7045V16.7045ZM106.064 16.9105L105.182 15.1156C104.637 15.3834 104.169 15.7606 103.791 16.2291L105.347 17.4858L106.902 18.7425C106.922 18.7186 106.932 18.7122 106.946 18.7054L106.064 16.9105ZM105.347 17.4858L103.776 16.2475C103.372 16.76 103.118 17.3444 102.995 17.96L104.956 18.3523L106.917 18.7445C106.92 18.7304 106.923 18.721 106.924 18.7157C106.926 18.7104 106.927 18.7084 106.927 18.709C106.926 18.7097 106.925 18.712 106.923 18.7152C106.921 18.7185 106.919 18.7215 106.917 18.7241L105.347 17.4858ZM104.956 18.3523L102.99 17.9837L102.564 20.2564L104.53 20.625L106.496 20.9936L106.922 18.7208L104.956 18.3523ZM104.53 20.625L102.556 20.3049C102.456 20.9195 102.475 21.5863 102.713 22.2434L104.594 21.5625L106.474 20.8816C106.492 20.9319 106.497 20.9697 106.498 20.9861C106.5 21.0009 106.497 20.9892 106.504 20.9451L104.53 20.625ZM104.594 21.5625L102.713 22.2434C102.963 22.9335 103.42 23.5036 104.041 23.8975L105.112 22.2088L106.184 20.5201C106.236 20.5533 106.299 20.6053 106.358 20.6786C106.417 20.7518 106.453 20.8244 106.474 20.8816L104.594 21.5625ZM105.112 22.2088L104.041 23.8975C104.697 24.3141 105.419 24.4432 106.064 24.4432V22.4432V20.4432C106.002 20.4432 105.989 20.4367 106.013 20.4426C106.04 20.4491 106.104 20.4692 106.184 20.5201L105.112 22.2088ZM106.064 22.4432V24.4432C106.51 24.4432 106.955 24.3832 107.391 24.2523L106.817 22.3366L106.242 20.421C106.205 20.4322 106.148 20.4432 106.064 20.4432V22.4432ZM106.817 22.3366L107.415 24.2449C107.862 24.1049 108.289 23.8924 108.675 23.5952L107.456 22.0099L106.236 20.4247C106.244 20.4192 106.248 20.4169 106.247 20.4173C106.246 20.4177 106.238 20.4222 106.218 20.4284L106.817 22.3366ZM107.456 22.0099L108.681 23.5908C109.086 23.2768 109.419 22.8878 109.666 22.435L107.91 21.4773L106.155 20.5196C106.163 20.5045 106.175 20.4865 106.19 20.4685C106.206 20.4504 106.22 20.4373 106.231 20.4291L107.456 22.0099ZM107.91 21.4773V23.4773H111.49V21.4773V19.4773H107.91V21.4773ZM111.49 21.4773L109.595 20.8377C109.435 21.3111 109.191 21.7051 108.855 22.0435L110.276 23.4517L111.696 24.8599C112.468 24.0809 113.033 23.1586 113.385 22.1168L111.49 21.4773ZM110.276 23.4517L108.855 22.0436C108.526 22.3756 108.098 22.6592 107.53 22.8762L108.244 24.7443L108.959 26.6124C110.001 26.2139 110.926 25.6358 111.696 24.8598L110.276 23.4517ZM108.244 24.7443L107.536 22.8739C107 23.0771 106.339 23.1989 105.524 23.1989V25.1989V27.1989C106.736 27.1989 107.889 27.0176 108.953 26.6147L108.244 24.7443ZM127.507 15.9091V17.9091H129.356L129.501 16.0657L127.507 15.9091ZM123.559 15.9091L121.566 15.7407L121.382 17.9091H123.559V15.9091ZM123.502 15L121.559 15.477L121.559 15.4771L123.502 15ZM123.161 14.304L121.606 15.5624L121.614 15.5716L121.621 15.5807L123.161 14.304ZM122.529 13.8494L121.786 15.7064L122.529 13.8494ZM119.745 14.2116L120.806 15.9068L120.816 15.9002L119.745 14.2116ZM118.388 15.6818L120.128 16.6685L120.131 16.663L118.388 15.6818ZM117.621 17.9545L115.65 17.6154L115.647 17.6313L115.645 17.6471L117.621 17.9545ZM117.607 20.0781L115.653 20.505L115.655 20.5129L115.656 20.5207L117.607 20.0781ZM118.353 21.3423L117.146 22.9374L117.156 22.9448L118.353 21.3423ZM120.902 21.6193L120.36 19.6942L120.353 19.6963L120.902 21.6193ZM121.797 21.2145L122.914 22.8739L122.92 22.8694L121.797 21.2145ZM122.472 20.5753L120.875 19.3705L120.872 19.3753L122.472 20.5753ZM122.905 19.7443V17.7443H121.456L121.005 19.1208L122.905 19.7443ZM126.882 19.7443L128.824 20.2224L129.434 17.7443H126.882V19.7443ZM126.073 21.6335L127.782 22.6718L127.785 22.6662L126.073 21.6335ZM124.567 23.402L125.879 24.9115L125.886 24.9057L124.567 23.402ZM122.394 24.7017L121.655 22.8433L121.655 22.8433L122.394 24.7017ZM116.051 24.304L115.015 26.0146L115.019 26.0168L116.051 24.304ZM113.907 21.6903L112.04 22.4078L112.042 22.4145L113.907 21.6903ZM113.644 17.5L111.671 17.1712L111.669 17.1822L113.644 17.5ZM118.061 11.0724L118.937 12.8703L118.937 12.8703L118.061 11.0724ZM124.184 10.6321L123.551 12.5295L123.555 12.5307L124.184 10.6321ZM126.094 11.733L124.727 13.1933L124.734 13.1997L124.741 13.2061L126.094 11.733ZM127.245 13.5014L129.132 12.8384L129.132 12.8384L127.245 13.5014ZM127.507 15.9091V13.9091H123.559V15.9091V17.9091H127.507V15.9091ZM123.559 15.9091L125.551 16.0775C125.594 15.5696 125.572 15.0434 125.444 14.5229L123.502 15L121.559 15.4771C121.564 15.4964 121.58 15.5762 121.566 15.7407L123.559 15.9091ZM123.502 15L125.444 14.523C125.313 13.9898 125.073 13.477 124.7 13.0273L123.161 14.304L121.621 15.5807C121.598 15.5531 121.582 15.5258 121.571 15.5033C121.56 15.4814 121.558 15.4708 121.559 15.477L123.502 15ZM123.161 14.304L124.715 13.0456C124.319 12.5561 123.818 12.211 123.271 11.9925L122.529 13.8494L121.786 15.7064C121.778 15.7031 121.751 15.6911 121.714 15.665C121.677 15.6382 121.64 15.6034 121.606 15.5624L123.161 14.304ZM122.529 13.8494L123.271 11.9925C122.718 11.7712 122.144 11.6932 121.598 11.6932V13.6932V15.6932C121.773 15.6932 121.818 15.7193 121.786 15.7064L122.529 13.8494ZM121.598 13.6932V11.6932C120.556 11.6932 119.561 11.9593 118.673 12.5231L119.745 14.2116L120.816 15.9002C121.017 15.7727 121.258 15.6932 121.598 15.6932V13.6932ZM119.745 14.2116L118.683 12.5165C117.818 13.0585 117.146 13.812 116.645 14.7007L118.388 15.6818L120.131 16.663C120.35 16.2732 120.583 16.0466 120.806 15.9068L119.745 14.2116ZM118.388 15.6818L116.648 14.6951C116.152 15.57 115.832 16.5566 115.65 17.6154L117.621 17.9545L119.592 18.2936C119.713 17.5911 119.904 17.0626 120.128 16.6685L118.388 15.6818ZM117.621 17.9545L115.645 17.6471C115.491 18.6342 115.458 19.6118 115.653 20.505L117.607 20.0781L119.561 19.6512C119.51 19.4176 119.486 18.9794 119.597 18.262L117.621 17.9545ZM117.607 20.0781L115.656 20.5207C115.862 21.4266 116.315 22.3085 117.146 22.9374L118.353 21.3423L119.559 19.7473C119.574 19.7588 119.588 19.7715 119.598 19.7834C119.609 19.7951 119.613 19.8021 119.612 19.8006C119.61 19.797 119.583 19.751 119.557 19.6356L117.607 20.0781ZM118.353 21.3423L117.156 22.9448C117.961 23.5462 118.901 23.7614 119.809 23.7614V21.7614V19.7614C119.664 19.7614 119.584 19.7443 119.55 19.7346C119.521 19.7261 119.528 19.7237 119.549 19.7399L118.353 21.3423ZM119.809 21.7614V23.7614C120.364 23.7614 120.917 23.6953 121.452 23.5424L120.902 21.6193L120.353 19.6963C120.225 19.7328 120.048 19.7614 119.809 19.7614V21.7614ZM120.902 21.6193L121.445 23.5444C121.962 23.3986 122.458 23.1801 122.914 22.8739L121.797 21.2145L120.681 19.555C120.615 19.5993 120.515 19.6506 120.36 19.6942L120.902 21.6193ZM121.797 21.2145L122.92 22.8694C123.361 22.5705 123.749 22.2057 124.072 21.7753L122.472 20.5753L120.872 19.3753C120.825 19.4373 120.764 19.4987 120.674 19.5595L121.797 21.2145ZM122.472 20.5753L124.068 21.7801C124.392 21.3509 124.638 20.877 124.805 20.3679L122.905 19.7443L121.005 19.1208C120.973 19.2177 120.93 19.2978 120.875 19.3705L122.472 20.5753ZM122.905 19.7443V21.7443H126.882V19.7443V17.7443H122.905V19.7443ZM126.882 19.7443L124.94 19.2663C124.845 19.654 124.663 20.0981 124.36 20.6008L126.073 21.6335L127.785 22.6662C128.259 21.8811 128.617 21.0657 128.824 20.2224L126.882 19.7443ZM126.073 21.6335L124.363 20.5952C124.09 21.0446 123.725 21.4802 123.248 21.8983L124.567 23.402L125.886 24.9057C126.64 24.2442 127.279 23.5008 127.782 22.6718L126.073 21.6335ZM124.567 23.402L123.255 21.8925C122.826 22.2658 122.299 22.5868 121.655 22.8433L122.394 24.7017L123.133 26.5601C124.155 26.1537 125.078 25.6082 125.879 24.9114L124.567 23.402ZM122.394 24.7017L121.655 22.8433C121.091 23.0674 120.41 23.1989 119.581 23.1989V25.1989V27.1989C120.836 27.1989 122.03 26.9989 123.133 26.5601L122.394 24.7017ZM119.581 25.1989V23.1989C118.515 23.1989 117.71 22.9684 117.084 22.5912L116.051 24.304L115.019 26.0168C116.372 26.8327 117.92 27.1989 119.581 27.1989V25.1989ZM116.051 24.304L117.088 22.5934C116.506 22.2412 116.068 21.7305 115.771 20.9662L113.907 21.6903L112.042 22.4145C112.635 23.9418 113.627 25.1735 115.015 26.0146L116.051 24.304ZM113.907 21.6903L115.773 20.9729C115.497 20.2543 115.39 19.2374 115.618 17.8178L113.644 17.5L111.669 17.1822C111.367 19.0581 111.435 20.8347 112.04 22.4078L113.907 21.6903ZM113.644 17.5L115.617 17.8288C115.841 16.4794 116.267 15.4531 116.831 14.6773L115.213 13.5014L113.596 12.3255C112.597 13.6994 111.976 15.3387 111.671 17.1712L113.644 17.5ZM115.213 13.5014L116.831 14.6773C117.433 13.8487 118.135 13.2615 118.937 12.8703L118.061 11.0724L117.185 9.27454C115.753 9.97236 114.556 11.0045 113.596 12.3255L115.213 13.5014ZM118.061 11.0724L118.937 12.8703C119.778 12.4606 120.667 12.2557 121.627 12.2557V10.2557V8.25568C120.068 8.25568 118.579 8.59524 117.185 9.27454L118.061 11.0724ZM121.627 10.2557V12.2557C122.405 12.2557 123.038 12.3585 123.551 12.5295L124.184 10.6321L124.816 8.73473C123.823 8.40382 122.752 8.25568 121.627 8.25568V10.2557ZM124.184 10.6321L123.555 12.5307C124.073 12.7024 124.448 12.9321 124.727 13.1933L126.094 11.733L127.461 10.2726C126.707 9.56787 125.809 9.06371 124.812 8.73355L124.184 10.6321ZM126.094 11.733L124.741 13.2061C125.008 13.451 125.215 13.7573 125.358 14.1644L127.245 13.5014L129.132 12.8384C128.782 11.844 128.222 10.9714 127.447 10.2598L126.094 11.733ZM127.245 13.5014L125.358 14.1644C125.494 14.551 125.567 15.0658 125.514 15.7525L127.507 15.9091L129.501 16.0657C129.589 14.9437 129.488 13.8534 129.132 12.8384L127.245 13.5014ZM130.165 24.5312L129.154 26.2565L129.162 26.2611L130.165 24.5312ZM128.546 22.5994L126.671 23.2947L126.672 23.2982L128.546 22.5994ZM128.376 19.5739L130.348 19.9078L130.348 19.9053L128.376 19.5739ZM129.548 16.6193L127.915 15.4638L127.911 15.4699L129.548 16.6193ZM131.799 14.652L130.882 12.8744L130.879 12.8763L131.799 14.652ZM137.019 14.3324L136.257 16.1815L136.262 16.1835L137.019 14.3324ZM138.546 15.4474L136.989 16.7024L136.989 16.7024L138.546 15.4474ZM139.342 17.2159L137.38 17.6056L137.381 17.6133L137.383 17.6211L139.342 17.2159ZM139.342 19.5455L137.368 19.2219L137.367 19.2293L137.366 19.2367L139.342 19.5455ZM139.2 20.4545V22.4545H140.911L141.176 20.7633L139.2 20.4545ZM129.455 20.4545L127.48 20.1426L127.115 22.4545H129.455V20.4545ZM129.796 18.2955V16.2955H128.087L127.821 17.9835L129.796 18.2955ZM135.932 18.2955V20.2955H137.652L137.91 18.5951L135.932 18.2955ZM135.84 17.4716L134.004 18.2638L134.013 18.2857L134.023 18.3074L135.84 17.4716ZM135.336 16.9105L134.302 18.6223L134.322 18.6349L134.344 18.647L135.336 16.9105ZM133.603 16.9105L132.733 15.1098L132.721 15.1156L133.603 16.9105ZM132.886 17.4858L131.33 16.2291L131.322 16.2383L131.315 16.2475L132.886 17.4858ZM132.495 18.3523L130.534 17.96L130.531 17.9719L130.529 17.9837L132.495 18.3523ZM132.069 20.625L130.103 20.2564L130.099 20.2806L130.095 20.3049L132.069 20.625ZM132.133 21.5625L134.013 20.8816L134.013 20.8816L132.133 21.5625ZM132.651 22.2088L133.723 20.5201L133.723 20.5201L132.651 22.2088ZM134.356 22.3366L134.93 24.2523L134.942 24.2487L134.954 24.2449L134.356 22.3366ZM134.995 22.0099L136.214 23.5952L136.22 23.5908L134.995 22.0099ZM135.45 21.4773V19.4773H134.262L133.694 20.5196L135.45 21.4773ZM139.029 21.4773L140.924 22.1168L141.815 19.4773H139.029V21.4773ZM137.815 23.4517L136.394 22.0435L136.394 22.0436L137.815 23.4517ZM135.783 24.7443L136.492 26.6147L136.498 26.6124L135.783 24.7443ZM133.063 25.1989V23.1989C132.143 23.1989 131.55 23.0224 131.169 22.8014L130.165 24.5312L129.162 26.2611C130.315 26.9302 131.653 27.1989 133.063 27.1989V25.1989ZM130.165 24.5312L131.177 22.806C130.81 22.5905 130.573 22.3103 130.42 21.9007L128.546 22.5994L126.672 23.2982C127.144 24.5647 127.987 25.5724 129.154 26.2565L130.165 24.5312ZM128.546 22.5994L130.421 21.9041C130.264 21.48 130.189 20.8452 130.348 19.9078L128.376 19.5739L126.404 19.2399C126.165 20.651 126.203 22.0333 126.671 23.2947L128.546 22.5994ZM128.376 19.5739L130.348 19.9053C130.493 19.0402 130.782 18.3417 131.184 17.7687L129.548 16.6193L127.911 15.4699C127.129 16.5826 126.637 17.8538 126.403 19.2424L128.376 19.5739ZM129.548 16.6193L131.18 17.7748C131.595 17.1889 132.102 16.7474 132.719 16.4276L131.799 14.652L130.879 12.8763C129.687 13.4941 128.694 14.3641 127.915 15.4638L129.548 16.6193ZM131.799 14.652L132.716 16.4296C133.313 16.1214 134.012 15.9489 134.853 15.9489V13.9489V11.9489C133.44 11.9489 132.103 12.2451 130.882 12.8744L131.799 14.652ZM134.853 13.9489V15.9489C135.473 15.9489 135.927 16.0453 136.257 16.1815L137.019 14.3324L137.781 12.4833C136.871 12.1081 135.88 11.9489 134.853 11.9489V13.9489ZM137.019 14.3324L136.262 16.1835C136.599 16.3215 136.824 16.4982 136.989 16.7024L138.546 15.4474L140.103 14.1925C139.482 13.4213 138.689 12.8546 137.776 12.4813L137.019 14.3324ZM138.546 15.4474L136.989 16.7024C137.155 16.9084 137.298 17.1909 137.38 17.6056L139.342 17.2159L141.303 16.8263C141.111 15.8583 140.723 14.9618 140.103 14.1925L138.546 15.4474ZM139.342 17.2159L137.383 17.6211C137.465 18.0157 137.48 18.5385 137.368 19.2219L139.342 19.5455L141.315 19.869C141.487 18.8194 141.503 17.7892 141.3 16.8107L139.342 17.2159ZM139.342 19.5455L137.366 19.2367L137.223 20.1458L139.2 20.4545L141.176 20.7633L141.318 19.8542L139.342 19.5455ZM139.2 20.4545V18.4545H129.455V20.4545V22.4545H139.2V20.4545ZM129.455 20.4545L131.431 20.7665L131.772 18.6074L129.796 18.2955L127.821 17.9835L127.48 20.1426L129.455 20.4545ZM129.796 18.2955V20.2955H135.932V18.2955V16.2955H129.796V18.2955ZM135.932 18.2955L137.91 18.5951C138.003 17.9795 137.961 17.2965 137.657 16.6358L135.84 17.4716L134.023 18.3074C133.983 18.2204 133.964 18.1398 133.957 18.0779C133.951 18.0185 133.956 17.9882 133.955 17.9958L135.932 18.2955ZM135.84 17.4716L137.677 16.6794C137.398 16.0332 136.93 15.5179 136.328 15.174L135.336 16.9105L134.344 18.647C134.286 18.614 134.216 18.562 134.148 18.4871C134.081 18.4119 134.034 18.3331 134.004 18.2638L135.84 17.4716ZM135.336 16.9105L136.37 15.1987C135.77 14.8364 135.121 14.7045 134.512 14.7045V16.7045V18.7045C134.531 18.7045 134.516 18.7066 134.474 18.6963C134.431 18.6855 134.37 18.6634 134.302 18.6223L135.336 16.9105ZM134.512 16.7045V14.7045C133.895 14.7045 133.294 14.8386 132.733 15.1098L133.603 16.9105L134.473 18.7112C134.481 18.7076 134.484 18.7069 134.485 18.7066C134.487 18.7063 134.494 18.7045 134.512 18.7045V16.7045ZM133.603 16.9105L132.721 15.1156C132.176 15.3834 131.708 15.7606 131.33 16.2291L132.886 17.4858L134.441 18.7425C134.461 18.7186 134.471 18.7122 134.485 18.7054L133.603 16.9105ZM132.886 17.4858L131.315 16.2475C130.911 16.76 130.657 17.3444 130.534 17.96L132.495 18.3523L134.456 18.7445C134.459 18.7304 134.462 18.721 134.463 18.7157C134.465 18.7104 134.466 18.7084 134.466 18.709C134.465 18.7097 134.464 18.712 134.462 18.7152C134.46 18.7185 134.458 18.7215 134.456 18.7241L132.886 17.4858ZM132.495 18.3523L130.529 17.9837L130.103 20.2564L132.069 20.625L134.035 20.9936L134.461 18.7208L132.495 18.3523ZM132.069 20.625L130.095 20.3049C129.995 20.9195 130.014 21.5863 130.252 22.2434L132.133 21.5625L134.013 20.8816C134.031 20.9319 134.036 20.9697 134.038 20.9861C134.039 21.0009 134.036 20.9892 134.043 20.9451L132.069 20.625ZM132.133 21.5625L130.252 22.2434C130.502 22.9335 130.959 23.5036 131.58 23.8975L132.651 22.2088L133.723 20.5201C133.775 20.5533 133.838 20.6053 133.897 20.6786C133.956 20.7518 133.993 20.8244 134.013 20.8816L132.133 21.5625ZM132.651 22.2088L131.58 23.8975C132.236 24.3141 132.958 24.4432 133.603 24.4432V22.4432V20.4432C133.541 20.4432 133.528 20.4367 133.552 20.4426C133.579 20.4491 133.643 20.4692 133.723 20.5201L132.651 22.2088ZM133.603 22.4432V24.4432C134.049 24.4432 134.494 24.3832 134.93 24.2523L134.356 22.3366L133.781 20.421C133.744 20.4322 133.688 20.4432 133.603 20.4432V22.4432ZM134.356 22.3366L134.954 24.2449C135.401 24.1049 135.828 23.8924 136.214 23.5952L134.995 22.0099L133.776 20.4247C133.783 20.4192 133.787 20.4169 133.786 20.4173C133.786 20.4177 133.777 20.4222 133.757 20.4284L134.356 22.3366ZM134.995 22.0099L136.22 23.5908C136.625 23.2768 136.958 22.8878 137.205 22.435L135.45 21.4773L133.694 20.5196C133.702 20.5045 133.714 20.4865 133.729 20.4685C133.745 20.4504 133.759 20.4373 133.77 20.4291L134.995 22.0099ZM135.45 21.4773V23.4773H139.029V21.4773V19.4773H135.45V21.4773ZM139.029 21.4773L137.134 20.8377C136.974 21.3111 136.73 21.7051 136.394 22.0435L137.815 23.4517L139.235 24.8599C140.007 24.0809 140.572 23.1586 140.924 22.1168L139.029 21.4773ZM137.815 23.4517L136.394 22.0436C136.065 22.3756 135.637 22.6592 135.069 22.8762L135.783 24.7443L136.498 26.6124C137.54 26.2139 138.466 25.6358 139.235 24.8598L137.815 23.4517ZM135.783 24.7443L135.075 22.8739C134.539 23.0771 133.878 23.1989 133.063 23.1989V25.1989V27.1989C134.275 27.1989 135.428 27.0176 136.492 26.6147L135.783 24.7443ZM145.004 18.8636L143.032 18.5264L143.031 18.5348L145.004 18.8636ZM143.981 25V27H145.675L145.954 25.3288L143.981 25ZM140.061 25L138.088 24.6712L137.7 27H140.061V25ZM141.879 14.0909V12.0909H140.185L139.906 13.7621L141.879 14.0909ZM145.6 14.0909L147.574 14.4153L147.956 12.0909H145.6V14.0909ZM145.26 16.1648L143.286 15.8404L142.904 18.1648H145.26V16.1648ZM145.373 16.1648V18.1648H146.613L147.164 17.0543L145.373 16.1648ZM146.886 14.5384L147.897 16.2641L147.901 16.2619L146.886 14.5384ZM151.019 14.4744L152.15 12.8246L152.15 12.8246L151.019 14.4744ZM152.106 15.9233L153.996 15.2691L153.996 15.2691L152.106 15.9233ZM152.22 18.0398L150.249 17.6996L150.247 17.7097L152.22 18.0398ZM151.055 25V27H152.748L153.028 25.3301L151.055 25ZM147.135 25L145.162 24.6712L144.774 27H147.135V25ZM148.157 18.8636L150.13 19.1924L150.13 19.1924L148.157 18.8636ZM147.958 17.5923L146.326 18.7477L146.332 18.756L146.338 18.7642L147.958 17.5923ZM146.005 17.3438L146.938 19.1129L146.95 19.1067L146.005 17.3438ZM145.352 17.9403L143.692 16.824L143.688 16.8309L145.352 17.9403ZM145.004 18.8636L143.031 18.5348L142.008 24.6712L143.981 25L145.954 25.3288L146.977 19.1924L145.004 18.8636ZM143.981 25V23H140.061V25V27H143.981V25ZM140.061 25L142.033 25.3288L143.852 14.4197L141.879 14.0909L139.906 13.7621L138.088 24.6712L140.061 25ZM141.879 14.0909V16.0909H145.6V14.0909V12.0909H141.879V14.0909ZM145.6 14.0909L143.627 13.7665L143.286 15.8404L145.26 16.1648L147.233 16.4892L147.574 14.4153L145.6 14.0909ZM145.26 16.1648V18.1648H145.373V16.1648V14.1648H145.26V16.1648ZM145.373 16.1648L147.164 17.0543C147.339 16.7028 147.574 16.4532 147.897 16.2641L146.886 14.5384L145.875 12.8126C144.872 13.4001 144.099 14.2347 143.582 15.2752L145.373 16.1648ZM146.886 14.5384L147.901 16.2619C148.248 16.0572 148.632 15.9489 149.095 15.9489V13.9489V11.9489C147.948 11.9489 146.859 12.2336 145.871 12.8148L146.886 14.5384ZM149.095 13.9489V15.9489C149.562 15.9489 149.784 16.0524 149.889 16.1243L151.019 14.4744L152.15 12.8246C151.232 12.1957 150.171 11.9489 149.095 11.9489V13.9489ZM151.019 14.4744L149.889 16.1243C150.028 16.2199 150.136 16.3447 150.216 16.5775L152.106 15.9233L153.996 15.2691C153.651 14.2708 153.033 13.4298 152.15 12.8246L151.019 14.4744ZM152.106 15.9233L150.216 16.5775C150.295 16.806 150.342 17.1585 150.249 17.6996L152.22 18.0398L154.191 18.38C154.372 17.3302 154.343 16.2717 153.996 15.2691L152.106 15.9233ZM152.22 18.0398L150.247 17.7097L149.082 24.6699L151.055 25L153.028 25.3301L154.192 18.3699L152.22 18.0398ZM151.055 25V23H147.135V25V27H151.055V25ZM147.135 25L149.107 25.3288L150.13 19.1924L148.157 18.8636L146.184 18.5348L145.162 24.6712L147.135 25ZM148.157 18.8636L150.13 19.1924C150.269 18.3592 150.231 17.3215 149.579 16.4204L147.958 17.5923L146.338 18.7642C146.241 18.6311 146.208 18.5091 146.199 18.4501C146.191 18.4015 146.203 18.4207 146.184 18.5348L148.157 18.8636ZM147.958 17.5923L149.591 16.437C148.88 15.4326 147.794 15.1307 146.879 15.1307V17.1307V19.1307C146.933 19.1307 146.867 19.1398 146.739 19.085C146.592 19.0224 146.439 18.9073 146.326 18.7477L147.958 17.5923ZM146.879 17.1307V15.1307C146.251 15.1307 145.632 15.2746 145.061 15.5808L146.005 17.3438L146.95 19.1067C146.934 19.115 146.915 19.1224 146.896 19.127C146.878 19.1315 146.871 19.1307 146.879 19.1307V17.1307ZM146.005 17.3438L145.072 15.5746C144.5 15.8763 144.04 16.3079 143.692 16.824L145.352 17.9403L147.011 19.0567C147.016 19.0502 147.011 19.0582 146.995 19.0729C146.979 19.0879 146.959 19.1021 146.938 19.1129L146.005 17.3438ZM145.352 17.9403L143.688 16.8309C143.336 17.3593 143.132 17.9417 143.032 18.5264L145.004 18.8636L146.975 19.2008C146.998 19.0659 147.027 19.0328 147.016 19.0497L145.352 17.9403ZM161.286 14.0909L163.258 14.4261L163.654 12.0909H161.286V14.0909ZM160.803 16.9318V18.9318H162.492L162.775 17.267L160.803 16.9318ZM153.615 16.9318L151.644 16.5966L151.247 18.9318H153.615V16.9318ZM154.098 14.0909V12.0909H152.41L152.127 13.7557L154.098 14.0909ZM155.916 11.4773V9.47727H154.22L153.943 11.1507L155.916 11.4773ZM159.837 11.4773L161.81 11.8047L162.196 9.47727H159.837V11.4773ZM158.175 21.4915L156.202 21.164L156.2 21.1734L156.199 21.1827L158.175 21.4915ZM158.189 21.875L156.283 22.4814L156.288 22.4945L156.292 22.5075L158.189 21.875ZM158.388 22.1023L157.46 23.8739L157.51 23.8999L157.56 23.923L158.388 22.1023ZM159.219 22.1307L159.557 24.1019L159.584 24.0973L159.611 24.0918L159.219 22.1307ZM159.595 22.0597L161.594 21.9773L161.5 19.7146L159.267 20.0869L159.595 22.0597ZM159.709 24.8153L160.259 26.7384L161.772 26.3059L161.707 24.7329L159.709 24.8153ZM158.907 25.0071L158.493 23.0503L158.477 23.0537L158.461 23.0574L158.907 25.0071ZM157.749 25.1562L157.842 27.1541L157.849 27.1538L157.856 27.1534L157.749 25.1562ZM155.505 24.8651L154.741 26.7135L154.746 26.7157L155.505 24.8651ZM154.311 23.7571L152.474 24.547L152.478 24.5574L152.483 24.5678L154.311 23.7571ZM154.198 21.8608L156.163 22.2294L156.167 22.2084L156.171 22.1874L154.198 21.8608ZM161.286 14.0909L159.314 13.7557L158.831 16.5966L160.803 16.9318L162.775 17.267L163.258 14.4261L161.286 14.0909ZM160.803 16.9318V14.9318H153.615V16.9318V18.9318H160.803V16.9318ZM153.615 16.9318L155.587 17.267L156.07 14.4261L154.098 14.0909L152.127 13.7557L151.644 16.5966L153.615 16.9318ZM154.098 14.0909V16.0909H161.286V14.0909V12.0909H154.098V14.0909ZM155.916 11.4773V13.4773H159.837V11.4773V9.47727H155.916V11.4773ZM159.837 11.4773L157.864 11.1498L156.202 21.164L158.175 21.4915L160.148 21.8189L161.81 11.8047L159.837 11.4773ZM158.175 21.4915L156.199 21.1827C156.146 21.5247 156.126 21.9873 156.283 22.4814L158.189 21.875L160.095 21.2686C160.186 21.5544 160.157 21.7613 160.151 21.8002L158.175 21.4915ZM158.189 21.875L156.292 22.5075C156.501 23.1347 156.938 23.6005 157.46 23.8739L158.388 22.1023L159.316 20.3306C159.46 20.406 159.622 20.5212 159.769 20.6894C159.918 20.8596 160.023 21.0509 160.087 21.2425L158.189 21.875ZM158.388 22.1023L157.56 23.923C158.02 24.1318 158.472 24.1733 158.8 24.1733V22.1733V20.1733C158.805 20.1733 158.844 20.1734 158.909 20.1846C158.974 20.1958 159.083 20.2212 159.216 20.2815L158.388 22.1023ZM158.8 22.1733V24.1733C159.067 24.1733 159.327 24.1413 159.557 24.1019L159.219 22.1307L158.881 20.1594C158.835 20.1674 158.804 20.1712 158.788 20.1729C158.77 20.1747 158.776 20.1733 158.8 20.1733V22.1733ZM159.219 22.1307L159.611 24.0918C159.772 24.0597 159.872 24.0412 159.924 24.0324L159.595 22.0597L159.267 20.0869C159.149 20.1065 158.998 20.1353 158.827 20.1695L159.219 22.1307ZM159.595 22.0597L157.597 22.1421L157.711 24.8977L159.709 24.8153L161.707 24.7329L161.594 21.9773L159.595 22.0597ZM159.709 24.8153L159.16 22.8923C159.025 22.9307 158.809 22.9835 158.493 23.0503L158.907 25.0071L159.32 26.9639C159.676 26.8886 159.995 26.8136 160.259 26.7384L159.709 24.8153ZM158.907 25.0071L158.461 23.0574C158.268 23.1015 157.999 23.1399 157.641 23.1591L157.749 25.1562L157.856 27.1534C158.379 27.1253 158.883 27.0642 159.352 26.9568L158.907 25.0071ZM157.749 25.1562L157.656 23.1584C156.902 23.1934 156.474 23.1011 156.263 23.0144L155.505 24.8651L154.746 26.7157C155.69 27.1025 156.758 27.2044 157.842 27.1541L157.749 25.1562ZM155.505 24.8651L156.268 23.0167C156.171 22.9765 156.139 22.9461 156.137 22.9449C156.136 22.9437 156.138 22.9452 156.14 22.9487C156.143 22.9521 156.142 22.9524 156.14 22.9464L154.311 23.7571L152.483 24.5678C152.941 25.6013 153.759 26.3079 154.741 26.7135L155.505 24.8651ZM154.311 23.7571L156.149 22.9672C156.139 22.9439 156.067 22.7463 156.163 22.2294L154.198 21.8608L152.232 21.4922C152.045 22.4904 152.048 23.557 152.474 24.547L154.311 23.7571ZM154.198 21.8608L156.171 22.1874L157.89 11.8039L155.916 11.4773L153.943 11.1507L152.225 21.5342L154.198 21.8608ZM163.251 24.5312L162.24 26.2565L162.248 26.2611L163.251 24.5312ZM161.632 22.5994L159.757 23.2947L159.758 23.2982L161.632 22.5994ZM161.462 19.5739L163.434 19.9078L163.434 19.9053L161.462 19.5739ZM162.633 16.6193L161.001 15.4638L160.997 15.4699L162.633 16.6193ZM164.885 14.652L163.968 12.8744L163.965 12.8763L164.885 14.652ZM170.105 14.3324L169.343 16.1815L169.348 16.1835L170.105 14.3324ZM171.632 15.4474L170.075 16.7024L170.075 16.7024L171.632 15.4474ZM172.427 17.2159L170.466 17.6056L170.467 17.6133L170.469 17.6211L172.427 17.2159ZM172.427 19.5455L170.454 19.2219L170.453 19.2293L170.451 19.2367L172.427 19.5455ZM172.285 20.4545V22.4545H173.997L174.261 20.7633L172.285 20.4545ZM162.541 20.4545L160.566 20.1426L160.201 22.4545H162.541V20.4545ZM162.882 18.2955V16.2955H161.173L160.907 17.9835L162.882 18.2955ZM169.018 18.2955V20.2955H170.738L170.996 18.5951L169.018 18.2955ZM168.926 17.4716L167.09 18.2638L167.099 18.2857L167.109 18.3074L168.926 17.4716ZM168.422 16.9105L167.388 18.6223L167.408 18.6349L167.43 18.647L168.422 16.9105ZM166.689 16.9105L165.818 15.1098L165.807 15.1156L166.689 16.9105ZM165.972 17.4858L164.416 16.2291L164.408 16.2383L164.401 16.2475L165.972 17.4858ZM165.581 18.3523L163.62 17.96L163.617 17.9719L163.615 17.9837L165.581 18.3523ZM165.155 20.625L163.189 20.2564L163.184 20.2806L163.181 20.3049L165.155 20.625ZM165.219 21.5625L167.099 20.8816L167.099 20.8816L165.219 21.5625ZM165.737 22.2088L166.809 20.5201L166.809 20.5201L165.737 22.2088ZM167.442 22.3366L168.016 24.2523L168.028 24.2487L168.04 24.2449L167.442 22.3366ZM168.081 22.0099L169.3 23.5952L169.306 23.5908L168.081 22.0099ZM168.535 21.4773V19.4773H167.348L166.78 20.5196L168.535 21.4773ZM172.115 21.4773L174.01 22.1168L174.901 19.4773H172.115V21.4773ZM170.901 23.4517L169.48 22.0435L169.48 22.0436L170.901 23.4517ZM168.869 24.7443L169.578 26.6147L169.584 26.6124L168.869 24.7443ZM166.149 25.1989V23.1989C165.229 23.1989 164.636 23.0224 164.255 22.8014L163.251 24.5312L162.248 26.2611C163.401 26.9302 164.739 27.1989 166.149 27.1989V25.1989ZM163.251 24.5312L164.263 22.806C163.896 22.5905 163.659 22.3103 163.506 21.9007L161.632 22.5994L159.758 23.2982C160.23 24.5647 161.073 25.5724 162.24 26.2565L163.251 24.5312ZM161.632 22.5994L163.507 21.9041C163.35 21.48 163.275 20.8452 163.434 19.9078L161.462 19.5739L159.49 19.2399C159.251 20.651 159.289 22.0333 159.757 23.2947L161.632 22.5994ZM161.462 19.5739L163.434 19.9053C163.579 19.0402 163.868 18.3417 164.27 17.7687L162.633 16.6193L160.997 15.4699C160.215 16.5826 159.723 17.8538 159.489 19.2424L161.462 19.5739ZM162.633 16.6193L164.266 17.7748C164.681 17.1889 165.188 16.7474 165.805 16.4276L164.885 14.652L163.965 12.8763C162.773 13.4941 161.779 14.3641 161.001 15.4638L162.633 16.6193ZM164.885 14.652L165.801 16.4296C166.399 16.1214 167.098 15.9489 167.939 15.9489V13.9489V11.9489C166.526 11.9489 165.189 12.2451 163.968 12.8744L164.885 14.652ZM167.939 13.9489V15.9489C168.559 15.9489 169.013 16.0453 169.343 16.1815L170.105 14.3324L170.867 12.4833C169.957 12.1081 168.966 11.9489 167.939 11.9489V13.9489ZM170.105 14.3324L169.348 16.1835C169.685 16.3215 169.91 16.4982 170.075 16.7024L171.632 15.4474L173.189 14.1925C172.568 13.4213 171.775 12.8546 170.862 12.4813L170.105 14.3324ZM171.632 15.4474L170.075 16.7024C170.241 16.9084 170.383 17.1909 170.466 17.6056L172.427 17.2159L174.389 16.8263C174.197 15.8583 173.809 14.9618 173.189 14.1925L171.632 15.4474ZM172.427 17.2159L170.469 17.6211C170.551 18.0157 170.566 18.5385 170.454 19.2219L172.427 19.5455L174.401 19.869C174.573 18.8194 174.588 17.7892 174.386 16.8107L172.427 17.2159ZM172.427 19.5455L170.451 19.2367L170.309 20.1458L172.285 20.4545L174.261 20.7633L174.404 19.8542L172.427 19.5455ZM172.285 20.4545V18.4545H162.541V20.4545V22.4545H172.285V20.4545ZM162.541 20.4545L164.517 20.7665L164.858 18.6074L162.882 18.2955L160.907 17.9835L160.566 20.1426L162.541 20.4545ZM162.882 18.2955V20.2955H169.018V18.2955V16.2955H162.882V18.2955ZM169.018 18.2955L170.996 18.5951C171.089 17.9795 171.047 17.2965 170.743 16.6358L168.926 17.4716L167.109 18.3074C167.069 18.2204 167.05 18.1398 167.043 18.0779C167.037 18.0185 167.042 17.9882 167.041 17.9958L169.018 18.2955ZM168.926 17.4716L170.762 16.6794C170.484 16.0332 170.016 15.5179 169.414 15.174L168.422 16.9105L167.43 18.647C167.372 18.614 167.302 18.562 167.234 18.4871C167.167 18.4119 167.12 18.3331 167.09 18.2638L168.926 17.4716ZM168.422 16.9105L169.456 15.1987C168.856 14.8364 168.207 14.7045 167.598 14.7045V16.7045V18.7045C167.617 18.7045 167.602 18.7066 167.56 18.6963C167.517 18.6855 167.456 18.6634 167.388 18.6223L168.422 16.9105ZM167.598 16.7045V14.7045C166.981 14.7045 166.38 14.8386 165.819 15.1098L166.689 16.9105L167.559 18.7112C167.567 18.7076 167.57 18.7069 167.571 18.7066C167.572 18.7063 167.58 18.7045 167.598 18.7045V16.7045ZM166.689 16.9105L165.807 15.1156C165.262 15.3834 164.794 15.7606 164.416 16.2291L165.972 17.4858L167.527 18.7425C167.547 18.7186 167.557 18.7122 167.571 18.7054L166.689 16.9105ZM165.972 17.4858L164.401 16.2475C163.997 16.76 163.743 17.3444 163.62 17.96L165.581 18.3523L167.542 18.7445C167.545 18.7304 167.548 18.721 167.549 18.7157C167.551 18.7104 167.552 18.7084 167.552 18.709C167.551 18.7097 167.55 18.712 167.548 18.7152C167.546 18.7185 167.544 18.7215 167.542 18.7241L165.972 17.4858ZM165.581 18.3523L163.615 17.9837L163.189 20.2564L165.155 20.625L167.121 20.9936L167.547 18.7208L165.581 18.3523ZM165.155 20.625L163.181 20.3049C163.081 20.9195 163.1 21.5863 163.338 22.2434L165.219 21.5625L167.099 20.8816C167.117 20.9319 167.122 20.9697 167.123 20.9861C167.125 21.0009 167.122 20.9892 167.129 20.9451L165.155 20.625ZM165.219 21.5625L163.338 22.2434C163.588 22.9335 164.045 23.5036 164.666 23.8975L165.737 22.2088L166.809 20.5201C166.861 20.5533 166.924 20.6053 166.983 20.6786C167.042 20.7518 167.078 20.8244 167.099 20.8816L165.219 21.5625ZM165.737 22.2088L164.666 23.8975C165.322 24.3141 166.044 24.4432 166.689 24.4432V22.4432V20.4432C166.627 20.4432 166.614 20.4367 166.638 20.4426C166.665 20.4491 166.729 20.4692 166.809 20.5201L165.737 22.2088ZM166.689 22.4432V24.4432C167.135 24.4432 167.58 24.3832 168.016 24.2523L167.442 22.3366L166.867 20.421C166.83 20.4322 166.773 20.4432 166.689 20.4432V22.4432ZM167.442 22.3366L168.04 24.2449C168.487 24.1049 168.914 23.8924 169.3 23.5952L168.081 22.0099L166.861 20.4247C166.869 20.4192 166.873 20.4169 166.872 20.4173C166.871 20.4177 166.863 20.4222 166.843 20.4284L167.442 22.3366ZM168.081 22.0099L169.306 23.5908C169.711 23.2768 170.044 22.8878 170.291 22.435L168.535 21.4773L166.78 20.5196C166.788 20.5045 166.8 20.4865 166.815 20.4685C166.831 20.4504 166.845 20.4373 166.856 20.4291L168.081 22.0099ZM168.535 21.4773V23.4773H172.115V21.4773V19.4773H168.535V21.4773ZM172.115 21.4773L170.22 20.8377C170.06 21.3111 169.816 21.7051 169.48 22.0435L170.901 23.4517L172.321 24.8599C173.093 24.0809 173.658 23.1586 174.01 22.1168L172.115 21.4773ZM170.901 23.4517L169.48 22.0436C169.151 22.3756 168.723 22.6592 168.155 22.8762L168.869 24.7443L169.584 26.6124C170.626 26.2139 171.551 25.6358 172.321 24.8598L170.901 23.4517ZM168.869 24.7443L168.161 22.8739C167.625 23.0771 166.964 23.1989 166.149 23.1989V25.1989V27.1989C167.361 27.1989 168.514 27.0176 169.578 26.6147L168.869 24.7443ZM173.118 25L171.145 24.6712L170.757 27H173.118V25ZM174.936 14.0909V12.0909H173.242L172.964 13.7621L174.936 14.0909ZM178.743 14.0909L180.717 14.4153L181.099 12.0909H178.743V14.0909ZM178.402 16.1648L176.429 15.8404L176.047 18.1648H178.402V16.1648ZM178.516 16.1648V18.1648H179.838L180.356 16.9485L178.516 16.1648ZM179.745 14.4815L178.575 12.8594L178.575 12.8594L179.745 14.4815ZM181.847 13.9915L181.489 15.9592L181.522 15.9653L181.556 15.9702L181.847 13.9915ZM182.323 14.0909L184.295 14.4251L184.597 12.6382L182.849 12.1614L182.323 14.0909ZM181.755 17.4432L181.037 19.3099L183.318 20.1873L183.726 17.7774L181.755 17.4432ZM181.066 17.294L180.826 19.2796L180.843 19.2817L180.86 19.2834L181.066 17.294ZM179.269 17.5071L180.194 19.2803L180.203 19.2753L179.269 17.5071ZM178.431 18.2315L176.825 17.0393L176.822 17.0434L178.431 18.2315ZM177.976 19.3182L176.008 18.9604L176.005 18.9765L176.003 18.9926L177.976 19.3182ZM177.039 25V27H178.736L179.012 25.3256L177.039 25ZM173.118 25L175.091 25.3288L176.909 14.4197L174.936 14.0909L172.964 13.7621L171.145 24.6712L173.118 25ZM174.936 14.0909V16.0909H178.743V14.0909V12.0909H174.936V14.0909ZM178.743 14.0909L176.77 13.7665L176.429 15.8404L178.402 16.1648L180.376 16.4892L180.717 14.4153L178.743 14.0909ZM178.402 16.1648V18.1648H178.516V16.1648V14.1648H178.402V16.1648ZM178.516 16.1648L180.356 16.9485C180.591 16.3965 180.808 16.1803 180.914 16.1037L179.745 14.4815L178.575 12.8594C177.696 13.493 177.094 14.3989 176.676 15.381L178.516 16.1648ZM179.745 14.4815L180.914 16.1037C181.082 15.9831 181.213 15.9489 181.357 15.9489V13.9489V11.9489C180.336 11.9489 179.392 12.2697 178.575 12.8594L179.745 14.4815ZM181.357 13.9489V15.9489C181.416 15.9489 181.459 15.9538 181.489 15.9592L181.847 13.9915L182.205 12.0237C181.922 11.9724 181.639 11.9489 181.357 11.9489V13.9489ZM181.847 13.9915L181.556 15.9702C181.638 15.9823 181.718 15.999 181.797 16.0204L182.323 14.0909L182.849 12.1614C182.615 12.0976 182.378 12.048 182.138 12.0128L181.847 13.9915ZM182.323 14.0909L180.351 13.7567L179.783 17.109L181.755 17.4432L183.726 17.7774L184.295 14.4251L182.323 14.0909ZM181.755 17.4432L182.473 15.5765C182.073 15.4228 181.658 15.3446 181.271 15.3047L181.066 17.294L180.86 19.2834C180.936 19.2913 180.989 19.3004 181.021 19.3073C181.053 19.3144 181.056 19.3173 181.037 19.3099L181.755 17.4432ZM181.066 17.294L181.305 15.3084C180.973 15.2684 180.647 15.2443 180.334 15.2443V17.2443V19.2443C180.448 19.2443 180.609 19.2534 180.826 19.2796L181.066 17.294ZM180.334 17.2443V15.2443C179.633 15.2443 178.957 15.4098 178.334 15.7389L179.269 17.5071L180.203 19.2753C180.244 19.254 180.278 19.2443 180.334 19.2443V17.2443ZM179.269 17.5071L178.344 15.7339C177.734 16.052 177.227 16.4982 176.825 17.0393L178.431 18.2315L180.037 19.4237C180.099 19.3398 180.15 19.3031 180.194 19.2803L179.269 17.5071ZM178.431 18.2315L176.822 17.0434C176.394 17.6222 176.133 18.2757 176.008 18.9604L177.976 19.3182L179.944 19.676C179.971 19.5273 180.012 19.4564 180.04 19.4196L178.431 18.2315ZM177.976 19.3182L176.003 18.9926L175.065 24.6744L177.039 25L179.012 25.3256L179.949 19.6438L177.976 19.3182ZM177.039 25V23H173.118V25V27H177.039V25Z" fill="#3D5AFE" mask="url(#path-2-outside-1_75_500)"/>
<defs>
<filter id="filter0_d_75_500" x="3.16577" y="5" width="53" height="33" filterUnits="userSpaceOnUse" color-interpolation-filters="sRGB">
<feFlood flood-opacity="0" result="BackgroundImageFix"/>
<feColorMatrix in="SourceAlpha" type="matrix" values="0 0 0 0 0 0 0 0 0 0 0 0 0 0 0 0 0 0 127 0" result="hardAlpha"/>
<feOffset dy="4"/>
<feGaussianBlur stdDeviation="2"/>
<feComposite in2="hardAlpha" operator="out"/>
<feColorMatrix type="matrix" values="0 0 0 0 0 0 0 0 0 0.901961 0 0 0 0 0.462745 0 0 0 1 0"/>
<feBlend mode="normal" in2="BackgroundImageFix" result="effect1_dropShadow_75_500"/>
<feBlend mode="normal" in="SourceGraphic" in2="effect1_dropShadow_75_500" result="shape"/>
</filter>
</defs>
</svg>
