<svg width="159" height="34" viewBox="0 0 159 34" fill="none" xmlns="http://www.w3.org/2000/svg">
<g filter="url(#filter0_d_824_1837)">
<path d="M43.2817 7.27266C44.3228 8.16953 45.1162 9.18672 45.6621 10.3242C46.208 11.4617 46.4873 12.6703 46.5 13.95C46.5 14.3328 46.4873 14.7922 46.4619 15.3281C46.4365 15.8641 46.3857 16.4437 46.3096 17.0672C46.2334 17.6906 46.1128 18.3305 45.9478 18.9867C45.7827 19.643 45.5732 20.2937 45.3193 20.9391C44.9385 21.8797 44.4941 22.6453 43.9863 23.2359C43.4785 23.8266 42.9517 24.2914 42.4058 24.6305C41.8599 24.9695 41.3076 25.1992 40.749 25.3195C40.1904 25.4398 39.6699 25.5 39.1875 25.5C38.7686 25.5 38.3877 25.4398 38.0449 25.3195C37.7021 25.1992 37.3721 25.0352 37.0547 24.8273C36.7373 24.6195 36.4453 24.3953 36.1787 24.1547C35.9121 23.9141 35.6392 23.6516 35.3599 23.3672C35.0933 23.1047 34.833 22.8531 34.5791 22.6125C34.3252 22.3719 34.0522 22.1586 33.7603 21.9727C33.4683 21.7867 33.1763 21.6281 32.8843 21.4969C32.5923 21.3656 32.2495 21.3 31.856 21.3H22.144C21.7759 21.3109 21.4395 21.3766 21.1348 21.4969C20.8301 21.6172 20.5317 21.7703 20.2397 21.9562C19.9478 22.1422 19.6812 22.3609 19.4399 22.6125C19.1987 22.8641 18.9321 23.1156 18.6401 23.3672C18.3735 23.6297 18.1069 23.8867 17.8403 24.1383C17.5737 24.3898 17.2817 24.6195 16.9644 24.8273C16.647 25.0352 16.3169 25.1937 15.9741 25.3031C15.6313 25.4125 15.2441 25.4781 14.8125 25.5C14.3301 25.5 13.8096 25.4398 13.251 25.3195C12.6924 25.1992 12.1401 24.975 11.5942 24.6469C11.0483 24.3187 10.5215 23.8539 10.0137 23.2523C9.50586 22.6508 9.06152 21.8797 8.68066 20.9391C8.42676 20.3047 8.22363 19.6594 8.07129 19.0031C7.91895 18.3469 7.79834 17.7016 7.70947 17.0672C7.62061 16.4328 7.56348 15.8531 7.53809 15.3281C7.5127 14.8031 7.5 14.3437 7.5 13.95C7.5 12.6812 7.77295 11.4781 8.31885 10.3406C8.86475 9.20312 9.66455 8.18047 10.7183 7.27266C11.7466 6.37578 12.9272 5.69219 14.2603 5.22187C15.5933 4.75156 16.9961 4.51094 18.4688 4.5H35.5312C37.0039 4.5 38.4004 4.73516 39.7207 5.20547C41.041 5.67578 42.228 6.36484 43.2817 7.27266ZM43.0151 20.25C43.2563 19.6703 43.4468 19.0687 43.5864 18.4453C43.7261 17.8219 43.8276 17.2258 43.8911 16.657C43.9546 16.0883 43.999 15.5633 44.0244 15.082C44.0498 14.6008 44.0625 14.2234 44.0625 13.95C44.0625 12.9328 43.8403 11.9812 43.396 11.0953C42.9517 10.2094 42.3423 9.43281 41.5679 8.76562C40.7935 8.09844 39.8921 7.57344 38.8638 7.19062C37.8354 6.80781 36.7246 6.61094 35.5312 6.6H18.4688C17.2881 6.6 16.1836 6.79141 15.1553 7.17422C14.127 7.55703 13.2256 8.08203 12.4512 8.74922C11.6768 9.41641 11.0674 10.193 10.623 11.0789C10.1787 11.9648 9.9502 12.9219 9.9375 13.95C9.9375 14.2344 9.94385 14.6117 9.95654 15.082C9.96924 15.5523 10.0137 16.0719 10.0898 16.6406C10.166 17.2094 10.2739 17.8109 10.4136 18.4453C10.5532 19.0797 10.7437 19.6812 10.9849 20.25C11.3022 21.0375 11.6514 21.6445 12.0322 22.0711C12.4131 22.4977 12.7812 22.8094 13.1367 23.0062C13.4922 23.2031 13.8223 23.318 14.127 23.3508C14.4316 23.3836 14.6602 23.4 14.8125 23.4C15.0918 23.4 15.3965 23.2578 15.7266 22.9734C16.0566 22.6891 16.4121 22.3609 16.793 21.9891C17.0977 21.6828 17.4214 21.3711 17.7642 21.0539C18.1069 20.7367 18.4941 20.4414 18.9258 20.168C19.3574 19.8945 19.8335 19.6703 20.354 19.4953C20.8745 19.3203 21.4521 19.2219 22.0869 19.2H31.9131C32.5479 19.2219 33.1255 19.3203 33.646 19.4953C34.1665 19.6703 34.6362 19.8891 35.0552 20.1516C35.4741 20.4141 35.8613 20.7094 36.2168 21.0375C36.5723 21.3656 36.9023 21.6828 37.207 21.9891C37.5752 22.35 37.9243 22.6727 38.2544 22.957C38.5845 23.2414 38.8955 23.3891 39.1875 23.4C39.3398 23.4 39.562 23.3836 39.854 23.3508C40.146 23.318 40.4761 23.2031 40.8442 23.0062C41.2124 22.8094 41.5869 22.4977 41.9678 22.0711C42.3486 21.6445 42.6978 21.0375 43.0151 20.25ZM17.25 12.9H19.6875V15H17.25V17.1H14.8125V15H12.375V12.9H14.8125V10.8H17.25V12.9ZM39.1875 15C39.5303 15 39.8477 15.0547 40.1396 15.1641C40.4316 15.2734 40.6855 15.4211 40.9014 15.607C41.1172 15.793 41.2949 16.0172 41.4346 16.2797C41.5742 16.5422 41.6377 16.8156 41.625 17.1C41.625 17.3953 41.5615 17.6687 41.4346 17.9203C41.3076 18.1719 41.1362 18.3906 40.9204 18.5766C40.7046 18.7625 40.4443 18.9156 40.1396 19.0359C39.835 19.1562 39.5176 19.2109 39.1875 19.2C38.8447 19.2 38.5273 19.1453 38.2354 19.0359C37.9434 18.9266 37.6895 18.7789 37.4736 18.593C37.2578 18.407 37.0801 18.1828 36.9404 17.9203C36.8008 17.6578 36.7373 17.3844 36.75 17.1C36.75 16.8047 36.8135 16.5312 36.9404 16.2797C37.0674 16.0281 37.2388 15.8094 37.4546 15.6234C37.6704 15.4375 37.9307 15.2844 38.2354 15.1641C38.54 15.0437 38.8574 14.9891 39.1875 15ZM34.3125 10.8C34.6553 10.8 34.9727 10.8547 35.2646 10.9641C35.5566 11.0734 35.8105 11.2211 36.0264 11.407C36.2422 11.593 36.4199 11.8172 36.5596 12.0797C36.6992 12.3422 36.7627 12.6156 36.75 12.9C36.75 13.1953 36.6865 13.4687 36.5596 13.7203C36.4326 13.9719 36.2612 14.1906 36.0454 14.3766C35.8296 14.5625 35.5693 14.7156 35.2646 14.8359C34.96 14.9562 34.6426 15.0109 34.3125 15C33.9697 15 33.6523 14.9453 33.3604 14.8359C33.0684 14.7266 32.8145 14.5789 32.5986 14.393C32.3828 14.207 32.2051 13.9828 32.0654 13.7203C31.9258 13.4578 31.8623 13.1844 31.875 12.9C31.875 12.6047 31.9385 12.3312 32.0654 12.0797C32.1924 11.8281 32.3638 11.6094 32.5796 11.4234C32.7954 11.2375 33.0557 11.0844 33.3604 10.9641C33.665 10.8437 33.9824 10.7891 34.3125 10.8Z" fill="#EDEDED"/>
</g>
<mask id="path-2-outside-1_824_1837" maskUnits="userSpaceOnUse" x="46.5" y="6.5" width="107" height="17" fill="black">
<rect fill="white" x="46.5" y="6.5" width="107" height="17"/>
<path d="M57.375 12.7045C57.3598 12.5038 57.3182 12.3277 57.25 12.1761C57.1818 12.0208 57.0852 11.8902 56.9602 11.7841C56.8352 11.6742 56.6799 11.5928 56.4943 11.5398C56.3125 11.483 56.0985 11.4545 55.8523 11.4545C55.322 11.4545 54.839 11.5814 54.4034 11.8352C53.9678 12.089 53.6023 12.4545 53.3068 12.9318C53.0152 13.4091 52.8144 13.9848 52.7045 14.6591C52.5909 15.3409 52.5814 15.9242 52.6761 16.4091C52.7708 16.8939 52.9754 17.2652 53.2898 17.5227C53.608 17.7803 54.0379 17.9091 54.5795 17.9091C55.0644 17.9091 55.483 17.839 55.8352 17.6989C56.1875 17.5587 56.4697 17.3598 56.6818 17.1023C56.8939 16.8447 57.0265 16.5417 57.0795 16.1932L57.625 16.25H54.9659L55.3295 14H60.4886L60.2273 15.6136C60.053 16.6742 59.678 17.5814 59.1023 18.3352C58.5303 19.0852 57.8182 19.661 56.9659 20.0625C56.1136 20.4602 55.178 20.6591 54.1591 20.6591C53.0303 20.6591 52.0777 20.4186 51.3011 19.9375C50.5246 19.4564 49.9697 18.7708 49.6364 17.8807C49.3068 16.9905 49.2424 15.9318 49.4432 14.7045C49.6023 13.7424 49.8902 12.8902 50.3068 12.1477C50.7273 11.4053 51.2405 10.7784 51.8466 10.267C52.4527 9.75189 53.1212 9.36364 53.8523 9.10227C54.5833 8.83712 55.3409 8.70455 56.125 8.70455C56.8106 8.70455 57.4337 8.80303 57.9943 9C58.5549 9.19318 59.0341 9.4697 59.4318 9.82955C59.8295 10.1856 60.1269 10.608 60.3239 11.0966C60.5246 11.5852 60.6061 12.1212 60.5682 12.7045H57.375ZM63.3366 20.6364C62.7836 20.6364 62.3082 20.5455 61.9105 20.3636C61.5166 20.178 61.2287 19.8977 61.0469 19.5227C60.8688 19.1439 60.8291 18.6667 60.9276 18.0909C61.0071 17.6136 61.1567 17.2064 61.3764 16.8693C61.5961 16.5322 61.8688 16.2557 62.1946 16.0398C62.5204 15.8239 62.8859 15.6591 63.2912 15.5455C63.7003 15.428 64.1321 15.3523 64.5866 15.3182C65.0791 15.2803 65.4787 15.233 65.7855 15.1761C66.0923 15.1193 66.3215 15.0417 66.473 14.9432C66.6245 14.8447 66.7154 14.7121 66.7457 14.5455V14.5227C66.7798 14.2955 66.7192 14.1212 66.5639 14C66.4124 13.8788 66.2003 13.8182 65.9276 13.8182C65.6321 13.8182 65.3764 13.8826 65.1605 14.0114C64.9484 14.1402 64.8026 14.3409 64.723 14.6136H61.8366C61.9579 14.0833 62.206 13.5947 62.581 13.1477C62.9598 12.697 63.4616 12.3371 64.0866 12.0682C64.7154 11.7955 65.4654 11.6591 66.3366 11.6591C66.9579 11.6591 67.5033 11.733 67.973 11.8807C68.4427 12.0246 68.831 12.2273 69.1378 12.4886C69.4484 12.7462 69.6662 13.0492 69.7912 13.3977C69.92 13.7424 69.9503 14.1174 69.8821 14.5227L68.8821 20.5H65.9503L66.1548 19.2727H66.0866C65.8594 19.5985 65.6037 19.8617 65.3196 20.0625C65.0393 20.2633 64.7325 20.4091 64.3991 20.5C64.0696 20.5909 63.7154 20.6364 63.3366 20.6364ZM64.7003 18.6591C64.9351 18.6591 65.1662 18.6098 65.3935 18.5114C65.6207 18.4129 65.8158 18.2708 65.9787 18.0852C66.1416 17.8996 66.2457 17.6742 66.2912 17.4091L66.4048 16.6818C66.3215 16.7159 66.2287 16.7481 66.1264 16.7784C66.0279 16.8049 65.9238 16.8314 65.8139 16.858C65.7079 16.8845 65.5942 16.9091 65.473 16.9318C65.3556 16.9545 65.2344 16.9773 65.1094 17C64.8594 17.0379 64.6491 17.1004 64.4787 17.1875C64.3082 17.2708 64.1757 17.375 64.081 17.5C63.9863 17.6212 63.9276 17.7576 63.9048 17.9091C63.8707 18.1477 63.9257 18.3333 64.0696 18.4659C64.2173 18.5947 64.4276 18.6591 64.7003 18.6591ZM70.4034 20.5L71.858 11.7727H74.8352L74.5625 13.4318H74.6534C74.9223 12.8864 75.303 12.4545 75.7955 12.1364C76.2879 11.8182 76.839 11.6591 77.4489 11.6591C78.0587 11.6591 78.5587 11.822 78.9489 12.1477C79.339 12.4697 79.536 12.8977 79.5398 13.4318H79.6307C79.8655 12.8977 80.25 12.4697 80.7841 12.1477C81.3182 11.822 81.911 11.6591 82.5625 11.6591C83.392 11.6591 84.0227 11.928 84.4545 12.4659C84.8902 13.0038 85.0322 13.7197 84.8807 14.6136L83.9034 20.5H80.767L81.6307 15.4091C81.6837 15.0265 81.6307 14.7273 81.4716 14.5114C81.3125 14.2917 81.0701 14.1818 80.7443 14.1818C80.4223 14.1818 80.1496 14.2917 79.9261 14.5114C79.7064 14.7273 79.5701 15.0265 79.517 15.4091L78.6534 20.5H75.6534L76.517 15.4091C76.5701 15.0265 76.517 14.7273 76.358 14.5114C76.1989 14.2917 75.9564 14.1818 75.6307 14.1818C75.4186 14.1818 75.2254 14.2311 75.0511 14.3295C74.8807 14.428 74.7386 14.5701 74.625 14.7557C74.5152 14.9375 74.4413 15.1553 74.4034 15.4091L73.5398 20.5H70.4034ZM89.5866 20.6591C88.6548 20.6591 87.8821 20.4811 87.2685 20.125C86.6548 19.7652 86.223 19.25 85.973 18.5795C85.723 17.9053 85.6776 17.0985 85.8366 16.1591C85.9882 15.2576 86.3007 14.4697 86.7741 13.7955C87.2514 13.1212 87.8518 12.5966 88.5753 12.2216C89.3026 11.8466 90.117 11.6591 91.0185 11.6591C91.6776 11.6591 92.2552 11.7614 92.7514 11.9659C93.2514 12.1705 93.6586 12.4678 93.973 12.858C94.2874 13.2481 94.4995 13.7197 94.6094 14.2727C94.723 14.822 94.723 15.4432 94.6094 16.1364L94.4957 16.8636H86.7003L86.973 15.1364H91.8821C91.92 14.8864 91.8954 14.6667 91.8082 14.4773C91.7249 14.2841 91.5904 14.1345 91.4048 14.0284C91.223 13.9186 91.0033 13.8636 90.7457 13.8636C90.4882 13.8636 90.2457 13.9186 90.0185 14.0284C89.795 14.1383 89.6037 14.2917 89.4446 14.4886C89.2893 14.6856 89.1851 14.9167 89.1321 15.1818L88.7912 17C88.7457 17.2803 88.7628 17.5303 88.8423 17.75C88.9219 17.9697 89.0601 18.142 89.2571 18.267C89.4541 18.392 89.7079 18.4545 90.0185 18.4545C90.2306 18.4545 90.4313 18.4261 90.6207 18.3693C90.8139 18.3087 90.9844 18.2216 91.1321 18.108C91.2836 17.9905 91.4048 17.8485 91.4957 17.6818H94.3594C94.1548 18.2879 93.831 18.8144 93.3878 19.2614C92.9484 19.7045 92.4067 20.0492 91.7628 20.2955C91.1226 20.5379 90.3973 20.6591 89.5866 20.6591ZM107.173 13.2273H104.014C104.037 12.9583 104.022 12.7159 103.969 12.5C103.916 12.2841 103.825 12.0985 103.696 11.9432C103.567 11.7841 103.399 11.6629 103.19 11.5795C102.982 11.4962 102.734 11.4545 102.446 11.4545C101.893 11.4545 101.399 11.5928 100.963 11.8693C100.527 12.142 100.166 12.5341 99.8778 13.0455C99.59 13.553 99.3854 14.1591 99.2642 14.8636C99.1581 15.5455 99.1544 16.1117 99.2528 16.5625C99.3551 17.0133 99.554 17.3504 99.8494 17.5739C100.149 17.7973 100.537 17.9091 101.014 17.9091C101.332 17.9091 101.624 17.8712 101.889 17.7955C102.158 17.7197 102.397 17.6117 102.605 17.4716C102.817 17.3277 102.997 17.1572 103.145 16.9602C103.296 16.7595 103.412 16.5379 103.491 16.2955H106.673C106.552 16.7879 106.336 17.2917 106.026 17.8068C105.715 18.3182 105.313 18.7898 104.821 19.2216C104.329 19.6496 103.749 19.9962 103.082 20.2614C102.416 20.5265 101.666 20.6591 100.832 20.6591C99.7415 20.6591 98.8002 20.4205 98.0085 19.9432C97.2206 19.4659 96.6487 18.7689 96.2926 17.8523C95.9403 16.9356 95.8703 15.8182 96.0824 14.5C96.2945 13.2273 96.7131 12.161 97.3381 11.3011C97.9631 10.4413 98.7225 9.79356 99.6165 9.35795C100.51 8.92235 101.461 8.70455 102.469 8.70455C103.23 8.70455 103.912 8.80492 104.514 9.00568C105.12 9.20644 105.63 9.5 106.043 9.88636C106.459 10.2689 106.766 10.7405 106.963 11.3011C107.16 11.8617 107.23 12.5038 107.173 13.2273ZM111.618 20.6591C110.686 20.6591 109.913 20.4811 109.3 20.125C108.686 19.7652 108.254 19.25 108.004 18.5795C107.754 17.9053 107.709 17.0985 107.868 16.1591C108.019 15.2576 108.332 14.4697 108.805 13.7955C109.283 13.1212 109.883 12.5966 110.607 12.2216C111.334 11.8466 112.148 11.6591 113.05 11.6591C113.709 11.6591 114.286 11.7614 114.783 11.9659C115.283 12.1705 115.69 12.4678 116.004 12.858C116.319 13.2481 116.531 13.7197 116.641 14.2727C116.754 14.822 116.754 15.4432 116.641 16.1364L116.527 16.8636H108.732L109.004 15.1364H113.913C113.951 14.8864 113.927 14.6667 113.839 14.4773C113.756 14.2841 113.622 14.1345 113.436 14.0284C113.254 13.9186 113.035 13.8636 112.777 13.8636C112.519 13.8636 112.277 13.9186 112.05 14.0284C111.826 14.1383 111.635 14.2917 111.476 14.4886C111.321 14.6856 111.216 14.9167 111.163 15.1818L110.822 17C110.777 17.2803 110.794 17.5303 110.874 17.75C110.953 17.9697 111.091 18.142 111.288 18.267C111.485 18.392 111.739 18.4545 112.05 18.4545C112.262 18.4545 112.463 18.4261 112.652 18.3693C112.845 18.3087 113.016 18.2216 113.163 18.108C113.315 17.9905 113.436 17.8485 113.527 17.6818H116.391C116.186 18.2879 115.862 18.8144 115.419 19.2614C114.98 19.7045 114.438 20.0492 113.794 20.2955C113.154 20.5379 112.429 20.6591 111.618 20.6591ZM121.17 15.5909L120.352 20.5H117.216L118.67 11.7727H121.648L121.375 13.4318H121.466C121.742 12.875 122.146 12.4413 122.676 12.1307C123.21 11.8163 123.799 11.6591 124.443 11.6591C125.061 11.6591 125.574 11.7992 125.983 12.0795C126.392 12.3598 126.682 12.7462 126.852 13.2386C127.023 13.7311 127.053 14.2955 126.943 14.9318L126.011 20.5H122.875L123.693 15.5909C123.765 15.1591 123.712 14.8201 123.534 14.5739C123.36 14.3277 123.072 14.2045 122.67 14.2045C122.417 14.2045 122.184 14.2614 121.972 14.375C121.763 14.4848 121.589 14.6439 121.449 14.8523C121.313 15.0568 121.22 15.303 121.17 15.5909ZM134.196 11.7727L133.81 14.0455H128.06L128.446 11.7727H134.196ZM129.901 9.68182H133.037L131.707 17.6932C131.688 17.8144 131.692 17.9167 131.719 18C131.745 18.0795 131.798 18.1402 131.878 18.1818C131.961 18.2197 132.071 18.2386 132.207 18.2386C132.298 18.2386 132.41 18.2273 132.543 18.2045C132.675 18.178 132.776 18.1591 132.844 18.1477L132.935 20.3523C132.776 20.3977 132.562 20.4489 132.293 20.5057C132.027 20.5663 131.719 20.6061 131.366 20.625C130.632 20.6591 130.033 20.5814 129.571 20.392C129.113 20.2027 128.795 19.9072 128.616 19.5057C128.442 19.1004 128.412 18.5947 128.526 17.9886L129.901 9.68182ZM138.087 20.6591C137.155 20.6591 136.382 20.4811 135.768 20.125C135.155 19.7652 134.723 19.25 134.473 18.5795C134.223 17.9053 134.178 17.0985 134.337 16.1591C134.488 15.2576 134.801 14.4697 135.274 13.7955C135.751 13.1212 136.352 12.5966 137.075 12.2216C137.803 11.8466 138.617 11.6591 139.518 11.6591C140.178 11.6591 140.755 11.7614 141.251 11.9659C141.751 12.1705 142.159 12.4678 142.473 12.858C142.787 13.2481 143 13.7197 143.109 14.2727C143.223 14.822 143.223 15.4432 143.109 16.1364L142.996 16.8636H135.2L135.473 15.1364H140.382C140.42 14.8864 140.395 14.6667 140.308 14.4773C140.225 14.2841 140.09 14.1345 139.905 14.0284C139.723 13.9186 139.503 13.8636 139.246 13.8636C138.988 13.8636 138.746 13.9186 138.518 14.0284C138.295 14.1383 138.104 14.2917 137.945 14.4886C137.789 14.6856 137.685 14.9167 137.632 15.1818L137.291 17C137.246 17.2803 137.263 17.5303 137.342 17.75C137.422 17.9697 137.56 18.142 137.757 18.267C137.954 18.392 138.208 18.4545 138.518 18.4545C138.731 18.4545 138.931 18.4261 139.121 18.3693C139.314 18.3087 139.484 18.2216 139.632 18.108C139.784 17.9905 139.905 17.8485 139.996 17.6818H142.859C142.655 18.2879 142.331 18.8144 141.888 19.2614C141.448 19.7045 140.907 20.0492 140.263 20.2955C139.623 20.5379 138.897 20.6591 138.087 20.6591ZM143.662 20.5L145.116 11.7727H148.162L147.889 13.4318H147.98C148.241 12.8182 148.569 12.3693 148.963 12.0852C149.357 11.8011 149.787 11.6591 150.253 11.6591C150.389 11.6591 150.52 11.6705 150.645 11.6932C150.774 11.7121 150.901 11.7386 151.026 11.7727L150.571 14.4545C150.423 14.3977 150.24 14.358 150.02 14.3352C149.8 14.3087 149.605 14.2955 149.435 14.2955C149.132 14.2955 148.848 14.3655 148.582 14.5057C148.321 14.642 148.098 14.8352 147.912 15.0852C147.73 15.3314 147.609 15.6212 147.548 15.9545L146.798 20.5H143.662Z"/>
</mask>
<path d="M57.375 12.7045C57.3598 12.5038 57.3182 12.3277 57.25 12.1761C57.1818 12.0208 57.0852 11.8902 56.9602 11.7841C56.8352 11.6742 56.6799 11.5928 56.4943 11.5398C56.3125 11.483 56.0985 11.4545 55.8523 11.4545C55.322 11.4545 54.839 11.5814 54.4034 11.8352C53.9678 12.089 53.6023 12.4545 53.3068 12.9318C53.0152 13.4091 52.8144 13.9848 52.7045 14.6591C52.5909 15.3409 52.5814 15.9242 52.6761 16.4091C52.7708 16.8939 52.9754 17.2652 53.2898 17.5227C53.608 17.7803 54.0379 17.9091 54.5795 17.9091C55.0644 17.9091 55.483 17.839 55.8352 17.6989C56.1875 17.5587 56.4697 17.3598 56.6818 17.1023C56.8939 16.8447 57.0265 16.5417 57.0795 16.1932L57.625 16.25H54.9659L55.3295 14H60.4886L60.2273 15.6136C60.053 16.6742 59.678 17.5814 59.1023 18.3352C58.5303 19.0852 57.8182 19.661 56.9659 20.0625C56.1136 20.4602 55.178 20.6591 54.1591 20.6591C53.0303 20.6591 52.0777 20.4186 51.3011 19.9375C50.5246 19.4564 49.9697 18.7708 49.6364 17.8807C49.3068 16.9905 49.2424 15.9318 49.4432 14.7045C49.6023 13.7424 49.8902 12.8902 50.3068 12.1477C50.7273 11.4053 51.2405 10.7784 51.8466 10.267C52.4527 9.75189 53.1212 9.36364 53.8523 9.10227C54.5833 8.83712 55.3409 8.70455 56.125 8.70455C56.8106 8.70455 57.4337 8.80303 57.9943 9C58.5549 9.19318 59.0341 9.4697 59.4318 9.82955C59.8295 10.1856 60.1269 10.608 60.3239 11.0966C60.5246 11.5852 60.6061 12.1212 60.5682 12.7045H57.375ZM63.3366 20.6364C62.7836 20.6364 62.3082 20.5455 61.9105 20.3636C61.5166 20.178 61.2287 19.8977 61.0469 19.5227C60.8688 19.1439 60.8291 18.6667 60.9276 18.0909C61.0071 17.6136 61.1567 17.2064 61.3764 16.8693C61.5961 16.5322 61.8688 16.2557 62.1946 16.0398C62.5204 15.8239 62.8859 15.6591 63.2912 15.5455C63.7003 15.428 64.1321 15.3523 64.5866 15.3182C65.0791 15.2803 65.4787 15.233 65.7855 15.1761C66.0923 15.1193 66.3215 15.0417 66.473 14.9432C66.6245 14.8447 66.7154 14.7121 66.7457 14.5455V14.5227C66.7798 14.2955 66.7192 14.1212 66.5639 14C66.4124 13.8788 66.2003 13.8182 65.9276 13.8182C65.6321 13.8182 65.3764 13.8826 65.1605 14.0114C64.9484 14.1402 64.8026 14.3409 64.723 14.6136H61.8366C61.9579 14.0833 62.206 13.5947 62.581 13.1477C62.9598 12.697 63.4616 12.3371 64.0866 12.0682C64.7154 11.7955 65.4654 11.6591 66.3366 11.6591C66.9579 11.6591 67.5033 11.733 67.973 11.8807C68.4427 12.0246 68.831 12.2273 69.1378 12.4886C69.4484 12.7462 69.6662 13.0492 69.7912 13.3977C69.92 13.7424 69.9503 14.1174 69.8821 14.5227L68.8821 20.5H65.9503L66.1548 19.2727H66.0866C65.8594 19.5985 65.6037 19.8617 65.3196 20.0625C65.0393 20.2633 64.7325 20.4091 64.3991 20.5C64.0696 20.5909 63.7154 20.6364 63.3366 20.6364ZM64.7003 18.6591C64.9351 18.6591 65.1662 18.6098 65.3935 18.5114C65.6207 18.4129 65.8158 18.2708 65.9787 18.0852C66.1416 17.8996 66.2457 17.6742 66.2912 17.4091L66.4048 16.6818C66.3215 16.7159 66.2287 16.7481 66.1264 16.7784C66.0279 16.8049 65.9238 16.8314 65.8139 16.858C65.7079 16.8845 65.5942 16.9091 65.473 16.9318C65.3556 16.9545 65.2344 16.9773 65.1094 17C64.8594 17.0379 64.6491 17.1004 64.4787 17.1875C64.3082 17.2708 64.1757 17.375 64.081 17.5C63.9863 17.6212 63.9276 17.7576 63.9048 17.9091C63.8707 18.1477 63.9257 18.3333 64.0696 18.4659C64.2173 18.5947 64.4276 18.6591 64.7003 18.6591ZM70.4034 20.5L71.858 11.7727H74.8352L74.5625 13.4318H74.6534C74.9223 12.8864 75.303 12.4545 75.7955 12.1364C76.2879 11.8182 76.839 11.6591 77.4489 11.6591C78.0587 11.6591 78.5587 11.822 78.9489 12.1477C79.339 12.4697 79.536 12.8977 79.5398 13.4318H79.6307C79.8655 12.8977 80.25 12.4697 80.7841 12.1477C81.3182 11.822 81.911 11.6591 82.5625 11.6591C83.392 11.6591 84.0227 11.928 84.4545 12.4659C84.8902 13.0038 85.0322 13.7197 84.8807 14.6136L83.9034 20.5H80.767L81.6307 15.4091C81.6837 15.0265 81.6307 14.7273 81.4716 14.5114C81.3125 14.2917 81.0701 14.1818 80.7443 14.1818C80.4223 14.1818 80.1496 14.2917 79.9261 14.5114C79.7064 14.7273 79.5701 15.0265 79.517 15.4091L78.6534 20.5H75.6534L76.517 15.4091C76.5701 15.0265 76.517 14.7273 76.358 14.5114C76.1989 14.2917 75.9564 14.1818 75.6307 14.1818C75.4186 14.1818 75.2254 14.2311 75.0511 14.3295C74.8807 14.428 74.7386 14.5701 74.625 14.7557C74.5152 14.9375 74.4413 15.1553 74.4034 15.4091L73.5398 20.5H70.4034ZM89.5866 20.6591C88.6548 20.6591 87.8821 20.4811 87.2685 20.125C86.6548 19.7652 86.223 19.25 85.973 18.5795C85.723 17.9053 85.6776 17.0985 85.8366 16.1591C85.9882 15.2576 86.3007 14.4697 86.7741 13.7955C87.2514 13.1212 87.8518 12.5966 88.5753 12.2216C89.3026 11.8466 90.117 11.6591 91.0185 11.6591C91.6776 11.6591 92.2552 11.7614 92.7514 11.9659C93.2514 12.1705 93.6586 12.4678 93.973 12.858C94.2874 13.2481 94.4995 13.7197 94.6094 14.2727C94.723 14.822 94.723 15.4432 94.6094 16.1364L94.4957 16.8636H86.7003L86.973 15.1364H91.8821C91.92 14.8864 91.8954 14.6667 91.8082 14.4773C91.7249 14.2841 91.5904 14.1345 91.4048 14.0284C91.223 13.9186 91.0033 13.8636 90.7457 13.8636C90.4882 13.8636 90.2457 13.9186 90.0185 14.0284C89.795 14.1383 89.6037 14.2917 89.4446 14.4886C89.2893 14.6856 89.1851 14.9167 89.1321 15.1818L88.7912 17C88.7457 17.2803 88.7628 17.5303 88.8423 17.75C88.9219 17.9697 89.0601 18.142 89.2571 18.267C89.4541 18.392 89.7079 18.4545 90.0185 18.4545C90.2306 18.4545 90.4313 18.4261 90.6207 18.3693C90.8139 18.3087 90.9844 18.2216 91.1321 18.108C91.2836 17.9905 91.4048 17.8485 91.4957 17.6818H94.3594C94.1548 18.2879 93.831 18.8144 93.3878 19.2614C92.9484 19.7045 92.4067 20.0492 91.7628 20.2955C91.1226 20.5379 90.3973 20.6591 89.5866 20.6591ZM107.173 13.2273H104.014C104.037 12.9583 104.022 12.7159 103.969 12.5C103.916 12.2841 103.825 12.0985 103.696 11.9432C103.567 11.7841 103.399 11.6629 103.19 11.5795C102.982 11.4962 102.734 11.4545 102.446 11.4545C101.893 11.4545 101.399 11.5928 100.963 11.8693C100.527 12.142 100.166 12.5341 99.8778 13.0455C99.59 13.553 99.3854 14.1591 99.2642 14.8636C99.1581 15.5455 99.1544 16.1117 99.2528 16.5625C99.3551 17.0133 99.554 17.3504 99.8494 17.5739C100.149 17.7973 100.537 17.9091 101.014 17.9091C101.332 17.9091 101.624 17.8712 101.889 17.7955C102.158 17.7197 102.397 17.6117 102.605 17.4716C102.817 17.3277 102.997 17.1572 103.145 16.9602C103.296 16.7595 103.412 16.5379 103.491 16.2955H106.673C106.552 16.7879 106.336 17.2917 106.026 17.8068C105.715 18.3182 105.313 18.7898 104.821 19.2216C104.329 19.6496 103.749 19.9962 103.082 20.2614C102.416 20.5265 101.666 20.6591 100.832 20.6591C99.7415 20.6591 98.8002 20.4205 98.0085 19.9432C97.2206 19.4659 96.6487 18.7689 96.2926 17.8523C95.9403 16.9356 95.8703 15.8182 96.0824 14.5C96.2945 13.2273 96.7131 12.161 97.3381 11.3011C97.9631 10.4413 98.7225 9.79356 99.6165 9.35795C100.51 8.92235 101.461 8.70455 102.469 8.70455C103.23 8.70455 103.912 8.80492 104.514 9.00568C105.12 9.20644 105.63 9.5 106.043 9.88636C106.459 10.2689 106.766 10.7405 106.963 11.3011C107.16 11.8617 107.23 12.5038 107.173 13.2273ZM111.618 20.6591C110.686 20.6591 109.913 20.4811 109.3 20.125C108.686 19.7652 108.254 19.25 108.004 18.5795C107.754 17.9053 107.709 17.0985 107.868 16.1591C108.019 15.2576 108.332 14.4697 108.805 13.7955C109.283 13.1212 109.883 12.5966 110.607 12.2216C111.334 11.8466 112.148 11.6591 113.05 11.6591C113.709 11.6591 114.286 11.7614 114.783 11.9659C115.283 12.1705 115.69 12.4678 116.004 12.858C116.319 13.2481 116.531 13.7197 116.641 14.2727C116.754 14.822 116.754 15.4432 116.641 16.1364L116.527 16.8636H108.732L109.004 15.1364H113.913C113.951 14.8864 113.927 14.6667 113.839 14.4773C113.756 14.2841 113.622 14.1345 113.436 14.0284C113.254 13.9186 113.035 13.8636 112.777 13.8636C112.519 13.8636 112.277 13.9186 112.05 14.0284C111.826 14.1383 111.635 14.2917 111.476 14.4886C111.321 14.6856 111.216 14.9167 111.163 15.1818L110.822 17C110.777 17.2803 110.794 17.5303 110.874 17.75C110.953 17.9697 111.091 18.142 111.288 18.267C111.485 18.392 111.739 18.4545 112.05 18.4545C112.262 18.4545 112.463 18.4261 112.652 18.3693C112.845 18.3087 113.016 18.2216 113.163 18.108C113.315 17.9905 113.436 17.8485 113.527 17.6818H116.391C116.186 18.2879 115.862 18.8144 115.419 19.2614C114.98 19.7045 114.438 20.0492 113.794 20.2955C113.154 20.5379 112.429 20.6591 111.618 20.6591ZM121.17 15.5909L120.352 20.5H117.216L118.67 11.7727H121.648L121.375 13.4318H121.466C121.742 12.875 122.146 12.4413 122.676 12.1307C123.21 11.8163 123.799 11.6591 124.443 11.6591C125.061 11.6591 125.574 11.7992 125.983 12.0795C126.392 12.3598 126.682 12.7462 126.852 13.2386C127.023 13.7311 127.053 14.2955 126.943 14.9318L126.011 20.5H122.875L123.693 15.5909C123.765 15.1591 123.712 14.8201 123.534 14.5739C123.36 14.3277 123.072 14.2045 122.67 14.2045C122.417 14.2045 122.184 14.2614 121.972 14.375C121.763 14.4848 121.589 14.6439 121.449 14.8523C121.313 15.0568 121.22 15.303 121.17 15.5909ZM134.196 11.7727L133.81 14.0455H128.06L128.446 11.7727H134.196ZM129.901 9.68182H133.037L131.707 17.6932C131.688 17.8144 131.692 17.9167 131.719 18C131.745 18.0795 131.798 18.1402 131.878 18.1818C131.961 18.2197 132.071 18.2386 132.207 18.2386C132.298 18.2386 132.41 18.2273 132.543 18.2045C132.675 18.178 132.776 18.1591 132.844 18.1477L132.935 20.3523C132.776 20.3977 132.562 20.4489 132.293 20.5057C132.027 20.5663 131.719 20.6061 131.366 20.625C130.632 20.6591 130.033 20.5814 129.571 20.392C129.113 20.2027 128.795 19.9072 128.616 19.5057C128.442 19.1004 128.412 18.5947 128.526 17.9886L129.901 9.68182ZM138.087 20.6591C137.155 20.6591 136.382 20.4811 135.768 20.125C135.155 19.7652 134.723 19.25 134.473 18.5795C134.223 17.9053 134.178 17.0985 134.337 16.1591C134.488 15.2576 134.801 14.4697 135.274 13.7955C135.751 13.1212 136.352 12.5966 137.075 12.2216C137.803 11.8466 138.617 11.6591 139.518 11.6591C140.178 11.6591 140.755 11.7614 141.251 11.9659C141.751 12.1705 142.159 12.4678 142.473 12.858C142.787 13.2481 143 13.7197 143.109 14.2727C143.223 14.822 143.223 15.4432 143.109 16.1364L142.996 16.8636H135.2L135.473 15.1364H140.382C140.42 14.8864 140.395 14.6667 140.308 14.4773C140.225 14.2841 140.09 14.1345 139.905 14.0284C139.723 13.9186 139.503 13.8636 139.246 13.8636C138.988 13.8636 138.746 13.9186 138.518 14.0284C138.295 14.1383 138.104 14.2917 137.945 14.4886C137.789 14.6856 137.685 14.9167 137.632 15.1818L137.291 17C137.246 17.2803 137.263 17.5303 137.342 17.75C137.422 17.9697 137.56 18.142 137.757 18.267C137.954 18.392 138.208 18.4545 138.518 18.4545C138.731 18.4545 138.931 18.4261 139.121 18.3693C139.314 18.3087 139.484 18.2216 139.632 18.108C139.784 17.9905 139.905 17.8485 139.996 17.6818H142.859C142.655 18.2879 142.331 18.8144 141.888 19.2614C141.448 19.7045 140.907 20.0492 140.263 20.2955C139.623 20.5379 138.897 20.6591 138.087 20.6591ZM143.662 20.5L145.116 11.7727H148.162L147.889 13.4318H147.98C148.241 12.8182 148.569 12.3693 148.963 12.0852C149.357 11.8011 149.787 11.6591 150.253 11.6591C150.389 11.6591 150.52 11.6705 150.645 11.6932C150.774 11.7121 150.901 11.7386 151.026 11.7727L150.571 14.4545C150.423 14.3977 150.24 14.358 150.02 14.3352C149.8 14.3087 149.605 14.2955 149.435 14.2955C149.132 14.2955 148.848 14.3655 148.582 14.5057C148.321 14.642 148.098 14.8352 147.912 15.0852C147.73 15.3314 147.609 15.6212 147.548 15.9545L146.798 20.5H143.662Z" fill="#EDEDED"/>
<path d="M57.375 12.7045L55.3807 12.8551L55.5203 14.7045H57.375V12.7045ZM57.25 12.1761L55.4187 12.9801L55.4224 12.9885L55.4262 12.9969L57.25 12.1761ZM56.9602 11.7841L55.64 13.2864L55.653 13.2979L55.6663 13.3091L56.9602 11.7841ZM56.4943 11.5398L55.8978 13.4487L55.9212 13.4561L55.9449 13.4628L56.4943 11.5398ZM54.4034 11.8352L55.4102 13.5633L55.4102 13.5633L54.4034 11.8352ZM53.3068 12.9318L51.6063 11.8791L51.6003 11.8889L53.3068 12.9318ZM52.7045 14.6591L54.6773 14.9879L54.6785 14.9807L52.7045 14.6591ZM52.6761 16.4091L50.7132 16.7925L50.7132 16.7925L52.6761 16.4091ZM53.2898 17.5227L52.0223 19.0698L52.0314 19.0772L53.2898 17.5227ZM56.6818 17.1023L55.138 15.8309L55.138 15.8309L56.6818 17.1023ZM57.0795 16.1932L57.2868 14.2039L55.3893 14.0063L55.1023 15.8923L57.0795 16.1932ZM57.625 16.25V18.25L57.8322 14.2608L57.625 16.25ZM54.9659 16.25L52.9915 15.9309L52.6167 18.25H54.9659V16.25ZM55.3295 14V12H53.6268L53.3552 13.6809L55.3295 14ZM60.4886 14L62.4629 14.3198L62.8386 12H60.4886V14ZM60.2273 15.6136L62.2008 15.9379L62.2015 15.9334L60.2273 15.6136ZM59.1023 18.3352L57.5129 17.1212L57.512 17.1224L59.1023 18.3352ZM56.9659 20.0625L57.8117 21.8749L57.8183 21.8718L56.9659 20.0625ZM51.3011 19.9375L50.2479 21.6377L50.2479 21.6377L51.3011 19.9375ZM49.6364 17.8807L47.7608 18.5751L47.7634 18.5821L49.6364 17.8807ZM49.4432 14.7045L47.47 14.3783L47.4694 14.3817L49.4432 14.7045ZM50.3068 12.1477L48.5665 11.1621L48.5627 11.1689L50.3068 12.1477ZM51.8466 10.267L53.1363 11.7956L53.1419 11.7909L51.8466 10.267ZM53.8523 9.10227L54.5256 10.9856L54.5342 10.9824L53.8523 9.10227ZM57.9943 9L57.3313 10.887L57.3427 10.8909L57.9943 9ZM59.4318 9.82955L58.09 11.3126L58.0978 11.3197L59.4318 9.82955ZM60.3239 11.0966L58.4689 11.8443L58.4739 11.8566L60.3239 11.0966ZM60.5682 12.7045V14.7045H62.4425L62.564 12.8341L60.5682 12.7045ZM57.375 12.7045L59.3693 12.554C59.3403 12.1692 59.2551 11.7582 59.0738 11.3554L57.25 12.1761L55.4262 12.9969C55.3813 12.8971 55.3794 12.8384 55.3807 12.8551L57.375 12.7045ZM57.25 12.1761L59.0813 11.3722C58.8954 10.9488 58.6188 10.5685 58.2542 10.2591L56.9602 11.7841L55.6663 13.3091C55.5516 13.2118 55.4682 13.0929 55.4187 12.9801L57.25 12.1761ZM56.9602 11.7841L58.2805 10.2818C57.8999 9.94735 57.4689 9.73818 57.0438 9.61672L56.4943 11.5398L55.9449 13.4628C55.891 13.4474 55.7705 13.4011 55.64 13.2864L56.9602 11.7841ZM56.4943 11.5398L57.0909 9.63081C56.669 9.49898 56.2449 9.45455 55.8523 9.45455V11.4545V13.4545C55.8993 13.4545 55.9256 13.4573 55.9343 13.4585C55.9429 13.4596 55.9289 13.4585 55.8978 13.4487L56.4943 11.5398ZM55.8523 11.4545V9.45455C54.9873 9.45455 54.154 9.66589 53.3966 10.1071L54.4034 11.8352L55.4102 13.5633C55.5241 13.497 55.6566 13.4545 55.8523 13.4545V11.4545ZM54.4034 11.8352L53.3966 10.1071C52.647 10.5439 52.0543 11.1554 51.6063 11.8791L53.3068 12.9318L55.0073 13.9845C55.1503 13.7537 55.2886 13.6342 55.4102 13.5633L54.4034 11.8352ZM53.3068 12.9318L51.6003 11.8889C51.1473 12.6301 50.8731 13.4627 50.7306 14.3375L52.7045 14.6591L54.6785 14.9807C54.7557 14.507 54.883 14.1881 55.0134 13.9747L53.3068 12.9318ZM52.7045 14.6591L50.7318 14.3303C50.5933 15.161 50.5583 15.9993 50.7132 16.7925L52.6761 16.4091L54.639 16.0257C54.6046 15.8491 54.5885 15.5208 54.6773 14.9879L52.7045 14.6591ZM52.6761 16.4091L50.7132 16.7925C50.8772 17.6322 51.2746 18.4573 52.0223 19.0698L53.2898 17.5227L54.5573 15.9756C54.5793 15.9937 54.5996 16.014 54.6171 16.0352C54.6344 16.0562 54.6458 16.0742 54.6522 16.0859C54.6652 16.1094 54.653 16.0973 54.639 16.0257L52.6761 16.4091ZM53.2898 17.5227L52.0314 19.0772C52.8063 19.7045 53.7286 19.9091 54.5795 19.9091V17.9091V15.9091C54.4643 15.9091 54.4197 15.8951 54.4248 15.8966C54.4282 15.8976 54.4436 15.9026 54.4671 15.9148C54.491 15.9271 54.5191 15.9447 54.5482 15.9682L53.2898 17.5227ZM54.5795 17.9091V19.9091C55.25 19.9091 55.9315 19.813 56.5746 19.5572L55.8352 17.6989L55.0959 15.8405C55.0344 15.865 54.8787 15.9091 54.5795 15.9091V17.9091ZM55.8352 17.6989L56.5746 19.5572C57.1969 19.3096 57.7714 18.9253 58.2257 18.3737L56.6818 17.1023L55.138 15.8309C55.1432 15.8245 55.1483 15.8192 55.1528 15.8151C55.1572 15.811 55.1596 15.8093 55.159 15.8098C55.1581 15.8104 55.1403 15.8229 55.0959 15.8405L55.8352 17.6989ZM56.6818 17.1023L58.2257 18.3737C58.6803 17.8217 58.9527 17.1783 59.0568 16.4941L57.0795 16.1932L55.1023 15.8923C55.1003 15.9053 55.0999 15.8987 55.108 15.8802C55.1164 15.861 55.1277 15.8433 55.138 15.8309L56.6818 17.1023ZM57.0795 16.1932L56.8723 18.1824L57.4178 18.2392L57.625 16.25L57.8322 14.2608L57.2868 14.2039L57.0795 16.1932ZM57.625 16.25V14.25H54.9659V16.25V18.25H57.625V16.25ZM54.9659 16.25L56.9403 16.5691L57.3039 14.3191L55.3295 14L53.3552 13.6809L52.9915 15.9309L54.9659 16.25ZM55.3295 14V16H60.4886V14V12H55.3295V14ZM60.4886 14L58.5144 13.6802L58.253 15.2939L60.2273 15.6136L62.2015 15.9334L62.4629 14.3198L60.4886 14ZM60.2273 15.6136L58.2537 15.2894C58.1255 16.07 57.8644 16.661 57.5129 17.1212L59.1023 18.3352L60.6917 19.5492C61.4917 18.5019 61.9806 17.2785 62.2008 15.9379L60.2273 15.6136ZM59.1023 18.3352L57.512 17.1224C57.1343 17.6176 56.6752 17.9886 56.1135 18.2532L56.9659 20.0625L57.8183 21.8718C58.9612 21.3333 59.9263 20.5529 60.6926 19.548L59.1023 18.3352ZM56.9659 20.0625L56.1201 18.2501C55.5542 18.5142 54.9105 18.6591 54.1591 18.6591V20.6591V22.6591C55.4455 22.6591 56.673 22.4062 57.8117 21.8749L56.9659 20.0625ZM54.1591 20.6591V18.6591C53.3149 18.6591 52.7476 18.4809 52.3544 18.2373L51.3011 19.9375L50.2479 21.6377C51.4077 22.3562 52.7457 22.6591 54.1591 22.6591V20.6591ZM51.3011 19.9375L52.3544 18.2373C51.9702 17.9993 51.6943 17.6731 51.5093 17.1793L49.6364 17.8807L47.7634 18.5821C48.2451 19.8686 49.079 20.9136 50.2479 21.6377L51.3011 19.9375ZM49.6364 17.8807L51.512 17.1863C51.3344 16.7066 51.2553 16.0158 51.4169 15.0274L49.4432 14.7045L47.4694 14.3817C47.2296 15.8478 47.2793 17.2745 47.7608 18.5751L49.6364 17.8807ZM49.4432 14.7045L51.4164 15.0308C51.543 14.265 51.7632 13.6393 52.0509 13.1266L50.3068 12.1477L48.5627 11.1689C48.0171 12.141 47.6615 13.2198 47.47 14.3783L49.4432 14.7045ZM50.3068 12.1477L52.0471 13.1333C52.3597 12.5814 52.7248 12.1429 53.1363 11.7956L51.8466 10.267L50.5568 8.73846C49.7563 9.41394 49.0949 10.2292 48.5665 11.1621L50.3068 12.1477ZM51.8466 10.267L53.1419 11.7909C53.5686 11.4282 54.0274 11.1636 54.5256 10.9855L53.8523 9.10227L53.179 7.21901C52.215 7.56365 51.3367 8.07557 50.5513 8.74317L51.8466 10.267ZM53.8523 9.10227L54.5342 10.9824C55.0448 10.7972 55.5715 10.7045 56.125 10.7045V8.70455V6.70455C55.1103 6.70455 54.1219 6.87701 53.1704 7.22212L53.8523 9.10227ZM56.125 8.70455V10.7045C56.6189 10.7045 57.0137 10.7753 57.3313 10.8869L57.9943 9L58.6573 7.11308C57.8537 6.83073 57.0023 6.70455 56.125 6.70455V8.70455ZM57.9943 9L57.3427 10.8909C57.6751 11.0054 57.9126 11.1522 58.09 11.3126L59.4318 9.82955L60.7736 8.34647C60.1555 7.78724 59.4347 7.38094 58.6459 7.10912L57.9943 9ZM59.4318 9.82955L58.0978 11.3197C58.2705 11.4742 58.388 11.6437 58.4689 11.8443L60.3239 11.0966L62.1788 10.3489C61.8658 9.57225 61.3886 8.89699 60.7658 8.33943L59.4318 9.82955ZM60.3239 11.0966L58.4739 11.8566C58.5471 12.0348 58.5927 12.2626 58.5724 12.5749L60.5682 12.7045L62.564 12.8341C62.6195 11.9798 62.5021 11.1356 62.1738 10.3365L60.3239 11.0966ZM60.5682 12.7045V10.7045H57.375V12.7045V14.7045H60.5682V12.7045ZM61.9105 20.3636L61.0581 22.1729L61.0685 22.1778L61.079 22.1826L61.9105 20.3636ZM61.0469 19.5227L59.2368 20.3734L59.242 20.3844L59.2472 20.3953L61.0469 19.5227ZM60.9276 18.0909L62.8989 18.4281L62.9003 18.4197L60.9276 18.0909ZM61.3764 16.8693L63.052 17.9613L63.052 17.9613L61.3764 16.8693ZM62.1946 16.0398L63.2995 17.7068L63.2995 17.7068L62.1946 16.0398ZM63.2912 15.5455L63.8311 17.4712L63.843 17.4678L63.2912 15.5455ZM64.5866 15.3182L64.7362 17.3126L64.74 17.3123L64.5866 15.3182ZM65.7855 15.1761L65.4213 13.2096L65.4213 13.2096L65.7855 15.1761ZM66.473 14.9432L65.383 13.2663L65.383 13.2663L66.473 14.9432ZM66.7457 14.5455L68.7135 14.9032L68.7457 14.7258V14.5455H66.7457ZM66.7457 14.5227L64.7679 14.226L64.7457 14.3736V14.5227H66.7457ZM66.5639 14L65.3145 15.5617L65.3239 15.5692L65.3334 15.5766L66.5639 14ZM65.1605 14.0114L64.136 12.2937L64.1292 12.2977L64.1226 12.3018L65.1605 14.0114ZM64.723 14.6136V16.6136H66.223L66.643 15.1736L64.723 14.6136ZM61.8366 14.6136L59.8869 14.168L59.3279 16.6136H61.8366V14.6136ZM62.581 13.1477L61.0498 11.861L61.0488 11.8623L62.581 13.1477ZM64.0866 12.0682L64.8772 13.9053L64.8825 13.903L64.0866 12.0682ZM67.973 11.8807L67.373 13.7885L67.38 13.7908L67.387 13.7929L67.973 11.8807ZM69.1378 12.4886L67.8409 14.0111L67.8509 14.0197L67.8611 14.0282L69.1378 12.4886ZM69.7912 13.3977L67.9086 14.073L67.9131 14.0854L67.9177 14.0977L69.7912 13.3977ZM69.8821 14.5227L67.9098 14.1909L67.9095 14.1927L69.8821 14.5227ZM68.8821 20.5V22.5H70.5753L70.8547 20.83L68.8821 20.5ZM65.9503 20.5L63.9775 20.1712L63.5894 22.5H65.9503V20.5ZM66.1548 19.2727L68.1276 19.6015L68.5158 17.2727H66.1548V19.2727ZM66.0866 19.2727V17.2727H65.0433L64.4464 18.1284L66.0866 19.2727ZM65.3196 20.0625L64.1654 18.4291L64.155 18.4365L65.3196 20.0625ZM64.3991 20.5L63.8729 18.5705L63.8673 18.572L64.3991 20.5ZM65.3935 18.5114L66.1887 20.3465L66.1887 20.3465L65.3935 18.5114ZM65.9787 18.0852L67.4819 19.4044L67.4819 19.4044L65.9787 18.0852ZM66.2912 17.4091L68.2624 17.747L68.2649 17.7324L68.2672 17.7178L66.2912 17.4091ZM66.4048 16.6818L68.3809 16.9906L68.928 13.4887L65.6476 14.8307L66.4048 16.6818ZM66.1264 16.7784L66.6464 18.7096L66.6706 18.7031L66.6946 18.696L66.1264 16.7784ZM65.8139 16.858L65.3446 14.9138L65.3367 14.9157L65.3288 14.9177L65.8139 16.858ZM65.473 16.9318L65.1044 14.966L65.093 14.9683L65.473 16.9318ZM65.1094 17L65.409 18.9774L65.4381 18.973L65.4671 18.9677L65.1094 17ZM64.4787 17.1875L65.3571 18.9843L65.3731 18.9765L65.3889 18.9684L64.4787 17.1875ZM64.081 17.5L65.657 18.7313L65.6662 18.7196L65.6752 18.7077L64.081 17.5ZM63.9048 17.9091L61.9269 17.6124L61.9249 17.6262L63.9048 17.9091ZM64.0696 18.4659L62.7147 19.937L62.7347 19.9555L62.7553 19.9735L64.0696 18.4659ZM63.3366 20.6364V18.6364C62.9971 18.6364 62.8193 18.58 62.742 18.5447L61.9105 20.3636L61.079 22.1826C61.7971 22.5109 62.5701 22.6364 63.3366 22.6364V20.6364ZM61.9105 20.3636L62.7629 18.5544C62.7497 18.5482 62.7667 18.5543 62.7944 18.5813C62.8072 18.5938 62.8189 18.6074 62.8287 18.6211C62.8384 18.6346 62.844 18.6451 62.8465 18.6502L61.0469 19.5227L59.2472 20.3953C59.6379 21.2011 60.2707 21.8019 61.0581 22.1729L61.9105 20.3636ZM61.0469 19.5227L62.8569 18.672C62.8827 18.7268 62.8795 18.7497 62.8766 18.7146C62.8734 18.676 62.8721 18.5847 62.8989 18.4281L60.9276 18.0909L58.9562 17.7537C58.8152 18.5781 58.8283 19.5042 59.2368 20.3734L61.0469 19.5227ZM60.9276 18.0909L62.9003 18.4197C62.9435 18.1606 63.0102 18.0254 63.052 17.9613L61.3764 16.8693L59.7008 15.7774C59.3032 16.3875 59.0707 17.0667 58.9548 17.7621L60.9276 18.0909ZM61.3764 16.8693L63.052 17.9613C63.1272 17.8459 63.208 17.7675 63.2995 17.7068L62.1946 16.0398L61.0897 14.3727C60.5297 14.7439 60.065 15.2185 59.7008 15.7774L61.3764 16.8693ZM62.1946 16.0398L63.2995 17.7068C63.4387 17.6146 63.611 17.5329 63.8311 17.4712L63.2912 15.5455L62.7513 13.6197C62.1608 13.7853 61.602 14.0331 61.0897 14.3727L62.1946 16.0398ZM63.2912 15.5455L63.843 17.4678C64.1119 17.3906 64.4083 17.3372 64.7362 17.3126L64.5866 15.3182L64.4371 13.3238C63.8559 13.3674 63.2887 13.4654 62.7394 13.6231L63.2912 15.5455ZM64.5866 15.3182L64.74 17.3123C65.2676 17.2717 65.7452 17.2176 66.1497 17.1427L65.7855 15.1761L65.4213 13.2096C65.2122 13.2483 64.8906 13.2889 64.4333 13.3241L64.5866 15.3182ZM65.7855 15.1761L66.1497 17.1427C66.5545 17.0677 67.0862 16.93 67.563 16.6201L66.473 14.9432L65.383 13.2663C65.4366 13.2315 65.4794 13.2099 65.505 13.198C65.5308 13.186 65.5456 13.1811 65.5457 13.1811C65.546 13.181 65.5362 13.1843 65.5144 13.1897C65.4927 13.1952 65.4621 13.202 65.4213 13.2096L65.7855 15.1761ZM66.473 14.9432L67.563 16.6201C68.1417 16.2439 68.5775 15.6509 68.7135 14.9032L66.7457 14.5455L64.778 14.1877C64.8105 14.0089 64.8829 13.8174 65.0054 13.6388C65.1261 13.4628 65.2655 13.3427 65.383 13.2663L66.473 14.9432ZM66.7457 14.5455H68.7457V14.5227H66.7457H64.7457V14.5455H66.7457ZM66.7457 14.5227L68.7236 14.8194C68.8434 14.0208 68.6235 13.0704 67.7945 12.4234L66.5639 14L65.3334 15.5766C65.1292 15.4173 64.9417 15.18 64.8369 14.8786C64.7377 14.5936 64.7484 14.3555 64.7679 14.226L66.7457 14.5227ZM66.5639 14L67.8133 12.4383C67.1879 11.9379 66.4735 11.8182 65.9276 11.8182V13.8182V15.8182C65.927 15.8182 65.6369 15.8197 65.3145 15.5617L66.5639 14ZM65.9276 13.8182V11.8182C65.3352 11.8182 64.7123 11.95 64.136 12.2937L65.1605 14.0114L66.1851 15.729C66.1181 15.769 66.0541 15.793 66.0027 15.8059C65.9529 15.8184 65.925 15.8182 65.9276 15.8182V13.8182ZM65.1605 14.0114L64.1226 12.3018C63.4211 12.7277 63.0008 13.3754 62.803 14.0536L64.723 14.6136L66.643 15.1736C66.6275 15.2267 66.5906 15.3232 66.5102 15.434C66.4271 15.5484 66.3193 15.6476 66.1985 15.7209L65.1605 14.0114ZM64.723 14.6136V12.6136H61.8366V14.6136V16.6136H64.723V14.6136ZM61.8366 14.6136L63.7864 15.0593C63.8319 14.8602 63.9268 14.6553 64.1131 14.4332L62.581 13.1477L61.0488 11.8623C60.4852 12.5341 60.0839 13.3064 59.8869 14.168L61.8366 14.6136ZM62.581 13.1477L64.1121 14.4344C64.2612 14.257 64.4939 14.0702 64.8772 13.9053L64.0866 12.0682L63.2961 10.231C62.4294 10.604 61.6583 11.137 61.0498 11.861L62.581 13.1477ZM64.0866 12.0682L64.8825 13.903C65.2019 13.7645 65.6677 13.6591 66.3366 13.6591V11.6591V9.65909C65.2631 9.65909 64.229 9.82643 63.2908 10.2333L64.0866 12.0682ZM66.3366 11.6591V13.6591C66.805 13.6591 67.1405 13.7154 67.373 13.7885L67.973 11.8807L68.5731 9.97282C67.8661 9.75048 67.1107 9.65909 66.3366 9.65909V11.6591ZM67.973 11.8807L67.387 13.7929C67.6514 13.8739 67.7821 13.9611 67.8409 14.0111L69.1378 12.4886L70.4347 10.9661C69.8798 10.4934 69.234 10.1753 68.559 9.96846L67.973 11.8807ZM69.1378 12.4886L67.8611 14.0282C67.8958 14.0569 67.9083 14.0739 67.9101 14.0764C67.9112 14.078 67.911 14.0778 67.9101 14.0762C67.9097 14.0755 67.9094 14.0747 67.9091 14.0741C67.9088 14.0734 67.9086 14.073 67.9086 14.073L69.7912 13.3977L71.6737 12.7225C71.4171 12.0069 70.9752 11.4141 70.4145 10.9491L69.1378 12.4886ZM69.7912 13.3977L67.9177 14.0977C67.9159 14.093 67.9164 14.0912 67.917 14.0986C67.9177 14.1072 67.919 14.1362 67.9098 14.1909L69.8821 14.5227L71.8544 14.8545C71.9739 14.144 71.9304 13.409 71.6647 12.6977L69.7912 13.3977ZM69.8821 14.5227L67.9095 14.1927L66.9095 20.17L68.8821 20.5L70.8547 20.83L71.8547 14.8527L69.8821 14.5227ZM68.8821 20.5V18.5H65.9503V20.5V22.5H68.8821V20.5ZM65.9503 20.5L67.9231 20.8288L68.1276 19.6015L66.1548 19.2727L64.182 18.9439L63.9775 20.1712L65.9503 20.5ZM66.1548 19.2727V17.2727H66.0866V19.2727V21.2727H66.1548V19.2727ZM66.0866 19.2727L64.4464 18.1284C64.3331 18.2908 64.2356 18.3795 64.1654 18.4292L65.3196 20.0625L66.4738 21.6958C66.9718 21.3439 67.3857 20.9062 67.7269 20.4171L66.0866 19.2727ZM65.3196 20.0625L64.155 18.4365C64.0682 18.4987 63.9776 18.5419 63.8729 18.5705L64.3991 20.5L64.9254 22.4295C65.4873 22.2763 66.0104 22.0278 66.4842 21.6885L65.3196 20.0625ZM64.3991 20.5L63.8673 18.572C63.7285 18.6103 63.5549 18.6364 63.3366 18.6364V20.6364V22.6364C63.876 22.6364 64.4107 22.5715 64.931 22.428L64.3991 20.5ZM64.7003 18.6591V20.6591C65.2235 20.6591 65.7244 20.5477 66.1887 20.3465L65.3935 18.5114L64.5983 16.6763C64.6005 16.6753 64.6124 16.6704 64.6328 16.6661C64.6535 16.6617 64.6768 16.6591 64.7003 16.6591V18.6591ZM65.3935 18.5114L66.1887 20.3465C66.6863 20.1308 67.1235 19.8129 67.4819 19.4044L65.9787 18.0852L64.4754 16.766C64.4891 16.7505 64.5084 16.732 64.533 16.7142C64.5575 16.6963 64.5805 16.684 64.5983 16.6763L65.3935 18.5114ZM65.9787 18.0852L67.4819 19.4044C67.91 18.9166 68.1604 18.3425 68.2624 17.747L66.2912 17.4091L64.3199 17.0712C64.3244 17.0449 64.336 16.9974 64.3635 16.9379C64.3915 16.8774 64.4296 16.8183 64.4754 16.766L65.9787 18.0852ZM66.2912 17.4091L68.2672 17.7178L68.3809 16.9906L66.4048 16.6818L64.4288 16.3731L64.3152 17.1003L66.2912 17.4091ZM66.4048 16.6818L65.6476 14.8307C65.6361 14.8354 65.6077 14.8461 65.5582 14.8608L66.1264 16.7784L66.6946 18.696C66.8497 18.6501 67.0068 18.5964 67.1621 18.5329L66.4048 16.6818ZM66.1264 16.7784L65.6065 14.8472C65.5265 14.8687 65.4393 14.8909 65.3446 14.9138L65.8139 16.858L66.2832 18.8021C66.4082 18.7719 66.5294 18.7411 66.6464 18.7096L66.1264 16.7784ZM65.8139 16.858L65.3288 14.9177C65.2659 14.9334 65.1914 14.9498 65.1044 14.9661L65.473 16.9318L65.8416 18.8976C65.997 18.8684 66.1499 18.8355 66.299 18.7982L65.8139 16.858ZM65.473 16.9318L65.093 14.9683C64.9834 14.9895 64.8696 15.0108 64.7516 15.0323L65.1094 17L65.4671 18.9677C65.5991 18.9437 65.7278 18.9196 65.8531 18.8954L65.473 16.9318ZM65.1094 17L64.8098 15.0226C64.4111 15.083 63.9808 15.1959 63.5685 15.4066L64.4787 17.1875L65.3889 18.9684C65.3695 18.9783 65.3547 18.9846 65.3456 18.9882C65.3365 18.9918 65.3324 18.9929 65.3341 18.9924C65.3359 18.9918 65.3428 18.9899 65.3555 18.9871C65.3682 18.9843 65.3859 18.9809 65.409 18.9774L65.1094 17ZM64.4787 17.1875L63.6003 15.3907C63.2067 15.5831 62.8063 15.8705 62.4868 16.2923L64.081 17.5L65.6752 18.7077C65.545 18.8795 65.4097 18.9585 65.3571 18.9843L64.4787 17.1875ZM64.081 17.5L62.5049 16.2687C62.1988 16.6605 62.001 17.1185 61.927 17.6124L63.9048 17.9091L65.8827 18.2058C65.8541 18.3966 65.7737 18.5819 65.657 18.7313L64.081 17.5ZM63.9048 17.9091L61.9249 17.6262C61.8222 18.3456 61.9717 19.2527 62.7147 19.937L64.0696 18.4659L65.4246 16.9948C65.6153 17.1705 65.762 17.4021 65.8382 17.6598C65.9098 17.9016 65.8986 18.0946 65.8847 18.1919L63.9048 17.9091ZM64.0696 18.4659L62.7553 19.9735C63.388 20.525 64.133 20.6591 64.7003 20.6591V18.6591V16.6591C64.7221 16.6591 65.0467 16.6644 65.3839 16.9584L64.0696 18.4659ZM70.4034 20.5L68.4306 20.1712L68.0425 22.5H70.4034V20.5ZM71.858 11.7727V9.77273H70.1637L69.8852 11.4439L71.858 11.7727ZM74.8352 11.7727L76.8087 12.0971L77.1908 9.77273H74.8352V11.7727ZM74.5625 13.4318L72.589 13.1074L72.2069 15.4318H74.5625V13.4318ZM74.6534 13.4318V15.4318H75.8972L76.4472 14.3163L74.6534 13.4318ZM75.7955 12.1364L74.71 10.4565L74.71 10.4565L75.7955 12.1364ZM78.9489 12.1477L77.667 13.683L77.6759 13.6903L78.9489 12.1477ZM79.5398 13.4318L77.5398 13.446L77.5539 15.4318H79.5398V13.4318ZM79.6307 13.4318V15.4318H80.9361L81.4615 14.2369L79.6307 13.4318ZM80.7841 12.1477L81.8167 13.8606L81.8255 13.8552L80.7841 12.1477ZM84.4545 12.4659L82.8949 13.718L82.9003 13.7246L84.4545 12.4659ZM84.8807 14.6136L82.9088 14.2794L82.9077 14.2861L84.8807 14.6136ZM83.9034 20.5V22.5H85.5987L85.8764 20.8276L83.9034 20.5ZM80.767 20.5L78.7952 20.1655L78.3992 22.5H80.767V20.5ZM81.6307 15.4091L83.6025 15.7436L83.6076 15.7137L83.6117 15.6837L81.6307 15.4091ZM81.4716 14.5114L79.8517 15.6844L79.8566 15.6911L79.8615 15.6978L81.4716 14.5114ZM79.9261 14.5114L81.328 15.9378L81.3282 15.9376L79.9261 14.5114ZM79.517 15.4091L81.4889 15.7436L81.4939 15.7137L81.4981 15.6837L79.517 15.4091ZM78.6534 20.5V22.5H80.3427L80.6252 20.8345L78.6534 20.5ZM75.6534 20.5L73.6816 20.1655L73.2855 22.5H75.6534V20.5ZM76.517 15.4091L78.4889 15.7436L78.4939 15.7137L78.4981 15.6837L76.517 15.4091ZM76.358 14.5114L74.7381 15.6844L74.7429 15.6911L74.7478 15.6978L76.358 14.5114ZM75.0511 14.3295L74.067 12.5884L74.0588 12.5931L74.0506 12.5978L75.0511 14.3295ZM74.625 14.7557L72.9193 13.7114L72.9132 13.7215L74.625 14.7557ZM74.4034 15.4091L76.3752 15.7436L76.3786 15.724L76.3815 15.7043L74.4034 15.4091ZM73.5398 20.5V22.5H75.2291L75.5116 20.8345L73.5398 20.5ZM70.4034 20.5L72.3762 20.8288L73.8307 12.1015L71.858 11.7727L69.8852 11.4439L68.4306 20.1712L70.4034 20.5ZM71.858 11.7727V13.7727H74.8352V11.7727V9.77273H71.858V11.7727ZM74.8352 11.7727L72.8617 11.4483L72.589 13.1074L74.5625 13.4318L76.536 13.7562L76.8087 12.0971L74.8352 11.7727ZM74.5625 13.4318V15.4318H74.6534V13.4318V11.4318H74.5625V13.4318ZM74.6534 13.4318L76.4472 14.3163C76.5625 14.0824 76.7038 13.9306 76.8809 13.8162L75.7955 12.1364L74.71 10.4565C73.9023 10.9785 73.2822 11.6903 72.8596 12.5474L74.6534 13.4318ZM75.7955 12.1364L76.8809 13.8162C77.0364 13.7157 77.2078 13.6591 77.4489 13.6591V11.6591V9.65909C76.4702 9.65909 75.5393 9.92067 74.71 10.4565L75.7955 12.1364ZM77.4489 11.6591V13.6591C77.5763 13.6591 77.6408 13.6761 77.6618 13.6829C77.6782 13.6882 77.6742 13.6889 77.667 13.6829L78.9489 12.1477L80.2307 10.6125C79.4125 9.92932 78.4296 9.65909 77.4489 9.65909V11.6591ZM78.9489 12.1477L77.6759 13.6903C77.6562 13.6741 77.6088 13.6255 77.5723 13.5463C77.5373 13.4701 77.5397 13.4249 77.5398 13.446L79.5398 13.4318L81.5397 13.4176C81.532 12.3295 81.097 11.3274 80.2219 10.6052L78.9489 12.1477ZM79.5398 13.4318V15.4318H79.6307V13.4318V11.4318H79.5398V13.4318ZM79.6307 13.4318L81.4615 14.2369C81.5186 14.107 81.6102 13.985 81.8167 13.8606L80.7841 12.1477L79.7515 10.4349C78.8898 10.9544 78.2125 11.6884 77.7999 12.6268L79.6307 13.4318ZM80.7841 12.1477L81.8255 13.8552C82.0326 13.7289 82.2625 13.6591 82.5625 13.6591V11.6591V9.65909C81.5595 9.65909 80.6038 9.91505 79.7427 10.4403L80.7841 12.1477ZM82.5625 11.6591V13.6591C82.763 13.6591 82.8521 13.6915 82.8732 13.7005C82.8838 13.705 82.8857 13.7071 82.8839 13.7057C82.8821 13.7044 82.8858 13.7066 82.895 13.718L84.4545 12.4659L86.0141 11.2138C85.1249 10.1061 83.8621 9.65909 82.5625 9.65909V11.6591ZM84.4545 12.4659L82.9003 13.7246C82.9025 13.7273 82.9147 13.7382 82.926 13.7955C82.9398 13.8649 82.9534 14.0162 82.9088 14.2794L84.8807 14.6136L86.8526 14.9479C87.0685 13.6739 86.9098 12.3198 86.0088 11.2072L84.4545 12.4659ZM84.8807 14.6136L82.9077 14.2861L81.9304 20.1724L83.9034 20.5L85.8764 20.8276L86.8537 14.9412L84.8807 14.6136ZM83.9034 20.5V18.5H80.767V20.5V22.5H83.9034V20.5ZM80.767 20.5L82.7389 20.8345L83.6025 15.7436L81.6307 15.4091L79.6589 15.0746L78.7952 20.1655L80.767 20.5ZM81.6307 15.4091L83.6117 15.6837C83.7049 15.0119 83.664 14.1152 83.0817 13.325L81.4716 14.5114L79.8615 15.6978C79.5974 15.3393 79.6626 15.0412 79.6496 15.1345L81.6307 15.4091ZM81.4716 14.5114L83.0915 13.3383C82.4782 12.4915 81.5656 12.1818 80.7443 12.1818V14.1818V16.1818C80.6848 16.1818 80.5344 16.1717 80.345 16.0859C80.1432 15.9945 79.972 15.8505 79.8517 15.6844L81.4716 14.5114ZM80.7443 14.1818V12.1818C79.9139 12.1818 79.1329 12.4866 78.5241 13.0851L79.9261 14.5114L81.3282 15.9376C81.2646 16.0002 81.1694 16.0695 81.0455 16.1194C80.9227 16.1688 80.815 16.1818 80.7443 16.1818V14.1818ZM79.9261 14.5114L78.5243 13.0849C77.917 13.6817 77.634 14.4275 77.536 15.1345L79.517 15.4091L81.4981 15.6837C81.5026 15.6516 81.5037 15.673 81.479 15.7271C81.4525 15.7852 81.4044 15.8627 81.328 15.9378L79.9261 14.5114ZM79.517 15.4091L77.5452 15.0746L76.6816 20.1655L78.6534 20.5L80.6252 20.8345L81.4889 15.7436L79.517 15.4091ZM78.6534 20.5V18.5H75.6534V20.5V22.5H78.6534V20.5ZM75.6534 20.5L77.6252 20.8345L78.4889 15.7436L76.517 15.4091L74.5452 15.0746L73.6816 20.1655L75.6534 20.5ZM76.517 15.4091L78.4981 15.6837C78.5912 15.0119 78.5503 14.1152 77.9681 13.325L76.358 14.5114L74.7478 15.6978C74.4837 15.3393 74.5489 15.0412 74.536 15.1345L76.517 15.4091ZM76.358 14.5114L77.9778 13.3383C77.3646 12.4915 76.452 12.1818 75.6307 12.1818V14.1818V16.1818C75.5712 16.1818 75.4208 16.1717 75.2314 16.0859C75.0296 15.9945 74.8584 15.8505 74.7381 15.6844L76.358 14.5114ZM75.6307 14.1818V12.1818C75.0951 12.1818 74.5596 12.31 74.067 12.5884L75.0511 14.3295L76.0353 16.0707C75.8912 16.1521 75.7421 16.1818 75.6307 16.1818V14.1818ZM75.0511 14.3295L74.0506 12.5978C73.5619 12.8802 73.1883 13.272 72.9193 13.7114L74.625 14.7557L76.3307 15.8C76.289 15.8681 76.1995 15.9759 76.0517 16.0613L75.0511 14.3295ZM74.625 14.7557L72.9132 13.7215C72.6413 14.1714 72.4943 14.6517 72.4253 15.1139L74.4034 15.4091L76.3815 15.7043C76.3883 15.6589 76.389 15.7036 76.3368 15.7899L74.625 14.7557ZM74.4034 15.4091L72.4316 15.0746L71.5679 20.1655L73.5398 20.5L75.5116 20.8345L76.3752 15.7436L74.4034 15.4091ZM73.5398 20.5V18.5H70.4034V20.5V22.5H73.5398V20.5ZM87.2685 20.125L86.2567 21.8503L86.2647 21.8549L87.2685 20.125ZM85.973 18.5795L84.0978 19.2749L84.0991 19.2783L85.973 18.5795ZM85.8366 16.1591L87.8086 16.493L87.809 16.4906L85.8366 16.1591ZM86.7741 13.7955L85.1417 12.6399L85.1374 12.6461L86.7741 13.7955ZM88.5753 12.2216L87.6587 10.444L87.6549 10.4459L88.5753 12.2216ZM92.7514 11.9659L91.9892 13.815L91.9942 13.817L92.7514 11.9659ZM93.973 12.858L92.4157 14.1129L92.4157 14.1129L93.973 12.858ZM94.6094 14.2727L92.6477 14.6624L92.6492 14.6702L92.6509 14.6779L94.6094 14.2727ZM94.6094 16.1364L92.6357 15.8128L92.6345 15.8202L92.6334 15.8276L94.6094 16.1364ZM94.4957 16.8636V18.8636H96.2075L96.4718 17.1724L94.4957 16.8636ZM86.7003 16.8636L84.7248 16.5517L84.3597 18.8636H86.7003V16.8636ZM86.973 15.1364V13.1364H85.264L84.9975 14.8244L86.973 15.1364ZM91.8821 15.1364V17.1364H93.6019L93.8595 15.436L91.8821 15.1364ZM91.8082 14.4773L89.9718 15.2695L89.9813 15.2914L89.9913 15.3131L91.8082 14.4773ZM91.4048 14.0284L90.3706 15.7402L90.3914 15.7528L90.4126 15.7649L91.4048 14.0284ZM90.0185 14.0284L89.1481 12.2277L89.1362 12.2335L90.0185 14.0284ZM89.4446 14.4886L87.8887 13.232L87.8813 13.2411L87.8741 13.2503L89.4446 14.4886ZM89.1321 15.1818L87.1709 14.7896L87.1686 14.8014L87.1664 14.8132L89.1321 15.1818ZM88.7912 17L86.8254 16.6314L86.8209 16.6556L86.817 16.6799L88.7912 17ZM88.8423 17.75L90.7229 17.0691L90.7229 17.0691L88.8423 17.75ZM89.2571 18.267L90.3288 16.5784L90.3288 16.5784L89.2571 18.267ZM90.6207 18.3693L91.1954 20.285L91.2075 20.2814L91.2194 20.2776L90.6207 18.3693ZM91.1321 18.108L92.3515 19.6932L92.3572 19.6888L91.1321 18.108ZM91.4957 17.6818V15.6818H90.3085L89.7399 16.7241L91.4957 17.6818ZM94.3594 17.6818L96.2544 18.3214L97.1452 15.6818H94.3594V17.6818ZM93.3878 19.2614L91.9676 17.8532L91.9675 17.8532L93.3878 19.2614ZM91.7628 20.2955L92.4711 22.1658L92.4771 22.1636L91.7628 20.2955ZM89.5866 20.6591V18.6591C88.8999 18.6591 88.4998 18.5272 88.2722 18.3951L87.2685 20.125L86.2647 21.8549C87.2644 22.435 88.4097 22.6591 89.5866 22.6591V20.6591ZM87.2685 20.125L88.2802 18.3998C88.066 18.2742 87.9372 18.1228 87.847 17.8808L85.973 18.5795L84.0991 19.2783C84.5088 20.3772 85.2436 21.2561 86.2568 21.8502L87.2685 20.125ZM85.973 18.5795L87.8483 17.8842C87.7535 17.6286 87.6896 17.1956 87.8086 16.493L85.8366 16.1591L83.8647 15.8251C83.6655 17.0014 83.6925 18.182 84.0978 19.2749L85.973 18.5795ZM85.8366 16.1591L87.809 16.4906C87.9165 15.8508 88.1269 15.3492 88.4109 14.9448L86.7741 13.7955L85.1374 12.6461C84.4744 13.5901 84.0598 14.6644 83.8643 15.8276L85.8366 16.1591ZM86.7741 13.7955L88.4066 14.951C88.702 14.5336 89.0596 14.2232 89.4956 13.9972L88.5753 12.2216L87.6549 10.4459C86.644 10.9699 85.8008 11.7088 85.1417 12.6399L86.7741 13.7955ZM88.5753 12.2216L89.4919 13.9992C89.9078 13.7848 90.4028 13.6591 91.0185 13.6591V11.6591V9.65909C89.8311 9.65909 88.6974 9.90843 87.6587 10.444L88.5753 12.2216ZM91.0185 11.6591V13.6591C91.474 13.6591 91.7831 13.73 91.9892 13.815L92.7514 11.9659L93.5136 10.1168C92.7273 9.79273 91.8812 9.65909 91.0185 9.65909V11.6591ZM92.7514 11.9659L91.9942 13.817C92.2065 13.9039 92.3298 14.0062 92.4157 14.1129L93.973 12.858L95.5303 11.603C94.9875 10.9294 94.2963 10.437 93.5087 10.1148L92.7514 11.9659ZM93.973 12.858L92.4157 14.1129C92.5032 14.2214 92.5928 14.386 92.6477 14.6624L94.6094 14.2727L96.5711 13.8831C96.4063 13.0534 96.0716 12.2748 95.5303 11.603L93.973 12.858ZM94.6094 14.2727L92.6509 14.6779C92.7041 14.9352 92.7193 15.3027 92.6357 15.8128L94.6094 16.1364L96.583 16.4599C96.7267 15.5836 96.7419 14.7088 96.5679 13.8675L94.6094 14.2727ZM94.6094 16.1364L92.6334 15.8276L92.5197 16.5549L94.4957 16.8636L96.4718 17.1724L96.5854 16.4451L94.6094 16.1364ZM94.4957 16.8636V14.8636H86.7003V16.8636V18.8636H94.4957V16.8636ZM86.7003 16.8636L88.6758 17.1756L88.9485 15.4483L86.973 15.1364L84.9975 14.8244L84.7248 16.5517L86.7003 16.8636ZM86.973 15.1364V17.1364H91.8821V15.1364V13.1364H86.973V15.1364ZM91.8821 15.1364L93.8595 15.436C93.9433 14.883 93.9074 14.2548 93.6252 13.6415L91.8082 14.4773L89.9913 15.3131C89.8834 15.0785 89.8966 14.8898 89.9047 14.8368L91.8821 15.1364ZM91.8082 14.4773L93.6447 13.6851C93.3867 13.0872 92.9524 12.6093 92.3971 12.2919L91.4048 14.0284L90.4126 15.7649C90.3317 15.7187 90.2415 15.6507 90.1574 15.5571C90.073 15.4631 90.0121 15.363 89.9718 15.2695L91.8082 14.4773ZM91.4048 14.0284L92.4391 12.3166C91.8849 11.9817 91.2903 11.8636 90.7457 11.8636V13.8636V15.8636C90.7164 15.8636 90.5612 15.8554 90.3706 15.7402L91.4048 14.0284ZM90.7457 13.8636V11.8636C90.1931 11.8636 89.6525 11.984 89.1481 12.2277L90.0185 14.0284L90.8888 15.8291C90.8679 15.8392 90.8418 15.8488 90.8127 15.8554C90.7837 15.862 90.7602 15.8636 90.7457 15.8636V13.8636ZM90.0185 14.0284L89.1362 12.2335C88.6473 12.4739 88.2274 12.8126 87.8887 13.232L89.4446 14.4886L91.0005 15.7453C90.9926 15.755 90.9788 15.77 90.9587 15.7861C90.9385 15.8023 90.9181 15.8147 90.9007 15.8233L90.0185 14.0284ZM89.4446 14.4886L87.8741 13.2503C87.5088 13.7136 87.2808 14.2402 87.1709 14.7896L89.1321 15.1818L91.0933 15.574C91.0921 15.5796 91.0872 15.6007 91.0733 15.6316C91.0591 15.6631 91.0394 15.6961 91.0151 15.7269L89.4446 14.4886ZM89.1321 15.1818L87.1664 14.8132L86.8254 16.6314L88.7912 17L90.7569 17.3686L91.0978 15.5504L89.1321 15.1818ZM88.7912 17L86.817 16.6799C86.7287 17.2244 86.7438 17.8287 86.9618 18.4309L88.8423 17.75L90.7229 17.0691C90.7818 17.2319 90.7628 17.3362 90.7654 17.3201L88.7912 17ZM88.8423 17.75L86.9618 18.4309C87.1918 19.066 87.6141 19.5931 88.1855 19.9557L89.2571 18.267L90.3288 16.5784C90.4056 16.6271 90.4897 16.6978 90.5657 16.7926C90.6418 16.8873 90.6922 16.9844 90.7229 17.0691L88.8423 17.75ZM89.2571 18.267L88.1855 19.9557C88.7927 20.3411 89.4511 20.4545 90.0185 20.4545V18.4545V16.4545C89.9646 16.4545 90.1154 16.443 90.3288 16.5784L89.2571 18.267ZM90.0185 18.4545V20.4545C90.4111 20.4545 90.8065 20.4016 91.1954 20.285L90.6207 18.3693L90.046 16.4537C90.0501 16.4524 90.0512 16.4525 90.0479 16.453C90.0445 16.4534 90.0351 16.4545 90.0185 16.4545V18.4545ZM90.6207 18.3693L91.2194 20.2776C91.6175 20.1527 92.002 19.9621 92.3515 19.6932L91.1321 18.108L89.9127 16.5227C89.9667 16.4811 90.0103 16.4647 90.0221 16.461L90.6207 18.3693ZM91.1321 18.108L92.3572 19.6888C92.7245 19.4041 93.0273 19.0507 93.2515 18.6395L91.4957 17.6818L89.7399 16.7241C89.7824 16.6463 89.8427 16.5769 89.907 16.5271L91.1321 18.108ZM91.4957 17.6818V19.6818H94.3594V17.6818V15.6818H91.4957V17.6818ZM94.3594 17.6818L92.4644 17.0423C92.3558 17.3641 92.1924 17.6265 91.9676 17.8532L93.3878 19.2614L94.808 20.6695C95.4696 20.0023 95.9539 19.2116 96.2544 18.3214L94.3594 17.6818ZM93.3878 19.2614L91.9675 17.8532C91.7482 18.0745 91.4551 18.2719 91.0485 18.4274L91.7628 20.2955L92.4771 22.1636C93.3583 21.8266 94.1486 21.3346 94.8081 20.6695L93.3878 19.2614ZM91.7628 20.2955L91.0545 18.4251C90.6781 18.5676 90.1989 18.6591 89.5866 18.6591V20.6591V22.6591C90.5957 22.6591 91.5672 22.5081 92.4711 22.1658L91.7628 20.2955ZM107.173 13.2273V15.2273H109.022L109.167 13.3839L107.173 13.2273ZM104.014 13.2273L102.021 13.0589L101.838 15.2273H104.014V13.2273ZM103.969 12.5L102.026 12.977L102.026 12.9771L103.969 12.5ZM103.696 11.9432L102.142 13.2016L102.149 13.2108L102.157 13.2199L103.696 11.9432ZM103.19 11.5795L102.448 13.4365L102.448 13.4365L103.19 11.5795ZM100.963 11.8693L102.024 13.5645L102.035 13.5578L100.963 11.8693ZM99.8778 13.0455L101.618 14.0321L101.621 14.0266L99.8778 13.0455ZM99.2642 14.8636L97.2932 14.5245L97.2904 14.5404L97.288 14.5562L99.2642 14.8636ZM99.2528 16.5625L97.2989 16.9894L97.3006 16.9972L97.3024 17.005L99.2528 16.5625ZM99.8494 17.5739L98.6429 19.169L98.6527 19.1763L99.8494 17.5739ZM101.889 17.7955L101.347 15.8704L101.34 15.8724L101.889 17.7955ZM102.605 17.4716L103.721 19.131L103.728 19.1265L102.605 17.4716ZM103.145 16.9602L101.548 15.7554L101.545 15.7602L103.145 16.9602ZM103.491 16.2955V14.2955H102.043L101.591 15.6719L103.491 16.2955ZM106.673 16.2955L108.615 16.7735L109.225 14.2955H106.673V16.2955ZM106.026 17.8068L107.735 18.8451L107.738 18.8395L106.026 17.8068ZM104.821 19.2216L106.133 20.7311L106.14 20.7253L104.821 19.2216ZM103.082 20.2614L102.343 18.403L102.343 18.403L103.082 20.2614ZM98.0085 19.9432L96.9723 21.6538L96.9759 21.656L98.0085 19.9432ZM96.2926 17.8523L94.4257 18.5697L94.4283 18.5764L96.2926 17.8523ZM96.0824 14.5L94.1096 14.1712L94.1078 14.1822L96.0824 14.5ZM99.6165 9.35795L100.493 11.1559L100.493 11.1559L99.6165 9.35795ZM104.514 9.00568L103.882 10.9031L103.885 10.9042L104.514 9.00568ZM106.043 9.88636L104.676 11.3467L104.683 11.3532L104.69 11.3596L106.043 9.88636ZM106.963 11.3011L108.85 10.6382L108.85 10.6382L106.963 11.3011ZM107.173 13.2273V11.2273H104.014V13.2273V15.2273H107.173V13.2273ZM104.014 13.2273L106.007 13.3957C106.044 12.955 106.026 12.4894 105.911 12.0229L103.969 12.5L102.026 12.9771C102.018 12.9424 102.03 12.9617 102.021 13.0589L104.014 13.2273ZM103.969 12.5L105.911 12.023C105.793 11.5438 105.576 11.0774 105.236 10.6665L103.696 11.9432L102.157 13.2199C102.073 13.1196 102.038 13.0244 102.026 12.977L103.969 12.5ZM103.696 11.9432L105.251 10.6848C104.886 10.2351 104.427 9.92031 103.933 9.72259L103.19 11.5795L102.448 13.4365C102.37 13.4054 102.248 13.3331 102.142 13.2016L103.696 11.9432ZM103.19 11.5795L103.933 9.72259C103.432 9.52218 102.92 9.45455 102.446 9.45455V11.4545V13.4545C102.47 13.4545 102.488 13.4554 102.499 13.4563C102.511 13.4573 102.517 13.4582 102.517 13.4582C102.517 13.4581 102.491 13.4538 102.448 13.4365L103.19 11.5795ZM102.446 11.4545V9.45455C101.542 9.45455 100.671 9.6861 99.8912 10.1808L100.963 11.8693L102.035 13.5578C102.127 13.4995 102.244 13.4545 102.446 13.4545V11.4545ZM100.963 11.8693L99.9017 10.1742C99.1449 10.648 98.5633 11.3035 98.135 12.0643L99.8778 13.0455L101.621 14.0266C101.768 13.7647 101.91 13.6361 102.024 13.5645L100.963 11.8693ZM99.8778 13.0455L98.1382 12.0588C97.714 12.8067 97.445 13.6419 97.2932 14.5245L99.2642 14.8636L101.235 15.2027C101.326 14.6763 101.466 14.2994 101.618 14.0321L99.8778 13.0455ZM99.2642 14.8636L97.288 14.5562C97.1609 15.3728 97.1284 16.2088 97.2989 16.9894L99.2528 16.5625L101.207 16.1356C101.18 16.0146 101.155 15.7181 101.24 15.171L99.2642 14.8636ZM99.2528 16.5625L97.3024 17.005C97.4824 17.7982 97.8854 18.5959 98.6429 19.1689L99.8494 17.5739L101.056 15.9788C101.128 16.0333 101.176 16.0939 101.201 16.1373C101.224 16.1758 101.217 16.179 101.203 16.12L99.2528 16.5625ZM99.8494 17.5739L98.6527 19.1763C99.3831 19.7218 100.226 19.9091 101.014 19.9091V17.9091V15.9091C100.93 15.9091 100.903 15.899 100.918 15.9033C100.926 15.9056 100.943 15.9113 100.967 15.9228C100.991 15.9345 101.018 15.9506 101.046 15.9714L99.8494 17.5739ZM101.014 17.9091V19.9091C101.49 19.9091 101.97 19.8524 102.439 19.7185L101.889 17.7955L101.34 15.8724C101.278 15.89 101.174 15.9091 101.014 15.9091V17.9091ZM101.889 17.7955L102.431 19.7205C102.882 19.5937 103.318 19.4022 103.721 19.131L102.605 17.4716L101.489 15.8121C101.475 15.8213 101.434 15.8457 101.347 15.8704L101.889 17.7955ZM102.605 17.4716L103.728 19.1265C104.116 18.8635 104.459 18.5414 104.745 18.1602L103.145 16.9602L101.545 15.7602C101.535 15.773 101.519 15.7918 101.482 15.8166L102.605 17.4716ZM103.145 16.9602L104.741 18.165C105.027 17.786 105.245 17.3675 105.392 16.919L103.491 16.2955L101.591 15.6719C101.579 15.7082 101.565 15.7329 101.549 15.7554L103.145 16.9602ZM103.491 16.2955V18.2955H106.673V16.2955V14.2955H103.491V16.2955ZM106.673 16.2955L104.731 15.8174C104.666 16.0821 104.538 16.4002 104.313 16.7741L106.026 17.8068L107.738 18.8395C108.134 18.1832 108.438 17.4937 108.615 16.7735L106.673 16.2955ZM106.026 17.8068L104.316 16.7685C104.121 17.0901 103.856 17.4078 103.502 17.7179L104.821 19.2216L106.14 20.7253C106.771 20.1718 107.309 19.5463 107.735 18.8451L106.026 17.8068ZM104.821 19.2216L103.509 17.7121C103.203 17.9784 102.821 18.2128 102.343 18.403L103.082 20.2614L103.822 22.1198C104.677 21.7797 105.455 21.3208 106.133 20.7311L104.821 19.2216ZM103.082 20.2614L102.343 18.403C101.947 18.5607 101.453 18.6591 100.832 18.6591V20.6591V22.6591C101.879 22.6591 102.885 22.4923 103.822 22.1198L103.082 20.2614ZM100.832 20.6591V18.6591C100.039 18.6591 99.4689 18.4883 99.0411 18.2304L98.0085 19.9432L96.9759 21.656C98.1315 22.3526 99.4438 22.6591 100.832 22.6591V20.6591ZM98.0085 19.9432L99.0448 18.2326C98.6605 17.9998 98.3648 17.6633 98.1569 17.1281L96.2926 17.8523L94.4283 18.5764C94.9326 19.8746 95.7808 20.9321 96.9723 21.6538L98.0085 19.9432ZM96.2926 17.8523L98.1595 17.1348C97.9714 16.6454 97.8816 15.9078 98.057 14.8178L96.0824 14.5L94.1078 14.1822C93.859 15.7286 93.9093 17.2258 94.4257 18.5697L96.2926 17.8523ZM96.0824 14.5L98.0552 14.8288C98.227 13.7976 98.5482 13.0378 98.9558 12.4771L97.3381 11.3011L95.7203 10.1252C94.8779 11.2841 94.362 12.6569 94.1096 14.1712L96.0824 14.5ZM97.3381 11.3011L98.9558 12.4771C99.4019 11.8633 99.9133 11.4382 100.493 11.1559L99.6165 9.35795L98.7404 7.56005C97.5318 8.14897 96.5242 9.01923 95.7203 10.1252L97.3381 11.3011ZM99.6165 9.35795L100.493 11.1559C101.11 10.855 101.761 10.7045 102.469 10.7045V8.70455V6.70455C101.162 6.70455 99.9109 6.98965 98.7404 7.56005L99.6165 9.35795ZM102.469 8.70455V10.7045C103.057 10.7045 103.519 10.7823 103.882 10.903L104.514 9.00568L105.147 7.10831C104.304 6.82759 103.404 6.70455 102.469 6.70455V8.70455ZM104.514 9.00568L103.885 10.9042C104.252 11.0258 104.5 11.1821 104.676 11.3467L106.043 9.88636L107.409 8.42604C106.759 7.81787 105.988 7.38711 105.143 7.10713L104.514 9.00568ZM106.043 9.88636L104.69 11.3596C104.852 11.5087 104.982 11.6972 105.076 11.9641L106.963 11.3011L108.85 10.6382C108.55 9.78387 108.066 9.02916 107.395 8.41317L106.043 9.88636ZM106.963 11.3011L105.076 11.9641C105.163 12.2106 105.219 12.5648 105.179 13.0707L107.173 13.2273L109.167 13.3839C109.241 12.4427 109.157 11.5129 108.85 10.6382L106.963 11.3011ZM109.3 20.125L108.288 21.8503L108.296 21.8549L109.3 20.125ZM108.004 18.5795L106.129 19.2749L106.13 19.2783L108.004 18.5795ZM107.868 16.1591L109.84 16.493L109.84 16.4906L107.868 16.1591ZM108.805 13.7955L107.173 12.6399L107.169 12.6461L108.805 13.7955ZM110.607 12.2216L109.69 10.444L109.686 10.4459L110.607 12.2216ZM114.783 11.9659L114.02 13.815L114.025 13.817L114.783 11.9659ZM116.004 12.858L114.447 14.1129L114.447 14.1129L116.004 12.858ZM116.641 14.2727L114.679 14.6624L114.68 14.6702L114.682 14.6779L116.641 14.2727ZM116.641 16.1364L114.667 15.8128L114.666 15.8202L114.665 15.8276L116.641 16.1364ZM116.527 16.8636V18.8636H118.239L118.503 17.1724L116.527 16.8636ZM108.732 16.8636L106.756 16.5517L106.391 18.8636H108.732V16.8636ZM109.004 15.1364V13.1364H107.295L107.029 14.8244L109.004 15.1364ZM113.913 15.1364V17.1364H115.633L115.891 15.436L113.913 15.1364ZM113.839 14.4773L112.003 15.2695L112.013 15.2914L112.023 15.3131L113.839 14.4773ZM113.436 14.0284L112.402 15.7402L112.423 15.7528L112.444 15.7649L113.436 14.0284ZM112.05 14.0284L111.179 12.2277L111.167 12.2335L112.05 14.0284ZM111.476 14.4886L109.92 13.232L109.913 13.2411L109.905 13.2503L111.476 14.4886ZM111.163 15.1818L109.202 14.7896L109.2 14.8014L109.198 14.8132L111.163 15.1818ZM110.822 17L108.857 16.6314L108.852 16.6556L108.848 16.6799L110.822 17ZM110.874 17.75L112.754 17.0691L112.754 17.0691L110.874 17.75ZM111.288 18.267L112.36 16.5784L112.36 16.5784L111.288 18.267ZM112.652 18.3693L113.227 20.285L113.239 20.2814L113.251 20.2776L112.652 18.3693ZM113.163 18.108L114.383 19.6932L114.388 19.6888L113.163 18.108ZM113.527 17.6818V15.6818H112.34L111.771 16.7241L113.527 17.6818ZM116.391 17.6818L118.286 18.3214L119.176 15.6818H116.391V17.6818ZM115.419 19.2614L113.999 17.8532L113.999 17.8532L115.419 19.2614ZM113.794 20.2955L114.502 22.1658L114.508 22.1636L113.794 20.2955ZM111.618 20.6591V18.6591C110.931 18.6591 110.531 18.5272 110.303 18.3951L109.3 20.125L108.296 21.8549C109.296 22.435 110.441 22.6591 111.618 22.6591V20.6591ZM109.3 20.125L110.311 18.3998C110.097 18.2742 109.968 18.1228 109.878 17.8808L108.004 18.5795L106.13 19.2783C106.54 20.3772 107.275 21.2561 108.288 21.8502L109.3 20.125ZM108.004 18.5795L109.88 17.8842C109.785 17.6286 109.721 17.1956 109.84 16.493L107.868 16.1591L105.896 15.8251C105.697 17.0014 105.724 18.182 106.129 19.2749L108.004 18.5795ZM107.868 16.1591L109.84 16.4906C109.948 15.8508 110.158 15.3492 110.442 14.9448L108.805 13.7955L107.169 12.6461C106.506 13.5901 106.091 14.6644 105.896 15.8276L107.868 16.1591ZM108.805 13.7955L110.438 14.951C110.733 14.5336 111.091 14.2232 111.527 13.9972L110.607 12.2216L109.686 10.4459C108.675 10.9699 107.832 11.7088 107.173 12.6399L108.805 13.7955ZM110.607 12.2216L111.523 13.9992C111.939 13.7848 112.434 13.6591 113.05 13.6591V11.6591V9.65909C111.862 9.65909 110.729 9.90843 109.69 10.444L110.607 12.2216ZM113.05 11.6591V13.6591C113.505 13.6591 113.814 13.73 114.02 13.815L114.783 11.9659L115.545 10.1168C114.759 9.79273 113.912 9.65909 113.05 9.65909V11.6591ZM114.783 11.9659L114.025 13.817C114.238 13.9039 114.361 14.0062 114.447 14.1129L116.004 12.858L117.562 11.603C117.019 10.9294 116.328 10.437 115.54 10.1148L114.783 11.9659ZM116.004 12.858L114.447 14.1129C114.534 14.2214 114.624 14.386 114.679 14.6624L116.641 14.2727L118.602 13.8831C118.438 13.0534 118.103 12.2748 117.562 11.603L116.004 12.858ZM116.641 14.2727L114.682 14.6779C114.735 14.9352 114.751 15.3027 114.667 15.8128L116.641 16.1364L118.614 16.4599C118.758 15.5836 118.773 14.7088 118.599 13.8675L116.641 14.2727ZM116.641 16.1364L114.665 15.8276L114.551 16.5549L116.527 16.8636L118.503 17.1724L118.617 16.4451L116.641 16.1364ZM116.527 16.8636V14.8636H108.732V16.8636V18.8636H116.527V16.8636ZM108.732 16.8636L110.707 17.1756L110.98 15.4483L109.004 15.1364L107.029 14.8244L106.756 16.5517L108.732 16.8636ZM109.004 15.1364V17.1364H113.913V15.1364V13.1364H109.004V15.1364ZM113.913 15.1364L115.891 15.436C115.975 14.883 115.939 14.2548 115.656 13.6415L113.839 14.4773L112.023 15.3131C111.915 15.0785 111.928 14.8898 111.936 14.8368L113.913 15.1364ZM113.839 14.4773L115.676 13.6851C115.418 13.0872 114.984 12.6093 114.428 12.2919L113.436 14.0284L112.444 15.7649C112.363 15.7187 112.273 15.6507 112.189 15.5571C112.104 15.4631 112.043 15.363 112.003 15.2695L113.839 14.4773ZM113.436 14.0284L114.47 12.3166C113.916 11.9817 113.322 11.8636 112.777 11.8636V13.8636V15.8636C112.748 15.8636 112.592 15.8554 112.402 15.7402L113.436 14.0284ZM112.777 13.8636V11.8636C112.224 11.8636 111.684 11.984 111.179 12.2277L112.05 14.0284L112.92 15.8291C112.899 15.8392 112.873 15.8488 112.844 15.8554C112.815 15.862 112.791 15.8636 112.777 15.8636V13.8636ZM112.05 14.0284L111.167 12.2335C110.679 12.4739 110.259 12.8126 109.92 13.232L111.476 14.4886L113.032 15.7453C113.024 15.755 113.01 15.77 112.99 15.7861C112.97 15.8023 112.949 15.8147 112.932 15.8233L112.05 14.0284ZM111.476 14.4886L109.905 13.2503C109.54 13.7136 109.312 14.2402 109.202 14.7896L111.163 15.1818L113.125 15.574C113.123 15.5796 113.118 15.6007 113.105 15.6316C113.09 15.6631 113.071 15.6961 113.046 15.7269L111.476 14.4886ZM111.163 15.1818L109.198 14.8132L108.857 16.6314L110.822 17L112.788 17.3686L113.129 15.5504L111.163 15.1818ZM110.822 17L108.848 16.6799C108.76 17.2244 108.775 17.8287 108.993 18.4309L110.874 17.75L112.754 17.0691C112.813 17.2319 112.794 17.3362 112.797 17.3201L110.822 17ZM110.874 17.75L108.993 18.4309C109.223 19.066 109.645 19.5931 110.217 19.9557L111.288 18.267L112.36 16.5784C112.437 16.6271 112.521 16.6978 112.597 16.7926C112.673 16.8873 112.723 16.9844 112.754 17.0691L110.874 17.75ZM111.288 18.267L110.217 19.9557C110.824 20.3411 111.482 20.4545 112.05 20.4545V18.4545V16.4545C111.996 16.4545 112.147 16.443 112.36 16.5784L111.288 18.267ZM112.05 18.4545V20.4545C112.442 20.4545 112.838 20.4016 113.227 20.285L112.652 18.3693L112.077 16.4537C112.081 16.4524 112.082 16.4525 112.079 16.453C112.076 16.4534 112.066 16.4545 112.05 16.4545V18.4545ZM112.652 18.3693L113.251 20.2776C113.649 20.1527 114.033 19.9621 114.383 19.6932L113.163 18.108L111.944 16.5227C111.998 16.4811 112.042 16.4647 112.053 16.461L112.652 18.3693ZM113.163 18.108L114.388 19.6888C114.756 19.4041 115.059 19.0507 115.283 18.6395L113.527 17.6818L111.771 16.7241C111.814 16.6463 111.874 16.5769 111.938 16.5271L113.163 18.108ZM113.527 17.6818V19.6818H116.391V17.6818V15.6818H113.527V17.6818ZM116.391 17.6818L114.496 17.0423C114.387 17.3641 114.224 17.6265 113.999 17.8532L115.419 19.2614L116.839 20.6695C117.501 20.0023 117.985 19.2116 118.286 18.3214L116.391 17.6818ZM115.419 19.2614L113.999 17.8532C113.779 18.0745 113.486 18.2719 113.08 18.4274L113.794 20.2955L114.508 22.1636C115.39 21.8266 116.18 21.3346 116.839 20.6695L115.419 19.2614ZM113.794 20.2955L113.086 18.4251C112.709 18.5676 112.23 18.6591 111.618 18.6591V20.6591V22.6591C112.627 22.6591 113.598 22.5081 114.502 22.1658L113.794 20.2955ZM121.17 15.5909L119.199 15.2537L119.198 15.2621L121.17 15.5909ZM120.352 20.5V22.5H122.047L122.325 20.8288L120.352 20.5ZM117.216 20.5L115.243 20.1712L114.855 22.5H117.216V20.5ZM118.67 11.7727V9.77273H116.976L116.698 11.4439L118.67 11.7727ZM121.648 11.7727L123.621 12.0971L124.003 9.77273H121.648V11.7727ZM121.375 13.4318L119.401 13.1074L119.019 15.4318H121.375V13.4318ZM121.466 13.4318V15.4318H122.706L123.257 14.3214L121.466 13.4318ZM122.676 12.1307L123.687 13.8565L123.691 13.8542L122.676 12.1307ZM125.983 12.0795L127.113 10.4297L127.113 10.4297L125.983 12.0795ZM126.852 13.2386L128.742 12.5844L128.742 12.5844L126.852 13.2386ZM126.943 14.9318L124.972 14.5916L124.971 14.6017L126.943 14.9318ZM126.011 20.5V22.5H127.704L127.984 20.8301L126.011 20.5ZM122.875 20.5L120.902 20.1712L120.514 22.5H122.875V20.5ZM123.693 15.5909L125.666 15.9197L125.666 15.9197L123.693 15.5909ZM123.534 14.5739L121.902 15.7292L121.907 15.7375L121.913 15.7458L123.534 14.5739ZM121.972 14.375L122.904 16.1442L122.916 16.138L121.972 14.375ZM121.449 14.8523L119.789 13.7359L119.785 13.7429L121.449 14.8523ZM121.17 15.5909L119.198 15.2621L118.379 20.1712L120.352 20.5L122.325 20.8288L123.143 15.9197L121.17 15.5909ZM120.352 20.5V18.5H117.216V20.5V22.5H120.352V20.5ZM117.216 20.5L119.189 20.8288L120.643 12.1015L118.67 11.7727L116.698 11.4439L115.243 20.1712L117.216 20.5ZM118.67 11.7727V13.7727H121.648V11.7727V9.77273H118.67V11.7727ZM121.648 11.7727L119.674 11.4483L119.401 13.1074L121.375 13.4318L123.349 13.7562L123.621 12.0971L121.648 11.7727ZM121.375 13.4318V15.4318H121.466V13.4318V11.4318H121.375V13.4318ZM121.466 13.4318L123.257 14.3214C123.363 14.109 123.497 13.9678 123.687 13.8564L122.676 12.1307L121.665 10.4049C120.795 10.9147 120.122 11.641 119.675 12.5423L121.466 13.4318ZM122.676 12.1307L123.691 13.8542C123.905 13.7281 124.141 13.6591 124.443 13.6591V11.6591V9.65909C123.457 9.65909 122.515 9.90449 121.662 10.4071L122.676 12.1307ZM124.443 11.6591V13.6591C124.757 13.6591 124.85 13.7276 124.852 13.7294L125.983 12.0795L127.113 10.4297C126.298 9.8709 125.365 9.65909 124.443 9.65909V11.6591ZM125.983 12.0795L124.852 13.7294C124.89 13.7549 124.924 13.7831 124.962 13.8929L126.852 13.2386L128.742 12.5844C128.439 11.7093 127.894 10.9648 127.113 10.4297L125.983 12.0795ZM126.852 13.2386L124.962 13.8929C124.999 13.9982 125.038 14.2096 124.972 14.5916L126.943 14.9318L128.914 15.272C129.068 14.3813 129.047 13.4639 128.742 12.5844L126.852 13.2386ZM126.943 14.9318L124.971 14.6017L124.039 20.1699L126.011 20.5L127.984 20.8301L128.916 15.2619L126.943 14.9318ZM126.011 20.5V18.5H122.875V20.5V22.5H126.011V20.5ZM122.875 20.5L124.848 20.8288L125.666 15.9197L123.693 15.5909L121.72 15.2621L120.902 20.1712L122.875 20.5ZM123.693 15.5909L125.666 15.9197C125.787 15.1944 125.762 14.2415 125.155 13.402L123.534 14.5739L121.913 15.7458C121.795 15.5819 121.747 15.4233 121.731 15.3219C121.717 15.2309 121.73 15.202 121.72 15.2621L123.693 15.5909ZM123.534 14.5739L125.167 13.4185C124.499 12.4757 123.485 12.2045 122.67 12.2045V14.2045V16.2045C122.67 16.2045 122.644 16.2046 122.599 16.1965C122.553 16.1883 122.484 16.1712 122.401 16.1358C122.219 16.0578 122.036 15.9196 121.902 15.7292L123.534 14.5739ZM122.67 14.2045V12.2045C122.106 12.2045 121.546 12.3342 121.027 12.612L121.972 14.375L122.916 16.138C122.874 16.1605 122.827 16.1785 122.779 16.1902C122.732 16.2018 122.694 16.2045 122.67 16.2045V14.2045ZM121.972 14.375L121.039 12.6059C120.519 12.8801 120.102 13.272 119.789 13.7359L121.449 14.8523L123.108 15.9686C123.095 15.9882 123.071 16.0192 123.033 16.0537C122.995 16.0886 122.951 16.1196 122.904 16.1441L121.972 14.375ZM121.449 14.8523L119.785 13.7429C119.467 14.2201 119.287 14.7409 119.199 15.2537L121.17 15.5909L123.142 15.9281C123.147 15.8963 123.152 15.8874 123.148 15.8957C123.145 15.9048 123.135 15.9291 123.113 15.9617L121.449 14.8523ZM134.196 11.7727L136.168 12.1079L136.565 9.77273H134.196V11.7727ZM133.81 14.0455V16.0455H135.498L135.781 14.3806L133.81 14.0455ZM128.06 14.0455L126.088 13.7103L125.691 16.0455H128.06V14.0455ZM128.446 11.7727V9.77273H126.757L126.474 11.4375L128.446 11.7727ZM129.901 9.68182V7.68182H128.204L127.927 9.35521L129.901 9.68182ZM133.037 9.68182L135.01 10.0093L135.396 7.68182H133.037V9.68182ZM131.707 17.6932L129.734 17.3657L129.733 17.3751L129.731 17.3844L131.707 17.6932ZM131.719 18L129.813 18.6064L129.817 18.6195L129.821 18.6325L131.719 18ZM131.878 18.1818L130.95 19.9535L130.999 19.9794L131.05 20.0026L131.878 18.1818ZM132.543 18.2045L132.881 20.1758L132.908 20.1711L132.935 20.1657L132.543 18.2045ZM132.844 18.1477L134.842 18.0653L134.749 15.8026L132.515 16.1749L132.844 18.1477ZM132.935 20.3523L133.484 22.2753L134.998 21.8428L134.933 20.2699L132.935 20.3523ZM132.293 20.5057L131.879 18.5489L131.863 18.5523L131.847 18.556L132.293 20.5057ZM131.366 20.625L131.459 22.6229L131.467 22.6225L131.474 22.6221L131.366 20.625ZM129.571 20.392L128.807 22.2405L128.813 22.2427L129.571 20.392ZM128.616 19.5057L126.779 20.2956L126.784 20.306L126.788 20.3164L128.616 19.5057ZM128.526 17.9886L130.491 18.3572L130.495 18.3363L130.499 18.3152L128.526 17.9886ZM134.196 11.7727L132.224 11.4375L131.838 13.7103L133.81 14.0455L135.781 14.3806L136.168 12.1079L134.196 11.7727ZM133.81 14.0455V12.0455H128.06V14.0455V16.0455H133.81V14.0455ZM128.06 14.0455L130.031 14.3806L130.418 12.1079L128.446 11.7727L126.474 11.4375L126.088 13.7103L128.06 14.0455ZM128.446 11.7727V13.7727H134.196V11.7727V9.77273H128.446V11.7727ZM129.901 9.68182V11.6818H133.037V9.68182V7.68182H129.901V9.68182ZM133.037 9.68182L131.064 9.35438L129.734 17.3657L131.707 17.6932L133.68 18.0206L135.01 10.0093L133.037 9.68182ZM131.707 17.6932L129.731 17.3844C129.683 17.6961 129.662 18.1331 129.813 18.6064L131.719 18L133.625 17.3936C133.722 17.7002 133.694 17.9327 133.683 18.0019L131.707 17.6932ZM131.719 18L129.821 18.6325C130.024 19.2399 130.448 19.6905 130.95 19.9535L131.878 18.1818L132.806 16.4102C132.96 16.4908 133.13 16.6123 133.284 16.7881C133.439 16.9659 133.549 17.1659 133.616 17.3675L131.719 18ZM131.878 18.1818L131.05 20.0026C131.489 20.2019 131.913 20.2386 132.207 20.2386V18.2386V16.2386C132.229 16.2386 132.284 16.2399 132.363 16.2535C132.441 16.267 132.562 16.296 132.705 16.3611L131.878 18.1818ZM132.207 18.2386V20.2386C132.451 20.2386 132.684 20.2095 132.881 20.1758L132.543 18.2045L132.205 16.2333C132.19 16.2358 132.179 16.2375 132.171 16.2387C132.162 16.2398 132.158 16.2403 132.157 16.2404C132.156 16.2405 132.16 16.2401 132.168 16.2396C132.175 16.2392 132.189 16.2386 132.207 16.2386V18.2386ZM132.543 18.2045L132.935 20.1657C133.062 20.1402 133.137 20.1264 133.173 20.1205L132.844 18.1477L132.515 16.1749C132.414 16.1918 132.288 16.2158 132.15 16.2434L132.543 18.2045ZM132.844 18.1477L130.845 18.2301L130.936 20.4347L132.935 20.3523L134.933 20.2699L134.842 18.0653L132.844 18.1477ZM132.935 20.3523L132.385 18.4292C132.291 18.4562 132.128 18.4963 131.879 18.5489L132.293 20.5057L132.706 22.4625C132.995 22.4014 133.26 22.3392 133.484 22.2753L132.935 20.3523ZM132.293 20.5057L131.847 18.556C131.72 18.585 131.529 18.6134 131.259 18.6279L131.366 20.625L131.474 22.6221C131.908 22.5987 132.335 22.5476 132.738 22.4554L132.293 20.5057ZM131.366 20.625L131.274 18.6271C130.704 18.6536 130.425 18.5808 130.329 18.5414L129.571 20.392L128.813 22.2427C129.641 22.5821 130.56 22.6646 131.459 22.6229L131.366 20.625ZM129.571 20.392L130.335 18.5436C130.295 18.5272 130.311 18.5271 130.35 18.5628C130.368 18.5801 130.388 18.6017 130.406 18.627C130.423 18.6522 130.436 18.6758 130.445 18.695L128.616 19.5057L126.788 20.3164C127.202 21.2495 127.94 21.8822 128.807 22.2405L129.571 20.392ZM128.616 19.5057L130.454 18.7158C130.487 18.7938 130.423 18.7226 130.491 18.3572L128.526 17.9886L126.56 17.6201C126.401 18.4667 126.397 19.4069 126.779 20.2956L128.616 19.5057ZM128.526 17.9886L130.499 18.3152L131.874 10.0084L129.901 9.68182L127.927 9.35521L126.552 17.662L128.526 17.9886ZM135.768 20.125L134.757 21.8503L134.765 21.8549L135.768 20.125ZM134.473 18.5795L132.598 19.2749L132.599 19.2783L134.473 18.5795ZM134.337 16.1591L136.309 16.493L136.309 16.4906L134.337 16.1591ZM135.274 13.7955L133.642 12.6399L133.637 12.6461L135.274 13.7955ZM137.075 12.2216L136.159 10.444L136.155 10.4459L137.075 12.2216ZM141.251 11.9659L140.489 13.815L140.494 13.817L141.251 11.9659ZM142.473 12.858L140.916 14.1129L140.916 14.1129L142.473 12.858ZM143.109 14.2727L141.148 14.6624L141.149 14.6702L141.151 14.6779L143.109 14.2727ZM143.109 16.1364L141.136 15.8128L141.135 15.8202L141.133 15.8276L143.109 16.1364ZM142.996 16.8636V18.8636H144.708L144.972 17.1724L142.996 16.8636ZM135.2 16.8636L133.225 16.5517L132.86 18.8636H135.2V16.8636ZM135.473 15.1364V13.1364H133.764L133.497 14.8244L135.473 15.1364ZM140.382 15.1364V17.1364H142.102L142.36 15.436L140.382 15.1364ZM140.308 14.4773L138.472 15.2695L138.481 15.2914L138.491 15.3131L140.308 14.4773ZM139.905 14.0284L138.871 15.7402L138.891 15.7528L138.913 15.7649L139.905 14.0284ZM138.518 14.0284L137.648 12.2277L137.636 12.2335L138.518 14.0284ZM137.945 14.4886L136.389 13.232L136.381 13.2411L136.374 13.2503L137.945 14.4886ZM137.632 15.1818L135.671 14.7896L135.669 14.8014L135.666 14.8132L137.632 15.1818ZM137.291 17L135.325 16.6314L135.321 16.6556L135.317 16.6799L137.291 17ZM137.342 17.75L139.223 17.0691L139.223 17.0691L137.342 17.75ZM137.757 18.267L138.829 16.5784L138.829 16.5784L137.757 18.267ZM139.121 18.3693L139.695 20.285L139.707 20.2814L139.719 20.2776L139.121 18.3693ZM139.632 18.108L140.852 19.6932L140.857 19.6888L139.632 18.108ZM139.996 17.6818V15.6818H138.808L138.24 16.7241L139.996 17.6818ZM142.859 17.6818L144.754 18.3214L145.645 15.6818H142.859V17.6818ZM141.888 19.2614L140.468 17.8532L140.468 17.8532L141.888 19.2614ZM140.263 20.2955L140.971 22.1658L140.977 22.1636L140.263 20.2955ZM138.087 20.6591V18.6591C137.4 18.6591 137 18.5272 136.772 18.3951L135.768 20.125L134.765 21.8549C135.764 22.435 136.91 22.6591 138.087 22.6591V20.6591ZM135.768 20.125L136.78 18.3998C136.566 18.2742 136.437 18.1228 136.347 17.8808L134.473 18.5795L132.599 19.2783C133.009 20.3772 133.744 21.2561 134.757 21.8502L135.768 20.125ZM134.473 18.5795L136.348 17.8842C136.253 17.6286 136.19 17.1956 136.309 16.493L134.337 16.1591L132.365 15.8251C132.166 17.0014 132.193 18.182 132.598 19.2749L134.473 18.5795ZM134.337 16.1591L136.309 16.4906C136.417 15.8508 136.627 15.3492 136.911 14.9448L135.274 13.7955L133.637 12.6461C132.974 13.5901 132.56 14.6644 132.364 15.8276L134.337 16.1591ZM135.274 13.7955L136.907 14.951C137.202 14.5336 137.56 14.2232 137.996 13.9972L137.075 12.2216L136.155 10.4459C135.144 10.9699 134.301 11.7088 133.642 12.6399L135.274 13.7955ZM137.075 12.2216L137.992 13.9992C138.408 13.7848 138.903 13.6591 139.518 13.6591V11.6591V9.65909C138.331 9.65909 137.197 9.90843 136.159 10.444L137.075 12.2216ZM139.518 11.6591V13.6591C139.974 13.6591 140.283 13.73 140.489 13.815L141.251 11.9659L142.014 10.1168C141.227 9.79273 140.381 9.65909 139.518 9.65909V11.6591ZM141.251 11.9659L140.494 13.817C140.707 13.9039 140.83 14.0062 140.916 14.1129L142.473 12.858L144.03 11.603C143.487 10.9294 142.796 10.437 142.009 10.1148L141.251 11.9659ZM142.473 12.858L140.916 14.1129C141.003 14.2214 141.093 14.386 141.148 14.6624L143.109 14.2727L145.071 13.8831C144.906 13.0534 144.572 12.2748 144.03 11.603L142.473 12.858ZM143.109 14.2727L141.151 14.6779C141.204 14.9352 141.219 15.3027 141.136 15.8128L143.109 16.1364L145.083 16.4599C145.227 15.5836 145.242 14.7088 145.068 13.8675L143.109 14.2727ZM143.109 16.1364L141.133 15.8276L141.02 16.5549L142.996 16.8636L144.972 17.1724L145.085 16.4451L143.109 16.1364ZM142.996 16.8636V14.8636H135.2V16.8636V18.8636H142.996V16.8636ZM135.2 16.8636L137.176 17.1756L137.449 15.4483L135.473 15.1364L133.497 14.8244L133.225 16.5517L135.2 16.8636ZM135.473 15.1364V17.1364H140.382V15.1364V13.1364H135.473V15.1364ZM140.382 15.1364L142.36 15.436C142.443 14.883 142.407 14.2548 142.125 13.6415L140.308 14.4773L138.491 15.3131C138.383 15.0785 138.397 14.8898 138.405 14.8368L140.382 15.1364ZM140.308 14.4773L142.145 13.6851C141.887 13.0872 141.452 12.6093 140.897 12.2919L139.905 14.0284L138.913 15.7649C138.832 15.7187 138.742 15.6507 138.657 15.5571C138.573 15.4631 138.512 15.363 138.472 15.2695L140.308 14.4773ZM139.905 14.0284L140.939 12.3166C140.385 11.9817 139.79 11.8636 139.246 11.8636V13.8636V15.8636C139.216 15.8636 139.061 15.8554 138.871 15.7402L139.905 14.0284ZM139.246 13.8636V11.8636C138.693 11.8636 138.152 11.984 137.648 12.2277L138.518 14.0284L139.389 15.8291C139.368 15.8392 139.342 15.8488 139.313 15.8554C139.284 15.862 139.26 15.8636 139.246 15.8636V13.8636ZM138.518 14.0284L137.636 12.2335C137.147 12.4739 136.727 12.8126 136.389 13.232L137.945 14.4886L139.5 15.7453C139.493 15.755 139.479 15.77 139.459 15.7861C139.438 15.8023 139.418 15.8147 139.401 15.8233L138.518 14.0284ZM137.945 14.4886L136.374 13.2503C136.009 13.7136 135.781 14.2402 135.671 14.7896L137.632 15.1818L139.593 15.574C139.592 15.5796 139.587 15.6007 139.573 15.6316C139.559 15.6631 139.539 15.6961 139.515 15.7269L137.945 14.4886ZM137.632 15.1818L135.666 14.8132L135.325 16.6314L137.291 17L139.257 17.3686L139.598 15.5504L137.632 15.1818ZM137.291 17L135.317 16.6799C135.229 17.2244 135.244 17.8287 135.462 18.4309L137.342 17.75L139.223 17.0691C139.282 17.2319 139.263 17.3362 139.265 17.3201L137.291 17ZM137.342 17.75L135.462 18.4309C135.692 19.066 136.114 19.5931 136.685 19.9557L137.757 18.267L138.829 16.5784C138.906 16.6271 138.99 16.6978 139.066 16.7926C139.142 16.8873 139.192 16.9844 139.223 17.0691L137.342 17.75ZM137.757 18.267L136.685 19.9557C137.293 20.3411 137.951 20.4545 138.518 20.4545V18.4545V16.4545C138.465 16.4545 138.615 16.443 138.829 16.5784L137.757 18.267ZM138.518 18.4545V20.4545C138.911 20.4545 139.307 20.4016 139.695 20.285L139.121 18.3693L138.546 16.4537C138.55 16.4524 138.551 16.4525 138.548 16.453C138.545 16.4534 138.535 16.4545 138.518 16.4545V18.4545ZM139.121 18.3693L139.719 20.2776C140.118 20.1527 140.502 19.9621 140.852 19.6932L139.632 18.108L138.413 16.5227C138.467 16.4811 138.51 16.4647 138.522 16.461L139.121 18.3693ZM139.632 18.108L140.857 19.6888C141.225 19.4041 141.527 19.0507 141.752 18.6395L139.996 17.6818L138.24 16.7241C138.282 16.6463 138.343 16.5769 138.407 16.5271L139.632 18.108ZM139.996 17.6818V19.6818H142.859V17.6818V15.6818H139.996V17.6818ZM142.859 17.6818L140.964 17.0423C140.856 17.3641 140.692 17.6265 140.468 17.8532L141.888 19.2614L143.308 20.6695C143.97 20.0023 144.454 19.2116 144.754 18.3214L142.859 17.6818ZM141.888 19.2614L140.468 17.8532C140.248 18.0745 139.955 18.2719 139.549 18.4274L140.263 20.2955L140.977 22.1636C141.858 21.8266 142.649 21.3346 143.308 20.6695L141.888 19.2614ZM140.263 20.2955L139.554 18.4251C139.178 18.5676 138.699 18.6591 138.087 18.6591V20.6591V22.6591C139.096 22.6591 140.067 22.5081 140.971 22.1658L140.263 20.2955ZM143.662 20.5L141.689 20.1712L141.301 22.5H143.662V20.5ZM145.116 11.7727V9.77273H143.422L143.144 11.4439L145.116 11.7727ZM148.162 11.7727L150.135 12.0971L150.518 9.77273H148.162V11.7727ZM147.889 13.4318L145.916 13.1074L145.534 15.4318H147.889V13.4318ZM147.98 13.4318V15.4318H149.302L149.82 14.2155L147.98 13.4318ZM148.963 12.0852L147.793 10.463L147.793 10.463L148.963 12.0852ZM150.645 11.6932L150.287 13.6609L150.32 13.667L150.354 13.6719L150.645 11.6932ZM151.026 11.7727L152.997 12.1069L153.3 10.3201L151.552 9.8432L151.026 11.7727ZM150.571 14.4545L149.853 16.3212L152.134 17.1987L152.543 14.7888L150.571 14.4545ZM150.02 14.3352L149.78 16.3208L149.797 16.3229L149.814 16.3246L150.02 14.3352ZM148.582 14.5057L149.508 16.2789L149.517 16.2739L148.582 14.5057ZM147.912 15.0852L146.306 13.893L146.303 13.8971L147.912 15.0852ZM147.548 15.9545L145.581 15.5968L145.578 15.6128L145.575 15.6289L147.548 15.9545ZM146.798 20.5V22.5H148.495L148.772 20.8256L146.798 20.5ZM143.662 20.5L145.635 20.8288L147.089 12.1015L145.116 11.7727L143.144 11.4439L141.689 20.1712L143.662 20.5ZM145.116 11.7727V13.7727H148.162V11.7727V9.77273H145.116V11.7727ZM148.162 11.7727L146.188 11.4483L145.916 13.1074L147.889 13.4318L149.863 13.7562L150.135 12.0971L148.162 11.7727ZM147.889 13.4318V15.4318H147.98V13.4318V11.4318H147.889V13.4318ZM147.98 13.4318L149.82 14.2155C149.99 13.817 150.125 13.713 150.133 13.7074L148.963 12.0852L147.793 10.463C147.013 11.0256 146.493 11.8194 146.14 12.6481L147.98 13.4318ZM148.963 12.0852L150.133 13.7074C150.176 13.6761 150.201 13.6671 150.208 13.6647C150.215 13.6625 150.227 13.6591 150.253 13.6591V11.6591V9.65909C149.348 9.65909 148.512 9.94444 147.793 10.463L148.963 12.0852ZM150.253 11.6591V13.6591C150.278 13.6591 150.288 13.6612 150.287 13.6609L150.645 11.6932L151.003 9.72544C150.751 9.67975 150.501 9.65909 150.253 9.65909V11.6591ZM150.645 11.6932L150.354 13.6719C150.404 13.6792 150.452 13.6894 150.499 13.7023L151.026 11.7727L151.552 9.8432C151.349 9.78791 151.144 9.74501 150.936 9.71446L150.645 11.6932ZM151.026 11.7727L149.054 11.4385L148.599 14.1203L150.571 14.4545L152.543 14.7888L152.997 12.1069L151.026 11.7727ZM150.571 14.4545L151.289 12.5879C150.926 12.4483 150.557 12.3801 150.226 12.3458L150.02 14.3352L149.814 16.3246C149.863 16.3297 149.89 16.3349 149.899 16.3368C149.903 16.3377 149.901 16.3374 149.894 16.3353C149.887 16.3331 149.873 16.3287 149.853 16.3212L150.571 14.4545ZM150.02 14.3352L150.26 12.3496C149.982 12.3162 149.705 12.2955 149.435 12.2955V14.2955V16.2955C149.506 16.2955 149.618 16.3012 149.78 16.3208L150.02 14.3352ZM149.435 14.2955V12.2955C148.809 12.2955 148.204 12.4435 147.648 12.7375L148.582 14.5057L149.517 16.2739C149.509 16.2781 149.494 16.2848 149.473 16.2898C149.453 16.2948 149.439 16.2955 149.435 16.2955V14.2955ZM148.582 14.5057L147.657 12.7325C147.113 13.0165 146.661 13.4144 146.306 13.893L147.912 15.0852L149.518 16.2774C149.523 16.2703 149.527 16.2664 149.528 16.2649C149.529 16.2636 149.529 16.2641 149.527 16.2659C149.525 16.2677 149.522 16.2701 149.518 16.2727C149.514 16.2753 149.51 16.2773 149.508 16.2789L148.582 14.5057ZM147.912 15.0852L146.303 13.8971C145.921 14.4144 145.69 14.9954 145.581 15.5968L147.548 15.9545L149.516 16.3123C149.523 16.2766 149.529 16.2608 149.53 16.259C149.53 16.2579 149.53 16.2593 149.528 16.2624C149.526 16.2655 149.524 16.2693 149.521 16.2733L147.912 15.0852ZM147.548 15.9545L145.575 15.6289L144.825 20.1744L146.798 20.5L148.772 20.8256L149.522 16.2801L147.548 15.9545ZM146.798 20.5V18.5H143.662V20.5V22.5H146.798V20.5Z" fill="#3D5AFE" mask="url(#path-2-outside-1_824_1837)"/>
<defs>
<filter id="filter0_d_824_1837" x="3.5" y="4.5" width="47" height="29" filterUnits="userSpaceOnUse" color-interpolation-filters="sRGB">
<feFlood flood-opacity="0" result="BackgroundImageFix"/>
<feColorMatrix in="SourceAlpha" type="matrix" values="0 0 0 0 0 0 0 0 0 0 0 0 0 0 0 0 0 0 127 0" result="hardAlpha"/>
<feOffset dy="4"/>
<feGaussianBlur stdDeviation="2"/>
<feComposite in2="hardAlpha" operator="out"/>
<feColorMatrix type="matrix" values="0 0 0 0 0 0 0 0 0 0.901961 0 0 0 0 0.462745 0 0 0 1 0"/>
<feBlend mode="normal" in2="BackgroundImageFix" result="effect1_dropShadow_824_1837"/>
<feBlend mode="normal" in="SourceGraphic" in2="effect1_dropShadow_824_1837" result="shape"/>
</filter>
</defs>
</svg>
